<?xml version="1.0" encoding="UTF-8"?>
<svg xmlns="http://www.w3.org/2000/svg" xmlns:xlink="http://www.w3.org/1999/xlink"
     width="91.618050" height="54.346090" viewBox="0.0 0.0 91.61805 54.34609">
<defs>
    <!-- 원본 도형들을 마스크로 정의 -->
    <mask id="inverted-mask">
        <!-- 전체 영역을 흰색으로 (보이게) -->
        <rect x="0.0" y="0.0" width="91.61805" height="54.34609" fill="white"/>
        
        <!-- 원본 도형들을 검은색으로 (안 보이게 = 마스크에서 제외) -->
        <!-- 얇은 요소 제거됨: 1186개, 유지됨: 366개 -->
        <path d="M9.55040000,47.72254000 L9.55040000,48.26964000 L9.16355000,48.65649000 L8.61645000,48.65649000 L8.22960000,48.26964000 L8.22960000,47.72254000 L8.61645000,47.33569000 L9.16355000,47.33569000 L9.55040000,47.72254000 Z" fill="black"/>
        <path d="M12.09040000,47.72254000 L12.09040000,48.26964000 L11.70355000,48.65649000 L11.15645000,48.65649000 L10.76960000,48.26964000 L10.76960000,47.72254000 L11.15645000,47.33569000 L11.70355000,47.33569000 L12.09040000,47.72254000 Z" fill="black"/>
        <path d="M17.17040000,42.64254000 L17.17040000,43.18964000 L16.78355000,43.57649000 L16.23645000,43.57649000 L15.84960000,43.18964000 L15.84960000,42.64254000 L16.23645000,42.25569000 L16.78355000,42.25569000 L17.17040000,42.64254000 Z" fill="black"/>
        <path d="M17.17040000,40.10254000 L17.17040000,40.64964000 L16.78355000,41.03649000 L16.23645000,41.03649000 L15.84960000,40.64964000 L15.84960000,40.10254000 L16.23645000,39.71569000 L16.78355000,39.71569000 L17.17040000,40.10254000 Z" fill="black"/>
        <path d="M24.79040000,40.10254000 L24.79040000,40.64964000 L24.40355000,41.03649000 L23.85645000,41.03649000 L23.46960000,40.64964000 L23.46960000,40.10254000 L23.85645000,39.71569000 L24.40355000,39.71569000 L24.79040000,40.10254000 Z" fill="black"/>
        <path d="M24.79040000,42.64254000 L24.79040000,43.18964000 L24.40355000,43.57649000 L23.85645000,43.57649000 L23.46960000,43.18964000 L23.46960000,42.64254000 L23.85645000,42.25569000 L24.40355000,42.25569000 L24.79040000,42.64254000 Z" fill="black"/>
        <path d="M32.41040000,42.64254000 L32.41040000,43.18964000 L32.02355000,43.57649000 L31.47645000,43.57649000 L31.08960000,43.18964000 L31.08960000,42.64254000 L31.47645000,42.25569000 L32.02355000,42.25569000 L32.41040000,42.64254000 Z" fill="black"/>
        <path d="M32.41040000,40.10254000 L32.41040000,40.64964000 L32.02355000,41.03649000 L31.47645000,41.03649000 L31.08960000,40.64964000 L31.08960000,40.10254000 L31.47645000,39.71569000 L32.02355000,39.71569000 L32.41040000,40.10254000 Z" fill="black"/>
        <path d="M40.03040000,40.10254000 L40.03040000,40.64964000 L39.64355000,41.03649000 L39.09645000,41.03649000 L38.70960000,40.64964000 L38.70960000,40.10254000 L39.09645000,39.71569000 L39.64355000,39.71569000 L40.03040000,40.10254000 Z" fill="black"/>
        <path d="M40.03040000,42.64254000 L40.03040000,43.18964000 L39.64355000,43.57649000 L39.09645000,43.57649000 L38.70960000,43.18964000 L38.70960000,42.64254000 L39.09645000,42.25569000 L39.64355000,42.25569000 L40.03040000,42.64254000 Z" fill="black"/>
        <path d="M52.73040000,42.64254000 L52.73040000,43.18964000 L52.34355000,43.57649000 L51.79645000,43.57649000 L51.40960000,43.18964000 L51.40960000,42.64254000 L51.79645000,42.25569000 L52.34355000,42.25569000 L52.73040000,42.64254000 Z" fill="black"/>
        <path d="M52.73040000,40.10254000 L52.73040000,40.64964000 L52.34355000,41.03649000 L51.79645000,41.03649000 L51.40960000,40.64964000 L51.40960000,40.10254000 L51.79645000,39.71569000 L52.34355000,39.71569000 L52.73040000,40.10254000 Z" fill="black"/>
        <path d="M47.65040000,35.02254000 L47.65040000,35.56964000 L47.26355000,35.95649000 L46.71645000,35.95649000 L46.32960000,35.56964000 L46.32960000,35.02254000 L46.71645000,34.63569000 L47.26355000,34.63569000 L47.65040000,35.02254000 Z" fill="black"/>
        <path d="M45.11040000,35.02254000 L45.11040000,35.56964000 L44.72355000,35.95649000 L44.17645000,35.95649000 L43.78960000,35.56964000 L43.78960000,35.02254000 L44.17645000,34.63569000 L44.72355000,34.63569000 L45.11040000,35.02254000 Z" fill="black"/>
        <path d="M45.11040000,27.40254000 L45.11040000,27.94964000 L44.72355000,28.33649000 L44.17645000,28.33649000 L43.78960000,27.94964000 L43.78960000,27.40254000 L44.17645000,27.01569000 L44.72355000,27.01569000 L45.11040000,27.40254000 Z" fill="black"/>
        <path d="M47.65040000,27.40254000 L47.65040000,27.94964000 L47.26355000,28.33649000 L46.71645000,28.33649000 L46.32960000,27.94964000 L46.32960000,27.40254000 L46.71645000,27.01569000 L47.26355000,27.01569000 L47.65040000,27.40254000 Z" fill="black"/>
        <path d="M47.65040000,19.78254000 L47.65040000,20.32964000 L47.26355000,20.71649000 L46.71645000,20.71649000 L46.32960000,20.32964000 L46.32960000,19.78254000 L46.71645000,19.39569000 L47.26355000,19.39569000 L47.65040000,19.78254000 Z" fill="black"/>
        <path d="M45.11040000,19.78254000 L45.11040000,20.32964000 L44.72355000,20.71649000 L44.17645000,20.71649000 L43.78960000,20.32964000 L43.78960000,19.78254000 L44.17645000,19.39569000 L44.72355000,19.39569000 L45.11040000,19.78254000 Z" fill="black"/>
        <path d="M45.11040000,12.16254000 L45.11040000,12.70964000 L44.72355000,13.09649000 L44.17645000,13.09649000 L43.78960000,12.70964000 L43.78960000,12.16254000 L44.17645000,11.77569000 L44.72355000,11.77569000 L45.11040000,12.16254000 Z" fill="black"/>
        <path d="M47.65040000,12.16254000 L47.65040000,12.70964000 L47.26355000,13.09649000 L46.71645000,13.09649000 L46.32960000,12.70964000 L46.32960000,12.16254000 L46.71645000,11.77569000 L47.26355000,11.77569000 L47.65040000,12.16254000 Z" fill="black"/>
        <path d="M52.73040000,7.08254000 L52.73040000,7.62964000 L52.34355000,8.01649000 L51.79645000,8.01649000 L51.40960000,7.62964000 L51.40960000,7.08254000 L51.79645000,6.69569000 L52.34355000,6.69569000 L52.73040000,7.08254000 Z" fill="black"/>
        <path d="M52.73040000,4.54254000 L52.73040000,5.08964000 L52.34355000,5.47649000 L51.79645000,5.47649000 L51.40960000,5.08964000 L51.40960000,4.54254000 L51.79645000,4.15569000 L52.34355000,4.15569000 L52.73040000,4.54254000 Z" fill="black"/>
        <path d="M60.35040000,4.54254000 L60.35040000,5.08964000 L59.96355000,5.47649000 L59.41645000,5.47649000 L59.02960000,5.08964000 L59.02960000,4.54254000 L59.41645000,4.15569000 L59.96355000,4.15569000 L60.35040000,4.54254000 Z" fill="black"/>
        <path d="M60.35040000,7.08254000 L60.35040000,7.62964000 L59.96355000,8.01649000 L59.41645000,8.01649000 L59.02960000,7.62964000 L59.02960000,7.08254000 L59.41645000,6.69569000 L59.96355000,6.69569000 L60.35040000,7.08254000 Z" fill="black"/>
        <path d="M67.97040000,7.08254000 L67.97040000,7.62964000 L67.58355000,8.01649000 L67.03645000,8.01649000 L66.64960000,7.62964000 L66.64960000,7.08254000 L67.03645000,6.69569000 L67.58355000,6.69569000 L67.97040000,7.08254000 Z" fill="black"/>
        <path d="M67.97040000,4.54254000 L67.97040000,5.08964000 L67.58355000,5.47649000 L67.03645000,5.47649000 L66.64960000,5.08964000 L66.64960000,4.54254000 L67.03645000,4.15569000 L67.58355000,4.15569000 L67.97040000,4.54254000 Z" fill="black"/>
        <path d="M75.59040000,4.54254000 L75.59040000,5.08964000 L75.20355000,5.47649000 L74.65645000,5.47649000 L74.26960000,5.08964000 L74.26960000,4.54254000 L74.65645000,4.15569000 L75.20355000,4.15569000 L75.59040000,4.54254000 Z" fill="black"/>
        <path d="M75.59040000,7.08254000 L75.59040000,7.62964000 L75.20355000,8.01649000 L74.65645000,8.01649000 L74.26960000,7.62964000 L74.26960000,7.08254000 L74.65645000,6.69569000 L75.20355000,6.69569000 L75.59040000,7.08254000 Z" fill="black"/>
        <path d="M80.67040000,12.16254000 L80.67040000,12.70964000 L80.28355000,13.09649000 L79.73645000,13.09649000 L79.34960000,12.70964000 L79.34960000,12.16254000 L79.73645000,11.77569000 L80.28355000,11.77569000 L80.67040000,12.16254000 Z" fill="black"/>
        <path d="M83.21040000,12.16254000 L83.21040000,12.70964000 L82.82355000,13.09649000 L82.27645000,13.09649000 L81.88960000,12.70964000 L81.88960000,12.16254000 L82.27645000,11.77569000 L82.82355000,11.77569000 L83.21040000,12.16254000 Z" fill="black"/>
        <path d="M83.21040000,19.78254000 L83.21040000,20.32964000 L82.82355000,20.71649000 L82.27645000,20.71649000 L81.88960000,20.32964000 L81.88960000,19.78254000 L82.27645000,19.39569000 L82.82355000,19.39569000 L83.21040000,19.78254000 Z" fill="black"/>
        <path d="M80.67040000,19.78254000 L80.67040000,20.32964000 L80.28355000,20.71649000 L79.73645000,20.71649000 L79.34960000,20.32964000 L79.34960000,19.78254000 L79.73645000,19.39569000 L80.28355000,19.39569000 L80.67040000,19.78254000 Z" fill="black"/>
        <path d="M80.67040000,27.40254000 L80.67040000,27.94964000 L80.28355000,28.33649000 L79.73645000,28.33649000 L79.34960000,27.94964000 L79.34960000,27.40254000 L79.73645000,27.01569000 L80.28355000,27.01569000 L80.67040000,27.40254000 Z" fill="black"/>
        <path d="M83.21040000,27.40254000 L83.21040000,27.94964000 L82.82355000,28.33649000 L82.27645000,28.33649000 L81.88960000,27.94964000 L81.88960000,27.40254000 L82.27645000,27.01569000 L82.82355000,27.01569000 L83.21040000,27.40254000 Z" fill="black"/>
        <path d="M83.21040000,35.02254000 L83.21040000,35.56964000 L82.82355000,35.95649000 L82.27645000,35.95649000 L81.88960000,35.56964000 L81.88960000,35.02254000 L82.27645000,34.63569000 L82.82355000,34.63569000 L83.21040000,35.02254000 Z" fill="black"/>
        <path d="M80.67040000,35.02254000 L80.67040000,35.56964000 L80.28355000,35.95649000 L79.73645000,35.95649000 L79.34960000,35.56964000 L79.34960000,35.02254000 L79.73645000,34.63569000 L80.28355000,34.63569000 L80.67040000,35.02254000 Z" fill="black"/>
        <path d="M75.59040000,40.10254000 L75.59040000,40.64964000 L75.20355000,41.03649000 L74.65645000,41.03649000 L74.26960000,40.64964000 L74.26960000,40.10254000 L74.65645000,39.71569000 L75.20355000,39.71569000 L75.59040000,40.10254000 Z" fill="black"/>
        <path d="M75.59040000,42.64254000 L75.59040000,43.18964000 L75.20355000,43.57649000 L74.65645000,43.57649000 L74.26960000,43.18964000 L74.26960000,42.64254000 L74.65645000,42.25569000 L75.20355000,42.25569000 L75.59040000,42.64254000 Z" fill="black"/>
        <path d="M67.97040000,42.64254000 L67.97040000,43.18964000 L67.58355000,43.57649000 L67.03645000,43.57649000 L66.64960000,43.18964000 L66.64960000,42.64254000 L67.03645000,42.25569000 L67.58355000,42.25569000 L67.97040000,42.64254000 Z" fill="black"/>
        <path d="M67.97040000,40.10254000 L67.97040000,40.64964000 L67.58355000,41.03649000 L67.03645000,41.03649000 L66.64960000,40.64964000 L66.64960000,40.10254000 L67.03645000,39.71569000 L67.58355000,39.71569000 L67.97040000,40.10254000 Z" fill="black"/>
        <path d="M60.35040000,40.10254000 L60.35040000,40.64964000 L59.96355000,41.03649000 L59.41645000,41.03649000 L59.02960000,40.64964000 L59.02960000,40.10254000 L59.41645000,39.71569000 L59.96355000,39.71569000 L60.35040000,40.10254000 Z" fill="black"/>
        <path d="M60.35040000,42.64254000 L60.35040000,43.18964000 L59.96355000,43.57649000 L59.41645000,43.57649000 L59.02960000,43.18964000 L59.02960000,42.64254000 L59.41645000,42.25569000 L59.96355000,42.25569000 L60.35040000,42.64254000 Z" fill="black"/>
        <path d="M12.09040000,35.02254000 L12.09040000,35.56964000 L11.70355000,35.95649000 L11.15645000,35.95649000 L10.76960000,35.56964000 L10.76960000,35.02254000 L11.15645000,34.63569000 L11.70355000,34.63569000 L12.09040000,35.02254000 Z" fill="black"/>
        <path d="M9.55040000,35.02254000 L9.55040000,35.56964000 L9.16355000,35.95649000 L8.61645000,35.95649000 L8.22960000,35.56964000 L8.22960000,35.02254000 L8.61645000,34.63569000 L9.16355000,34.63569000 L9.55040000,35.02254000 Z" fill="black"/>
        <path d="M9.55040000,27.40254000 L9.55040000,27.94964000 L9.16355000,28.33649000 L8.61645000,28.33649000 L8.22960000,27.94964000 L8.22960000,27.40254000 L8.61645000,27.01569000 L9.16355000,27.01569000 L9.55040000,27.40254000 Z" fill="black"/>
        <path d="M12.09040000,27.40254000 L12.09040000,27.94964000 L11.70355000,28.33649000 L11.15645000,28.33649000 L10.76960000,27.94964000 L10.76960000,27.40254000 L11.15645000,27.01569000 L11.70355000,27.01569000 L12.09040000,27.40254000 Z" fill="black"/>
        <path d="M12.09040000,19.78254000 L12.09040000,20.32964000 L11.70355000,20.71649000 L11.15645000,20.71649000 L10.76960000,20.32964000 L10.76960000,19.78254000 L11.15645000,19.39569000 L11.70355000,19.39569000 L12.09040000,19.78254000 Z" fill="black"/>
        <path d="M9.55040000,19.78254000 L9.55040000,20.32964000 L9.16355000,20.71649000 L8.61645000,20.71649000 L8.22960000,20.32964000 L8.22960000,19.78254000 L8.61645000,19.39569000 L9.16355000,19.39569000 L9.55040000,19.78254000 Z" fill="black"/>
        <path d="M9.55040000,12.16254000 L9.55040000,12.70964000 L9.16355000,13.09649000 L8.61645000,13.09649000 L8.22960000,12.70964000 L8.22960000,12.16254000 L8.61645000,11.77569000 L9.16355000,11.77569000 L9.55040000,12.16254000 Z" fill="black"/>
        <path d="M12.09040000,12.16254000 L12.09040000,12.70964000 L11.70355000,13.09649000 L11.15645000,13.09649000 L10.76960000,12.70964000 L10.76960000,12.16254000 L11.15645000,11.77569000 L11.70355000,11.77569000 L12.09040000,12.16254000 Z" fill="black"/>
        <path d="M17.17040000,7.08254000 L17.17040000,7.62964000 L16.78355000,8.01649000 L16.23645000,8.01649000 L15.84960000,7.62964000 L15.84960000,7.08254000 L16.23645000,6.69569000 L16.78355000,6.69569000 L17.17040000,7.08254000 Z" fill="black"/>
        <path d="M17.17040000,4.54254000 L17.17040000,5.08964000 L16.78355000,5.47649000 L16.23645000,5.47649000 L15.84960000,5.08964000 L15.84960000,4.54254000 L16.23645000,4.15569000 L16.78355000,4.15569000 L17.17040000,4.54254000 Z" fill="black"/>
        <path d="M24.79040000,4.54254000 L24.79040000,5.08964000 L24.40355000,5.47649000 L23.85645000,5.47649000 L23.46960000,5.08964000 L23.46960000,4.54254000 L23.85645000,4.15569000 L24.40355000,4.15569000 L24.79040000,4.54254000 Z" fill="black"/>
        <path d="M24.79040000,7.08254000 L24.79040000,7.62964000 L24.40355000,8.01649000 L23.85645000,8.01649000 L23.46960000,7.62964000 L23.46960000,7.08254000 L23.85645000,6.69569000 L24.40355000,6.69569000 L24.79040000,7.08254000 Z" fill="black"/>
        <path d="M32.41040000,7.08254000 L32.41040000,7.62964000 L32.02355000,8.01649000 L31.47645000,8.01649000 L31.08960000,7.62964000 L31.08960000,7.08254000 L31.47645000,6.69569000 L32.02355000,6.69569000 L32.41040000,7.08254000 Z" fill="black"/>
        <path d="M32.41040000,4.54254000 L32.41040000,5.08964000 L32.02355000,5.47649000 L31.47645000,5.47649000 L31.08960000,5.08964000 L31.08960000,4.54254000 L31.47645000,4.15569000 L32.02355000,4.15569000 L32.41040000,4.54254000 Z" fill="black"/>
        <path d="M40.03040000,4.54254000 L40.03040000,5.08964000 L39.64355000,5.47649000 L39.09645000,5.47649000 L38.70960000,5.08964000 L38.70960000,4.54254000 L39.09645000,4.15569000 L39.64355000,4.15569000 L40.03040000,4.54254000 Z" fill="black"/>
        <path d="M40.03040000,7.08254000 L40.03040000,7.62964000 L39.64355000,8.01649000 L39.09645000,8.01649000 L38.70960000,7.62964000 L38.70960000,7.08254000 L39.09645000,6.69569000 L39.64355000,6.69569000 L40.03040000,7.08254000 Z" fill="black"/>
        <path d="M3.30200000,19.74046000 L3.30200000,20.37172000 L2.85563000,20.81809000 L2.22437000,20.81809000 L1.77800000,20.37172000 L1.77800000,19.74046000 L2.22437000,19.29409000 L2.85563000,19.29409000 L3.30200000,19.74046000 Z" fill="black"/>
        <path d="M3.30200000,22.28046000 L3.30200000,22.91172000 L2.85563000,23.35809000 L2.22437000,23.35809000 L1.77800000,22.91172000 L1.77800000,22.28046000 L2.22437000,21.83409000 L2.85563000,21.83409000 L3.30200000,22.28046000 Z" fill="black"/>
        <path d="M3.30200000,24.82046000 L3.30200000,25.45172000 L2.85563000,25.89809000 L2.22437000,25.89809000 L1.77800000,25.45172000 L1.77800000,24.82046000 L2.22437000,24.37409000 L2.85563000,24.37409000 L3.30200000,24.82046000 Z" fill="black"/>
        <path d="M3.30200000,27.36046000 L3.30200000,27.99172000 L2.85563000,28.43809000 L2.22437000,28.43809000 L1.77800000,27.99172000 L1.77800000,27.36046000 L2.22437000,26.91409000 L2.85563000,26.91409000 L3.30200000,27.36046000 Z" fill="black"/>
        <path d="M3.30200000,29.90046000 L3.30200000,30.53172000 L2.85563000,30.97809000 L2.22437000,30.97809000 L1.77800000,30.53172000 L1.77800000,29.90046000 L2.22437000,29.45409000 L2.85563000,29.45409000 L3.30200000,29.90046000 Z" fill="black"/>
        <path d="M89.66200000,29.90046000 L89.66200000,30.53172000 L89.21563000,30.97809000 L88.58437000,30.97809000 L88.13800000,30.53172000 L88.13800000,29.90046000 L88.58437000,29.45409000 L89.21563000,29.45409000 L89.66200000,29.90046000 Z" fill="black"/>
        <path d="M89.66200000,27.36046000 L89.66200000,27.99172000 L89.21563000,28.43809000 L88.58437000,28.43809000 L88.13800000,27.99172000 L88.13800000,27.36046000 L88.58437000,26.91409000 L89.21563000,26.91409000 L89.66200000,27.36046000 Z" fill="black"/>
        <path d="M89.66200000,24.82046000 L89.66200000,25.45172000 L89.21563000,25.89809000 L88.58437000,25.89809000 L88.13800000,25.45172000 L88.13800000,24.82046000 L88.58437000,24.37409000 L89.21563000,24.37409000 L89.66200000,24.82046000 Z" fill="black"/>
        <path d="M89.66200000,22.28046000 L89.66200000,22.91172000 L89.21563000,23.35809000 L88.58437000,23.35809000 L88.13800000,22.91172000 L88.13800000,22.28046000 L88.58437000,21.83409000 L89.21563000,21.83409000 L89.66200000,22.28046000 Z" fill="black"/>
        <path d="M89.66200000,19.74046000 L89.66200000,20.37172000 L89.21563000,20.81809000 L88.58437000,20.81809000 L88.13800000,20.37172000 L88.13800000,19.74046000 L88.58437000,19.29409000 L89.21563000,19.29409000 L89.66200000,19.74046000 Z" fill="black"/>
        <path d="M90.16128410,19.44936590 L89.87391590,19.73673410 L89.21935590,19.08217410 L89.50672410,18.79480590 Z" fill="black"/>
        <path d="M88.29327590,18.79480590 L88.58064410,19.08217410 L87.92608410,19.73673410 L87.63871590,19.44936590 Z" fill="black"/>
        <path d="M87.30749590,19.48060590 L87.59486410,19.76797410 L87.34188410,20.02095410 L87.05451590,19.73358590 Z" fill="black"/>
        <path d="M87.05451590,19.73358590 L87.34188410,20.02095410 L86.07086410,21.29197410 L85.78349590,21.00460590 Z" fill="black"/>
        <path d="M60.48509590,21.00460590 L60.77246410,21.29197410 L60.51948410,21.54495410 L60.23211590,21.25758590 Z" fill="black"/>
        <path d="M60.23211590,21.25758590 L60.51948410,21.54495410 L47.59748410,34.46695410 L47.31011590,34.17958590 Z" fill="black"/>
        <path d="M46.42543590,34.13640590 L46.71280410,34.42377410 L46.11768410,35.01889410 L45.83031590,34.73152590 Z" fill="black"/>
        <path d="M45.83031590,35.86065410 L46.11768410,35.57328590 L46.71280410,36.16840590 L46.42543590,36.45577410 Z" fill="black"/>
        <path d="M47.55456410,36.45577410 L47.26719590,36.16840590 L47.86231590,35.57328590 L48.14968410,35.86065410 Z" fill="black"/>
        <path d="M48.14968410,35.13599410 L47.86231590,34.84862590 L60.84273590,21.86820590 L61.13010410,22.15557410 Z" fill="black"/>
        <path d="M86.42850410,22.15557410 L86.14113590,21.86820590 L87.63871590,20.37062590 L87.92608410,20.65799410 Z" fill="black"/>
        <path d="M87.63871590,20.66281410 L87.92608410,20.37544590 L88.58064410,21.03000590 L88.29327590,21.31737410 Z" fill="black"/>
        <path d="M89.50672410,21.31737410 L89.21935590,21.03000590 L89.87391590,20.37544590 L90.16128410,20.66281410 Z" fill="black"/>
        <path d="M81.56913590,18.66780590 L81.85650410,18.95517410 L81.10110410,19.71057410 L80.81373590,19.42320590 Z" fill="black"/>
        <path d="M80.88231590,20.33328590 L81.16968410,20.62065410 L80.57456410,21.21577410 L80.28719590,20.92840590 Z" fill="black"/>
        <path d="M79.73280410,20.92840590 L79.44543590,21.21577410 L78.85031590,20.62065410 L79.13768410,20.33328590 Z" fill="black"/>
        <path d="M79.13768410,19.77889410 L78.85031590,19.49152590 L79.44543590,18.89640590 L79.73280410,19.18377410 Z" fill="black"/>
        <path d="M80.40666410,19.18377410 L80.11929590,18.89640590 L80.95851590,18.05718590 L81.24588410,18.34455410 Z" fill="black"/>
        <path d="M81.24588410,13.31535410 L80.95851590,13.02798590 L81.39031590,12.59618590 L81.67768410,12.88355410 Z" fill="black"/>
        <path d="M81.67768410,12.15889410 L81.39031590,11.87152590 L81.98543590,11.27640590 L82.27280410,11.56377410 Z" fill="black"/>
        <path d="M82.82719590,11.56377410 L83.11456410,11.27640590 L83.70968410,11.87152590 L83.42231590,12.15889410 Z" fill="black"/>
        <path d="M83.42231590,12.71328590 L83.70968410,13.00065410 L83.11456410,13.59577410 L82.82719590,13.30840590 Z" fill="black"/>
        <path d="M81.82211590,18.41482590 L82.10948410,18.70219410 L81.85650410,18.95517410 L81.56913590,18.66780590 Z" fill="black"/>
        <path d="M81.27128410,11.82936590 L80.98391590,12.11673410 L80.32935590,11.46217410 L80.61672410,11.17480590 Z" fill="black"/>
        <path d="M80.61672410,13.69737410 L80.32935590,13.41000590 L80.98391590,12.75544590 L81.27128410,13.04281410 Z" fill="black"/>
        <path d="M81.67768410,19.77889410 L81.39031590,19.49152590 L81.98543590,18.89640590 L82.27280410,19.18377410 Z" fill="black"/>
        <path d="M82.82719590,19.18377410 L83.11456410,18.89640590 L83.70968410,19.49152590 L83.42231590,19.77889410 Z" fill="black"/>
        <path d="M83.42231590,20.33328590 L83.70968410,20.62065410 L83.11456410,21.21577410 L82.82719590,20.92840590 Z" fill="black"/>
        <path d="M82.27280410,20.92840590 L81.98543590,21.21577410 L81.39031590,20.62065410 L81.67768410,20.33328590 Z" fill="black"/>
        <path d="M88.29327590,21.33480590 L88.58064410,21.62217410 L87.92608410,22.27673410 L87.63871590,21.98936590 Z" fill="black"/>
        <path d="M87.63871590,23.20281410 L87.92608410,22.91544590 L88.58064410,23.57000590 L88.29327590,23.85737410 Z" fill="black"/>
        <path d="M89.50672410,23.85737410 L89.21935590,23.57000590 L89.87391590,22.91544590 L90.16128410,23.20281410 Z" fill="black"/>
        <path d="M90.16128410,21.98936590 L89.87391590,22.27673410 L89.21935590,21.62217410 L89.50672410,21.33480590 Z" fill="black"/>
        <path d="M88.29327590,23.87480590 L88.58064410,24.16217410 L87.92608410,24.81673410 L87.63871590,24.52936590 Z" fill="black"/>
        <path d="M64.75229590,24.66220590 L65.03966410,24.94957410 L64.78668410,25.20255410 L64.49931590,24.91518590 Z" fill="black"/>
        <path d="M64.49931590,24.91518590 L64.78668410,25.20255410 L45.83726410,44.15197410 L45.54989590,43.86460590 Z" fill="black"/>
        <path d="M12.17429590,43.86460590 L12.46166410,44.15197410 L12.20868410,44.40495410 L11.92131590,44.11758590 Z" fill="black"/>
        <path d="M11.92131590,44.11758590 L12.20868410,44.40495410 L9.47208410,47.14155410 L9.18471590,46.85418590 Z" fill="black"/>
        <path d="M8.32543590,46.83640590 L8.61280410,47.12377410 L8.01768410,47.71889410 L7.73031590,47.43152590 Z" fill="black"/>
        <path d="M7.73031590,48.56065410 L8.01768410,48.27328590 L8.61280410,48.86840590 L8.32543590,49.15577410 Z" fill="black"/>
        <path d="M9.45456410,49.15577410 L9.16719590,48.86840590 L9.76231590,48.27328590 L10.04968410,48.56065410 Z" fill="black"/>
        <path d="M10.04968410,47.78519410 L9.76231590,47.49782590 L12.53193590,44.72820590 L12.81930410,45.01557410 Z" fill="black"/>
        <path d="M46.19490410,45.01557410 L45.90753590,44.72820590 L65.10993590,25.52580590 L65.39730410,25.81317410 Z" fill="black"/>
        <path d="M87.70907590,25.81317410 L87.99644410,25.52580590 L88.58064410,26.11000590 L88.29327590,26.39737410 Z" fill="black"/>
        <path d="M89.50672410,26.39737410 L89.21935590,26.11000590 L89.87391590,25.45544590 L90.16128410,25.74281410 Z" fill="black"/>
        <path d="M90.16128410,24.52936590 L89.87391590,24.81673410 L89.21935590,24.16217410 L89.50672410,23.87480590 Z" fill="black"/>
        <path d="M23.13068410,21.90259410 L22.84331590,21.61522590 L38.78791590,5.67062590 L39.07528410,5.95799410 Z" fill="black"/>
        <path d="M39.93456410,5.97577410 L39.64719590,5.68840590 L40.24231590,5.09328590 L40.52968410,5.38065410 Z" fill="black"/>
        <path d="M40.52968410,4.25152590 L40.24231590,4.53889410 L39.64719590,3.94377410 L39.93456410,3.65640590 Z" fill="black"/>
        <path d="M38.80543590,3.65640590 L39.09280410,3.94377410 L38.49768410,4.53889410 L38.21031590,4.25152590 Z" fill="black"/>
        <path d="M38.21031590,5.02698590 L38.49768410,5.31435410 L22.52006410,21.29197410 L22.23269590,21.00460590 Z" fill="black"/>
        <path d="M3.33509412,21.00460768 L3.62246588,21.29197232 L3.21937588,21.69507232 L2.93200412,21.40770768 Z" fill="black"/>
        <path d="M1.93327590,21.33480590 L2.22064410,21.62217410 L1.56608410,22.27673410 L1.27871590,21.98936590 Z" fill="black"/>
        <path d="M1.27871590,23.20281410 L1.56608410,22.91544590 L2.22064410,23.57000590 L1.93327590,23.85737410 Z" fill="black"/>
        <path d="M3.14672410,23.85737410 L2.85935590,23.57000590 L3.51391590,22.91544590 L3.80128410,23.20281410 Z" fill="black"/>
        <path d="M22.87770410,22.15557410 L22.59033590,21.86820590 L22.84331590,21.61522590 L23.13068410,21.90259410 Z" fill="black"/>
        <path d="M1.93327590,23.87480590 L2.22064410,24.16217410 L1.56608410,24.81673410 L1.27871590,24.52936590 Z" fill="black"/>
        <path d="M1.27871590,25.74281410 L1.56608410,25.45544590 L2.22064410,26.11000590 L1.93327590,26.39737410 Z" fill="black"/>
        <path d="M3.14672410,26.39737410 L2.85935590,26.11000590 L3.51391590,25.45544590 L3.80128410,25.74281410 Z" fill="black"/>
        <path d="M3.80128410,24.52936590 L3.51391590,24.81673410 L2.85935590,24.16217410 L3.14672410,23.87480590 Z" fill="black"/>
        <path d="M3.18863410,21.41897410 L2.90126590,21.13160590 L3.61551590,20.41735590 L3.90288410,20.70472410 Z" fill="black"/>
        <path d="M3.90288410,19.40745590 L3.61551590,19.69482410 L2.90126590,18.98057410 L3.18863410,18.69320590 Z" fill="black"/>
        <path d="M1.89136590,18.69320590 L2.17873410,18.98057410 L1.46448410,19.69482410 L1.17711590,19.40745590 Z" fill="black"/>
        <path d="M9.45456410,21.21577410 L9.16719590,20.92840590 L9.76231590,20.33328590 L10.04968410,20.62065410 Z" fill="black"/>
        <path d="M10.04968410,19.49152590 L9.76231590,19.77889410 L9.16719590,19.18377410 L9.45456410,18.89640590 Z" fill="black"/>
        <path d="M8.32543590,18.89640590 L8.61280410,19.18377410 L8.01768410,19.77889410 L7.73031590,19.49152590 Z" fill="black"/>
        <path d="M7.73031590,20.62065410 L8.01768410,20.33328590 L8.61280410,20.92840590 L8.32543590,21.21577410 Z" fill="black"/>
        <path d="M10.27031590,20.62065410 L10.55768410,20.33328590 L11.15280410,20.92840590 L10.86543590,21.21577410 Z" fill="black"/>
        <path d="M11.99456410,21.21577410 L11.70719590,20.92840590 L12.30231590,20.33328590 L12.58968410,20.62065410 Z" fill="black"/>
        <path d="M12.58968410,19.49152590 L12.30231590,19.77889410 L11.70719590,19.18377410 L11.99456410,18.89640590 Z" fill="black"/>
        <path d="M10.86543590,18.89640590 L11.15280410,19.18377410 L10.55768410,19.77889410 L10.27031590,19.49152590 Z" fill="black"/>
        <path d="M1.17711590,20.70472410 L1.46448410,20.41735590 L2.17873410,21.13160590 L1.89136590,21.41897410 Z" fill="black"/>
        <path d="M11.99456410,13.59577410 L11.70719590,13.30840590 L12.30231590,12.71328590 L12.58968410,13.00065410 Z" fill="black"/>
        <path d="M12.58968410,11.87152590 L12.30231590,12.15889410 L11.70719590,11.56377410 L11.99456410,11.27640590 Z" fill="black"/>
        <path d="M10.86543590,11.27640590 L11.15280410,11.56377410 L10.55768410,12.15889410 L10.27031590,11.87152590 Z" fill="black"/>
        <path d="M10.27031590,13.00065410 L10.55768410,12.71328590 L11.15280410,13.30840590 L10.86543590,13.59577410 Z" fill="black"/>
        <path d="M8.32543590,11.27640590 L8.61280410,11.56377410 L8.01768410,12.15889410 L7.73031590,11.87152590 Z" fill="black"/>
        <path d="M7.73031590,13.00065410 L8.01768410,12.71328590 L8.61280410,13.30840590 L8.32543590,13.59577410 Z" fill="black"/>
        <path d="M9.45456410,13.59577410 L9.16719590,13.30840590 L9.76231590,12.71328590 L10.04968410,13.00065410 Z" fill="black"/>
        <path d="M10.04968410,11.87152590 L9.76231590,12.15889410 L9.16719590,11.56377410 L9.45456410,11.27640590 Z" fill="black"/>
        <path d="M17.11672410,8.61737410 L16.82935590,8.33000590 L17.48391590,7.67544590 L17.77128410,7.96281410 Z" fill="black"/>
        <path d="M17.77128410,6.74936590 L17.48391590,7.03673410 L16.82935590,6.38217410 L17.11672410,6.09480590 Z" fill="black"/>
        <path d="M15.53608410,7.03673410 L15.24871590,6.74936590 L15.90327590,6.09480590 L16.19064410,6.38217410 Z" fill="black"/>
        <path d="M15.24871590,7.96281410 L15.53608410,7.67544590 L16.19064410,8.33000590 L15.90327590,8.61737410 Z" fill="black"/>
        <path d="M23.56543590,6.19640590 L23.85280410,6.48377410 L23.25768410,7.07889410 L22.97031590,6.79152590 Z" fill="black"/>
        <path d="M22.97031590,7.92065410 L23.25768410,7.63328590 L23.85280410,8.22840590 L23.56543590,8.51577410 Z" fill="black"/>
        <path d="M24.69456410,8.51577410 L24.40719590,8.22840590 L25.00231590,7.63328590 L25.28968410,7.92065410 Z" fill="black"/>
        <path d="M25.28968410,6.79152590 L25.00231590,7.07889410 L24.40719590,6.48377410 L24.69456410,6.19640590 Z" fill="black"/>
        <path d="M24.69456410,5.97577410 L24.40719590,5.68840590 L25.00231590,5.09328590 L25.28968410,5.38065410 Z" fill="black"/>
        <path d="M25.28968410,4.25152590 L25.00231590,4.53889410 L24.40719590,3.94377410 L24.69456410,3.65640590 Z" fill="black"/>
        <path d="M23.56543590,3.65640590 L23.85280410,3.94377410 L23.25768410,4.53889410 L22.97031590,4.25152590 Z" fill="black"/>
        <path d="M22.97031590,5.38065410 L23.25768410,5.09328590 L23.85280410,5.68840590 L23.56543590,5.97577410 Z" fill="black"/>
        <path d="M16.23280410,5.68840590 L15.94543590,5.97577410 L15.35031590,5.38065410 L15.63768410,5.09328590 Z" fill="black"/>
        <path d="M15.63768410,4.53889410 L15.35031590,4.25152590 L15.94543590,3.65640590 L16.23280410,3.94377410 Z" fill="black"/>
        <path d="M16.78719590,3.94377410 L17.07456410,3.65640590 L17.66968410,4.25152590 L17.38231590,4.53889410 Z" fill="black"/>
        <path d="M17.38231590,5.09328590 L17.66968410,5.38065410 L17.07456410,5.97577410 L16.78719590,5.68840590 Z" fill="black"/>
        <path d="M31.47280410,5.68840590 L31.18543590,5.97577410 L30.59031590,5.38065410 L30.87768410,5.09328590 Z" fill="black"/>
        <path d="M30.87768410,4.53889410 L30.59031590,4.25152590 L31.18543590,3.65640590 L31.47280410,3.94377410 Z" fill="black"/>
        <path d="M32.02719590,3.94377410 L32.31456410,3.65640590 L32.90968410,4.25152590 L32.62231590,4.53889410 Z" fill="black"/>
        <path d="M32.62231590,5.09328590 L32.90968410,5.38065410 L32.31456410,5.97577410 L32.02719590,5.68840590 Z" fill="black"/>
        <path d="M31.18543590,6.19640590 L31.47280410,6.48377410 L30.87768410,7.07889410 L30.59031590,6.79152590 Z" fill="black"/>
        <path d="M30.59031590,7.92065410 L30.87768410,7.63328590 L31.47280410,8.22840590 L31.18543590,8.51577410 Z" fill="black"/>
        <path d="M32.31456410,8.51577410 L32.02719590,8.22840590 L32.62231590,7.63328590 L32.90968410,7.92065410 Z" fill="black"/>
        <path d="M32.90968410,6.79152590 L32.62231590,7.07889410 L32.02719590,6.48377410 L32.31456410,6.19640590 Z" fill="black"/>
        <path d="M52.67672410,8.61737410 L52.38935590,8.33000590 L53.04391590,7.67544590 L53.33128410,7.96281410 Z" fill="black"/>
        <path d="M53.33128410,6.74936590 L53.04391590,7.03673410 L52.38935590,6.38217410 L52.67672410,6.09480590 Z" fill="black"/>
        <path d="M51.09608410,7.03673410 L50.80871590,6.74936590 L51.46327590,6.09480590 L51.75064410,6.38217410 Z" fill="black"/>
        <path d="M50.80871590,7.96281410 L51.09608410,7.67544590 L51.75064410,8.33000590 L51.46327590,8.61737410 Z" fill="black"/>
        <path d="M59.12543590,6.19640590 L59.41280410,6.48377410 L58.81768410,7.07889410 L58.53031590,6.79152590 Z" fill="black"/>
        <path d="M58.53031590,7.92065410 L58.81768410,7.63328590 L59.41280410,8.22840590 L59.12543590,8.51577410 Z" fill="black"/>
        <path d="M60.25456410,8.51577410 L59.96719590,8.22840590 L60.56231590,7.63328590 L60.84968410,7.92065410 Z" fill="black"/>
        <path d="M60.84968410,6.79152590 L60.56231590,7.07889410 L59.96719590,6.48377410 L60.25456410,6.19640590 Z" fill="black"/>
        <path d="M60.25456410,5.97577410 L59.96719590,5.68840590 L60.56231590,5.09328590 L60.84968410,5.38065410 Z" fill="black"/>
        <path d="M60.84968410,4.25152590 L60.56231590,4.53889410 L59.96719590,3.94377410 L60.25456410,3.65640590 Z" fill="black"/>
        <path d="M59.12543590,3.65640590 L59.41280410,3.94377410 L58.81768410,4.53889410 L58.53031590,4.25152590 Z" fill="black"/>
        <path d="M58.53031590,5.38065410 L58.81768410,5.09328590 L59.41280410,5.68840590 L59.12543590,5.97577410 Z" fill="black"/>
        <path d="M51.79280410,5.68840590 L51.50543590,5.97577410 L50.91031590,5.38065410 L51.19768410,5.09328590 Z" fill="black"/>
        <path d="M51.19768410,4.53889410 L50.91031590,4.25152590 L51.50543590,3.65640590 L51.79280410,3.94377410 Z" fill="black"/>
        <path d="M52.34719590,3.94377410 L52.63456410,3.65640590 L53.22968410,4.25152590 L52.94231590,4.53889410 Z" fill="black"/>
        <path d="M52.94231590,5.09328590 L53.22968410,5.38065410 L52.63456410,5.97577410 L52.34719590,5.68840590 Z" fill="black"/>
        <path d="M74.65280410,5.68840590 L74.36543590,5.97577410 L73.77031590,5.38065410 L74.05768410,5.09328590 Z" fill="black"/>
        <path d="M74.05768410,4.53889410 L73.77031590,4.25152590 L74.36543590,3.65640590 L74.65280410,3.94377410 Z" fill="black"/>
        <path d="M75.20719590,3.94377410 L75.49456410,3.65640590 L76.08968410,4.25152590 L75.80231590,4.53889410 Z" fill="black"/>
        <path d="M75.80231590,5.09328590 L76.08968410,5.38065410 L75.49456410,5.97577410 L75.20719590,5.68840590 Z" fill="black"/>
        <path d="M74.36543590,6.19640590 L74.65280410,6.48377410 L74.05768410,7.07889410 L73.77031590,6.79152590 Z" fill="black"/>
        <path d="M73.77031590,7.92065410 L74.05768410,7.63328590 L74.65280410,8.22840590 L74.36543590,8.51577410 Z" fill="black"/>
        <path d="M75.49456410,8.51577410 L75.20719590,8.22840590 L75.80231590,7.63328590 L76.08968410,7.92065410 Z" fill="black"/>
        <path d="M76.08968410,6.79152590 L75.80231590,7.07889410 L75.20719590,6.48377410 L75.49456410,6.19640590 Z" fill="black"/>
        <path d="M66.74543590,6.19640590 L67.03280410,6.48377410 L66.43768410,7.07889410 L66.15031590,6.79152590 Z" fill="black"/>
        <path d="M66.15031590,7.92065410 L66.43768410,7.63328590 L67.03280410,8.22840590 L66.74543590,8.51577410 Z" fill="black"/>
        <path d="M67.87456410,8.51577410 L67.58719590,8.22840590 L68.18231590,7.63328590 L68.46968410,7.92065410 Z" fill="black"/>
        <path d="M68.46968410,6.79152590 L68.18231590,7.07889410 L67.58719590,6.48377410 L67.87456410,6.19640590 Z" fill="black"/>
        <path d="M67.03280410,5.68840590 L66.74543590,5.97577410 L66.15031590,5.38065410 L66.43768410,5.09328590 Z" fill="black"/>
        <path d="M66.43768410,4.53889410 L66.15031590,4.25152590 L66.74543590,3.65640590 L67.03280410,3.94377410 Z" fill="black"/>
        <path d="M67.58719590,3.94377410 L67.87456410,3.65640590 L68.46968410,4.25152590 L68.18231590,4.53889410 Z" fill="black"/>
        <path d="M68.18231590,5.09328590 L68.46968410,5.38065410 L67.87456410,5.97577410 L67.58719590,5.68840590 Z" fill="black"/>
        <path d="M79.03608410,12.11673410 L78.74871590,11.82936590 L79.40327590,11.17480590 L79.69064410,11.46217410 Z" fill="black"/>
        <path d="M48.14968410,11.87152590 L47.86231590,12.15889410 L47.26719590,11.56377410 L47.55456410,11.27640590 Z" fill="black"/>
        <path d="M46.42543590,11.27640590 L46.71280410,11.56377410 L46.11768410,12.15889410 L45.83031590,11.87152590 Z" fill="black"/>
        <path d="M45.83031590,13.00065410 L46.11768410,12.71328590 L46.71280410,13.30840590 L46.42543590,13.59577410 Z" fill="black"/>
        <path d="M47.55456410,13.59577410 L47.26719590,13.30840590 L47.86231590,12.71328590 L48.14968410,13.00065410 Z" fill="black"/>
        <path d="M78.74871590,13.04281410 L79.03608410,12.75544590 L79.69064410,13.41000590 L79.40327590,13.69737410 Z" fill="black"/>
        <path d="M45.71128410,11.82936590 L45.42391590,12.11673410 L44.76935590,11.46217410 L45.05672410,11.17480590 Z" fill="black"/>
        <path d="M45.42391590,12.75544590 L45.71128410,13.04281410 L45.05672410,13.69737410 L44.76935590,13.41000590 Z" fill="black"/>
        <path d="M43.47608410,12.11673410 L43.18871590,11.82936590 L43.84327590,11.17480590 L44.13064410,11.46217410 Z" fill="black"/>
        <path d="M43.18871590,13.04281410 L43.47608410,12.75544590 L44.13064410,13.41000590 L43.84327590,13.69737410 Z" fill="black"/>
        <path d="M38.21031590,7.92065410 L38.49768410,7.63328590 L39.09280410,8.22840590 L38.80543590,8.51577410 Z" fill="black"/>
        <path d="M39.93456410,8.51577410 L39.64719590,8.22840590 L40.24231590,7.63328590 L40.52968410,7.92065410 Z" fill="black"/>
        <path d="M40.52968410,6.79152590 L40.24231590,7.07889410 L39.64719590,6.48377410 L39.93456410,6.19640590 Z" fill="black"/>
        <path d="M38.80543590,6.19640590 L39.09280410,6.48377410 L38.49768410,7.07889410 L38.21031590,6.79152590 Z" fill="black"/>
        <path d="M48.14968410,19.49152590 L47.86231590,19.77889410 L47.26719590,19.18377410 L47.55456410,18.89640590 Z" fill="black"/>
        <path d="M46.42543590,18.89640590 L46.71280410,19.18377410 L46.11768410,19.77889410 L45.83031590,19.49152590 Z" fill="black"/>
        <path d="M45.83031590,20.62065410 L46.11768410,20.33328590 L46.71280410,20.92840590 L46.42543590,21.21577410 Z" fill="black"/>
        <path d="M47.55456410,21.21577410 L47.26719590,20.92840590 L47.86231590,20.33328590 L48.14968410,20.62065410 Z" fill="black"/>
        <path d="M45.01456410,21.21577410 L44.72719590,20.92840590 L45.32231590,20.33328590 L45.60968410,20.62065410 Z" fill="black"/>
        <path d="M45.60968410,19.49152590 L45.32231590,19.77889410 L44.72719590,19.18377410 L45.01456410,18.89640590 Z" fill="black"/>
        <path d="M43.88543590,18.89640590 L44.17280410,19.18377410 L43.57768410,19.77889410 L43.29031590,19.49152590 Z" fill="black"/>
        <path d="M43.29031590,20.62065410 L43.57768410,20.33328590 L44.17280410,20.92840590 L43.88543590,21.21577410 Z" fill="black"/>
        <path d="M12.30231590,27.95328590 L12.58968410,28.24065410 L11.99456410,28.83577410 L11.70719590,28.54840590 Z" fill="black"/>
        <path d="M11.15280410,28.54840590 L10.86543590,28.83577410 L10.27031590,28.24065410 L10.55768410,27.95328590 Z" fill="black"/>
        <path d="M10.55768410,27.39889410 L10.27031590,27.11152590 L10.86543590,26.51640590 L11.15280410,26.80377410 Z" fill="black"/>
        <path d="M11.70719590,26.80377410 L11.99456410,26.51640590 L12.58968410,27.11152590 L12.30231590,27.39889410 Z" fill="black"/>
        <path d="M43.29031590,28.24065410 L43.57768410,27.95328590 L44.17280410,28.54840590 L43.88543590,28.83577410 Z" fill="black"/>
        <path d="M45.01456410,28.83577410 L44.72719590,28.54840590 L45.32231590,27.95328590 L45.60968410,28.24065410 Z" fill="black"/>
        <path d="M45.60968410,27.11152590 L45.32231590,27.39889410 L44.72719590,26.80377410 L45.01456410,26.51640590 Z" fill="black"/>
        <path d="M43.88543590,26.51640590 L44.17280410,26.80377410 L43.57768410,27.39889410 L43.29031590,27.11152590 Z" fill="black"/>
        <path d="M9.76231590,27.95328590 L10.04968410,28.24065410 L9.45456410,28.83577410 L9.16719590,28.54840590 Z" fill="black"/>
        <path d="M8.61280410,28.54840590 L8.32543590,28.83577410 L7.73031590,28.24065410 L8.01768410,27.95328590 Z" fill="black"/>
        <path d="M8.01768410,27.39889410 L7.73031590,27.11152590 L8.32543590,26.51640590 L8.61280410,26.80377410 Z" fill="black"/>
        <path d="M9.16719590,26.80377410 L9.45456410,26.51640590 L10.04968410,27.11152590 L9.76231590,27.39889410 Z" fill="black"/>
        <path d="M1.93327590,26.41480590 L2.22064410,26.70217410 L1.56608410,27.35673410 L1.27871590,27.06936590 Z" fill="black"/>
        <path d="M1.27871590,28.28281410 L1.56608410,27.99544590 L2.22064410,28.65000590 L1.93327590,28.93737410 Z" fill="black"/>
        <path d="M3.14672410,28.93737410 L2.85935590,28.65000590 L3.51391590,27.99544590 L3.80128410,28.28281410 Z" fill="black"/>
        <path d="M3.80128410,27.06936590 L3.51391590,27.35673410 L2.85935590,26.70217410 L3.14672410,26.41480590 Z" fill="black"/>
        <path d="M45.01456410,36.45577410 L44.72719590,36.16840590 L45.32231590,35.57328590 L45.60968410,35.86065410 Z" fill="black"/>
        <path d="M45.60968410,34.73152590 L45.32231590,35.01889410 L44.72719590,34.42377410 L45.01456410,34.13640590 Z" fill="black"/>
        <path d="M43.88543590,34.13640590 L44.17280410,34.42377410 L43.57768410,35.01889410 L43.29031590,34.73152590 Z" fill="black"/>
        <path d="M43.29031590,35.86065410 L43.57768410,35.57328590 L44.17280410,36.16840590 L43.88543590,36.45577410 Z" fill="black"/>
        <path d="M11.74935590,34.32217410 L12.03672410,34.03480590 L12.69128410,34.68936590 L12.40391590,34.97673410 Z" fill="black"/>
        <path d="M10.82327590,34.03480590 L11.11064410,34.32217410 L10.45608410,34.97673410 L10.16871590,34.68936590 Z" fill="black"/>
        <path d="M12.40391590,35.61544590 L12.69128410,35.90281410 L12.03672410,36.55737410 L11.74935590,36.27000590 Z" fill="black"/>
        <path d="M10.16871590,35.90281410 L10.45608410,35.61544590 L11.11064410,36.27000590 L10.82327590,36.55737410 Z" fill="black"/>
        <path d="M8.32543590,34.13640590 L8.61280410,34.42377410 L8.01768410,35.01889410 L7.73031590,34.73152590 Z" fill="black"/>
        <path d="M7.73031590,35.86065410 L8.01768410,35.57328590 L8.61280410,36.16840590 L8.32543590,36.45577410 Z" fill="black"/>
        <path d="M9.45456410,36.45577410 L9.16719590,36.16840590 L9.76231590,35.57328590 L10.04968410,35.86065410 Z" fill="black"/>
        <path d="M10.04968410,34.73152590 L9.76231590,35.01889410 L9.16719590,34.42377410 L9.45456410,34.13640590 Z" fill="black"/>
        <path d="M40.63128410,39.76936590 L40.34391590,40.05673410 L39.68935590,39.40217410 L39.97672410,39.11480590 Z" fill="black"/>
        <path d="M38.76327590,39.11480590 L39.05064410,39.40217410 L38.39608410,40.05673410 L38.10871590,39.76936590 Z" fill="black"/>
        <path d="M38.10871590,40.98281410 L38.39608410,40.69544590 L39.05064410,41.35000590 L38.76327590,41.63737410 Z" fill="black"/>
        <path d="M39.97672410,41.63737410 L39.68935590,41.35000590 L40.34391590,40.69544590 L40.63128410,40.98281410 Z" fill="black"/>
        <path d="M17.07456410,41.53577410 L16.78719590,41.24840590 L17.38231590,40.65328590 L17.66968410,40.94065410 Z" fill="black"/>
        <path d="M17.66968410,39.81152590 L17.38231590,40.09889410 L16.78719590,39.50377410 L17.07456410,39.21640590 Z" fill="black"/>
        <path d="M15.94543590,39.21640590 L16.23280410,39.50377410 L15.63768410,40.09889410 L15.35031590,39.81152590 Z" fill="black"/>
        <path d="M15.35031590,40.94065410 L15.63768410,40.65328590 L16.23280410,41.24840590 L15.94543590,41.53577410 Z" fill="black"/>
        <path d="M15.94543590,41.75640590 L16.23280410,42.04377410 L15.63768410,42.63889410 L15.35031590,42.35152590 Z" fill="black"/>
        <path d="M15.35031590,43.48065410 L15.63768410,43.19328590 L16.23280410,43.78840590 L15.94543590,44.07577410 Z" fill="black"/>
        <path d="M17.07456410,44.07577410 L16.78719590,43.78840590 L17.38231590,43.19328590 L17.66968410,43.48065410 Z" fill="black"/>
        <path d="M17.66968410,42.35152590 L17.38231590,42.63889410 L16.78719590,42.04377410 L17.07456410,41.75640590 Z" fill="black"/>
        <path d="M12.69128410,47.38936590 L12.40391590,47.67673410 L11.74935590,47.02217410 L12.03672410,46.73480590 Z" fill="black"/>
        <path d="M12.40391590,48.31544590 L12.69128410,48.60281410 L12.03672410,49.25737410 L11.74935590,48.97000590 Z" fill="black"/>
        <path d="M10.82327590,46.73480590 L11.11064410,47.02217410 L10.45608410,47.67673410 L10.16871590,47.38936590 Z" fill="black"/>
        <path d="M10.16871590,48.60281410 L10.45608410,48.31544590 L11.11064410,48.97000590 L10.82327590,49.25737410 Z" fill="black"/>
        <path d="M75.49456410,44.07577410 L75.20719590,43.78840590 L75.80231590,43.19328590 L76.08968410,43.48065410 Z" fill="black"/>
        <path d="M76.08968410,42.35152590 L75.80231590,42.63889410 L75.20719590,42.04377410 L75.49456410,41.75640590 Z" fill="black"/>
        <path d="M74.36543590,41.75640590 L74.65280410,42.04377410 L74.05768410,42.63889410 L73.77031590,42.35152590 Z" fill="black"/>
        <path d="M73.77031590,43.48065410 L74.05768410,43.19328590 L74.65280410,43.78840590 L74.36543590,44.07577410 Z" fill="black"/>
        <path d="M75.24935590,39.40217410 L75.53672410,39.11480590 L76.19128410,39.76936590 L75.90391590,40.05673410 Z" fill="black"/>
        <path d="M73.95608410,40.05673410 L73.66871590,39.76936590 L74.32327590,39.11480590 L74.61064410,39.40217410 Z" fill="black"/>
        <path d="M75.90391590,40.69544590 L76.19128410,40.98281410 L75.53672410,41.63737410 L75.24935590,41.35000590 Z" fill="black"/>
        <path d="M60.25456410,41.53577410 L59.96719590,41.24840590 L60.56231590,40.65328590 L60.84968410,40.94065410 Z" fill="black"/>
        <path d="M60.84968410,39.81152590 L60.56231590,40.09889410 L59.96719590,39.50377410 L60.25456410,39.21640590 Z" fill="black"/>
        <path d="M59.12543590,39.21640590 L59.41280410,39.50377410 L58.81768410,40.09889410 L58.53031590,39.81152590 Z" fill="black"/>
        <path d="M58.53031590,40.94065410 L58.81768410,40.65328590 L59.41280410,41.24840590 L59.12543590,41.53577410 Z" fill="black"/>
        <path d="M59.12543590,41.75640590 L59.41280410,42.04377410 L58.81768410,42.63889410 L58.53031590,42.35152590 Z" fill="black"/>
        <path d="M58.53031590,43.48065410 L58.81768410,43.19328590 L59.41280410,43.78840590 L59.12543590,44.07577410 Z" fill="black"/>
        <path d="M60.25456410,44.07577410 L59.96719590,43.78840590 L60.56231590,43.19328590 L60.84968410,43.48065410 Z" fill="black"/>
        <path d="M60.84968410,42.35152590 L60.56231590,42.63889410 L59.96719590,42.04377410 L60.25456410,41.75640590 Z" fill="black"/>
        <path d="M53.22968410,42.70519410 L52.94231590,42.41782590 L63.73833590,31.62180590 L64.02570410,31.90917410 Z" fill="black"/>
        <path d="M88.10490568,31.90917252 L87.81753432,31.62180748 L88.27142432,31.16790748 L88.55879568,31.45527252 Z" fill="black"/>
        <path d="M89.50672410,31.47737410 L89.21935590,31.19000590 L89.87391590,30.53544590 L90.16128410,30.82281410 Z" fill="black"/>
        <path d="M90.16128410,29.60936590 L89.87391590,29.89673410 L89.21935590,29.24217410 L89.50672410,28.95480590 Z" fill="black"/>
        <path d="M88.29327590,28.95480590 L88.58064410,29.24217410 L87.92608410,29.89673410 L87.63871590,29.60936590 Z" fill="black"/>
        <path d="M63.38069590,30.75820590 L63.66806410,31.04557410 L63.41508410,31.29855410 L63.12771590,31.01118590 Z" fill="black"/>
        <path d="M63.12771590,31.01118590 L63.41508410,31.29855410 L52.65208410,42.06155410 L52.36471590,41.77418590 Z" fill="black"/>
        <path d="M51.50543590,41.75640590 L51.79280410,42.04377410 L51.19768410,42.63889410 L50.91031590,42.35152590 Z" fill="black"/>
        <path d="M50.91031590,43.48065410 L51.19768410,43.19328590 L51.79280410,43.78840590 L51.50543590,44.07577410 Z" fill="black"/>
        <path d="M52.63456410,44.07577410 L52.34719590,43.78840590 L52.94231590,43.19328590 L53.22968410,43.48065410 Z" fill="black"/>
        <path d="M51.79280410,41.24840590 L51.50543590,41.53577410 L50.91031590,40.94065410 L51.19768410,40.65328590 Z" fill="black"/>
        <path d="M51.19768410,40.09889410 L50.91031590,39.81152590 L51.50543590,39.21640590 L51.79280410,39.50377410 Z" fill="black"/>
        <path d="M52.34719590,39.50377410 L52.63456410,39.21640590 L53.22968410,39.81152590 L52.94231590,40.09889410 Z" fill="black"/>
        <path d="M52.94231590,40.65328590 L53.22968410,40.94065410 L52.63456410,41.53577410 L52.34719590,41.24840590 Z" fill="black"/>
        <path d="M3.18863410,31.57897410 L2.90126590,31.29160590 L3.61551590,30.57735590 L3.90288410,30.86472410 Z" fill="black"/>
        <path d="M3.90288410,29.56745590 L3.61551590,29.85482410 L2.90126590,29.14057410 L3.18863410,28.85320590 Z" fill="black"/>
        <path d="M1.89136590,28.85320590 L2.17873410,29.14057410 L1.46448410,29.85482410 L1.17711590,29.56745590 Z" fill="black"/>
        <path d="M1.17711590,30.86472410 L1.46448410,30.57735590 L2.17873410,31.29160590 L1.89136590,31.57897410 Z" fill="black"/>
        <path d="M46.42543590,26.51640590 L46.71280410,26.80377410 L46.11768410,27.39889410 L45.83031590,27.11152590 Z" fill="black"/>
        <path d="M45.83031590,28.24065410 L46.11768410,27.95328590 L46.71280410,28.54840590 L46.42543590,28.83577410 Z" fill="black"/>
        <path d="M47.55456410,28.83577410 L47.26719590,28.54840590 L47.86231590,27.95328590 L48.14968410,28.24065410 Z" fill="black"/>
        <path d="M48.14968410,27.11152590 L47.86231590,27.39889410 L47.26719590,26.80377410 L47.55456410,26.51640590 Z" fill="black"/>
        <path d="M22.97031590,40.94065410 L23.25768410,40.65328590 L23.85280410,41.24840590 L23.56543590,41.53577410 Z" fill="black"/>
        <path d="M24.69456410,41.53577410 L24.40719590,41.24840590 L25.00231590,40.65328590 L25.28968410,40.94065410 Z" fill="black"/>
        <path d="M25.28968410,39.81152590 L25.00231590,40.09889410 L24.40719590,39.50377410 L24.69456410,39.21640590 Z" fill="black"/>
        <path d="M23.56543590,39.21640590 L23.85280410,39.50377410 L23.25768410,40.09889410 L22.97031590,39.81152590 Z" fill="black"/>
        <path d="M23.56543590,41.75640590 L23.85280410,42.04377410 L23.25768410,42.63889410 L22.97031590,42.35152590 Z" fill="black"/>
        <path d="M22.97031590,43.48065410 L23.25768410,43.19328590 L23.85280410,43.78840590 L23.56543590,44.07577410 Z" fill="black"/>
        <path d="M24.69456410,44.07577410 L24.40719590,43.78840590 L25.00231590,43.19328590 L25.28968410,43.48065410 Z" fill="black"/>
        <path d="M25.28968410,42.35152590 L25.00231590,42.63889410 L24.40719590,42.04377410 L24.69456410,41.75640590 Z" fill="black"/>
        <path d="M32.31456410,44.07577410 L32.02719590,43.78840590 L32.62231590,43.19328590 L32.90968410,43.48065410 Z" fill="black"/>
        <path d="M32.90968410,42.35152590 L32.62231590,42.63889410 L32.02719590,42.04377410 L32.31456410,41.75640590 Z" fill="black"/>
        <path d="M31.18543590,41.75640590 L31.47280410,42.04377410 L30.87768410,42.63889410 L30.59031590,42.35152590 Z" fill="black"/>
        <path d="M30.59031590,43.48065410 L30.87768410,43.19328590 L31.47280410,43.78840590 L31.18543590,44.07577410 Z" fill="black"/>
        <path d="M38.80543590,41.75640590 L39.09280410,42.04377410 L38.49768410,42.63889410 L38.21031590,42.35152590 Z" fill="black"/>
        <path d="M38.21031590,43.48065410 L38.49768410,43.19328590 L39.09280410,43.78840590 L38.80543590,44.07577410 Z" fill="black"/>
        <path d="M39.93456410,44.07577410 L39.64719590,43.78840590 L40.24231590,43.19328590 L40.52968410,43.48065410 Z" fill="black"/>
        <path d="M40.52968410,42.35152590 L40.24231590,42.63889410 L39.64719590,42.04377410 L39.93456410,41.75640590 Z" fill="black"/>
        <path d="M32.31456410,41.53577410 L32.02719590,41.24840590 L32.62231590,40.65328590 L32.90968410,40.94065410 Z" fill="black"/>
        <path d="M32.90968410,39.81152590 L32.62231590,40.09889410 L32.02719590,39.50377410 L32.31456410,39.21640590 Z" fill="black"/>
        <path d="M31.18543590,39.21640590 L31.47280410,39.50377410 L30.87768410,40.09889410 L30.59031590,39.81152590 Z" fill="black"/>
        <path d="M30.59031590,40.94065410 L30.87768410,40.65328590 L31.47280410,41.24840590 L31.18543590,41.53577410 Z" fill="black"/>
        <path d="M89.50672410,28.93737410 L89.21935590,28.65000590 L89.87391590,27.99544590 L90.16128410,28.28281410 Z" fill="black"/>
        <path d="M90.16128410,27.06936590 L89.87391590,27.35673410 L89.21935590,26.70217410 L89.50672410,26.41480590 Z" fill="black"/>
        <path d="M88.29327590,26.41480590 L88.58064410,26.70217410 L87.92608410,27.35673410 L87.63871590,27.06936590 Z" fill="black"/>
        <path d="M87.63871590,28.28281410 L87.92608410,27.99544590 L88.58064410,28.65000590 L88.29327590,28.93737410 Z" fill="black"/>
        <path d="M78.85031590,28.24065410 L79.13768410,27.95328590 L79.73280410,28.54840590 L79.44543590,28.83577410 Z" fill="black"/>
        <path d="M80.57456410,28.83577410 L80.28719590,28.54840590 L80.88231590,27.95328590 L81.16968410,28.24065410 Z" fill="black"/>
        <path d="M81.16968410,27.11152590 L80.88231590,27.39889410 L80.28719590,26.80377410 L80.57456410,26.51640590 Z" fill="black"/>
        <path d="M79.44543590,26.51640590 L79.73280410,26.80377410 L79.13768410,27.39889410 L78.85031590,27.11152590 Z" fill="black"/>
        <path d="M81.98543590,26.51640590 L82.27280410,26.80377410 L81.67768410,27.39889410 L81.39031590,27.11152590 Z" fill="black"/>
        <path d="M81.39031590,28.24065410 L81.67768410,27.95328590 L82.27280410,28.54840590 L81.98543590,28.83577410 Z" fill="black"/>
        <path d="M83.11456410,28.83577410 L82.82719590,28.54840590 L83.42231590,27.95328590 L83.70968410,28.24065410 Z" fill="black"/>
        <path d="M83.70968410,27.11152590 L83.42231590,27.39889410 L82.82719590,26.80377410 L83.11456410,26.51640590 Z" fill="black"/>
        <path d="M82.82719590,34.42377410 L83.11456410,34.13640590 L83.70968410,34.73152590 L83.42231590,35.01889410 Z" fill="black"/>
        <path d="M83.42231590,35.57328590 L83.70968410,35.86065410 L83.11456410,36.45577410 L82.82719590,36.16840590 Z" fill="black"/>
        <path d="M82.27280410,36.16840590 L81.98543590,36.45577410 L81.39031590,35.86065410 L81.67768410,35.57328590 Z" fill="black"/>
        <path d="M81.67768410,35.01889410 L81.39031590,34.73152590 L81.98543590,34.13640590 L82.27280410,34.42377410 Z" fill="black"/>
        <path d="M80.57456410,36.45577410 L80.28719590,36.16840590 L80.88231590,35.57328590 L81.16968410,35.86065410 Z" fill="black"/>
        <path d="M81.16968410,34.73152590 L80.88231590,35.01889410 L80.28719590,34.42377410 L80.57456410,34.13640590 Z" fill="black"/>
        <path d="M79.44543590,34.13640590 L79.73280410,34.42377410 L79.13768410,35.01889410 L78.85031590,34.73152590 Z" fill="black"/>
        <path d="M78.85031590,35.86065410 L79.13768410,35.57328590 L79.73280410,36.16840590 L79.44543590,36.45577410 Z" fill="black"/>
        <path d="M73.66871590,40.98281410 L73.95608410,40.69544590 L74.61064410,41.35000590 L74.32327590,41.63737410 Z" fill="black"/>
        <path d="M67.87456410,41.53577410 L67.58719590,41.24840590 L68.18231590,40.65328590 L68.46968410,40.94065410 Z" fill="black"/>
        <path d="M68.46968410,39.81152590 L68.18231590,40.09889410 L67.58719590,39.50377410 L67.87456410,39.21640590 Z" fill="black"/>
        <path d="M66.74543590,39.21640590 L67.03280410,39.50377410 L66.43768410,40.09889410 L66.15031590,39.81152590 Z" fill="black"/>
        <path d="M66.15031590,40.94065410 L66.43768410,40.65328590 L67.03280410,41.24840590 L66.74543590,41.53577410 Z" fill="black"/>
        <path d="M66.74543590,41.75640590 L67.03280410,42.04377410 L66.43768410,42.63889410 L66.15031590,42.35152590 Z" fill="black"/>
        <path d="M66.15031590,43.48065410 L66.43768410,43.19328590 L67.03280410,43.78840590 L66.74543590,44.07577410 Z" fill="black"/>
        <path d="M67.87456410,44.07577410 L67.58719590,43.78840590 L68.18231590,43.19328590 L68.46968410,43.48065410 Z" fill="black"/>
        <path d="M68.46968410,42.35152590 L68.18231590,42.63889410 L67.58719590,42.04377410 L67.87456410,41.75640590 Z" fill="black"/>
        <path d="M3.60371846,21.52620846 L3.71148154,21.63397154 L2.64468154,22.70077154 L2.53691846,22.59300846 Z" fill="black"/>
        <path d="M22.60908154,21.63397154 L22.50131846,21.52620846 L39.26531846,4.76220846 L39.37308154,4.86997154 Z" fill="black"/>
        <path d="M86.15988154,21.63397154 L86.05211846,21.52620846 L87.57611846,20.00220846 L87.68388154,20.10997154 Z" fill="black"/>
        <path d="M81.58788154,13.40437154 L81.48011846,13.29660846 L82.39451846,12.38220846 L82.50228154,12.48997154 Z" fill="black"/>
        <path d="M81.48011846,18.32580846 L81.58788154,18.43357154 L80.36868154,19.65277154 L80.26091846,19.54500846 Z" fill="black"/>
        <path d="M65.02091846,25.18380846 L65.12868154,25.29157154 L45.92628154,44.49397154 L45.81851846,44.38620846 Z" fill="black"/>
        <path d="M12.44291846,44.38620846 L12.55068154,44.49397154 L9.04548154,47.99917154 L8.93771846,47.89140846 Z" fill="black"/>
        <path d="M47.14548154,35.34997154 L47.03771846,35.24220846 L60.75371846,21.52620846 L60.86148154,21.63397154 Z" fill="black"/>
        <path d="M87.83628154,31.38757154 L87.72851846,31.27980846 L88.84611846,30.16220846 L88.95388154,30.26997154 Z" fill="black"/>
        <path d="M63.64931846,31.27980846 L63.75708154,31.38757154 L52.17468154,42.96997154 L52.06691846,42.86220846 Z" fill="black"/>
    </mask>
</defs>

<!-- 마스크를 적용한 배경 사각형 - 원본 도형이 없던 부분만 보임 -->
<rect x="0.0" y="0.0" width="91.61805" height="54.34609" 
      fill="#288f28" mask="url(#inverted-mask)"/>
</svg>