%TF.GenerationSoftware,KiCad,Pcbnew,9.0.6*%
%TF.CreationDate,2025-12-15T20:52:37+09:00*%
%TF.ProjectId,__ __,1ca920c6-4c2e-46b6-9963-61645f706362,rev?*%
%TF.SameCoordinates,Original*%
%TF.FileFunction,Copper,L2,Bot*%
%TF.FilePolarity,Positive*%
%FSLAX46Y46*%
G04 Gerber Fmt 4.6, Leading zero omitted, Abs format (unit mm)*
G04 Created by KiCad (PCBNEW 9.0.6) date 2025-12-15 20:52:37*
%MOMM*%
%LPD*%
G01*
G04 APERTURE LIST*
%TA.AperFunction,NonConductor*%
%ADD10C,0.000000*%
%TD*%
%TA.AperFunction,Conductor*%
%ADD11C,0.000000*%
%TD*%
%TA.AperFunction,Conductor*%
%ADD12C,0.406400*%
%TD*%
%TA.AperFunction,Conductor*%
%ADD13C,0.152400*%
%TD*%
G04 APERTURE END LIST*
D10*
%TA.AperFunction,NonConductor*%
G36*
X9880600Y6953750D02*
G01*
X9880600Y6406650D01*
X9493750Y6019800D01*
X8946650Y6019800D01*
X8559800Y6406650D01*
X8559800Y6953750D01*
X8946650Y7340600D01*
X9493750Y7340600D01*
X9880600Y6953750D01*
G37*
%TD.AperFunction*%
%TA.AperFunction,NonConductor*%
G36*
X12420600Y6953750D02*
G01*
X12420600Y6406650D01*
X12033750Y6019800D01*
X11486650Y6019800D01*
X11099800Y6406650D01*
X11099800Y6953750D01*
X11486650Y7340600D01*
X12033750Y7340600D01*
X12420600Y6953750D01*
G37*
%TD.AperFunction*%
%TA.AperFunction,NonConductor*%
G36*
X17500600Y12033750D02*
G01*
X17500600Y11486650D01*
X17113750Y11099800D01*
X16566650Y11099800D01*
X16179800Y11486650D01*
X16179800Y12033750D01*
X16566650Y12420600D01*
X17113750Y12420600D01*
X17500600Y12033750D01*
G37*
%TD.AperFunction*%
%TA.AperFunction,NonConductor*%
G36*
X17500600Y14573750D02*
G01*
X17500600Y14026650D01*
X17113750Y13639800D01*
X16566650Y13639800D01*
X16179800Y14026650D01*
X16179800Y14573750D01*
X16566650Y14960600D01*
X17113750Y14960600D01*
X17500600Y14573750D01*
G37*
%TD.AperFunction*%
%TA.AperFunction,NonConductor*%
G36*
X25120600Y14573750D02*
G01*
X25120600Y14026650D01*
X24733750Y13639800D01*
X24186650Y13639800D01*
X23799800Y14026650D01*
X23799800Y14573750D01*
X24186650Y14960600D01*
X24733750Y14960600D01*
X25120600Y14573750D01*
G37*
%TD.AperFunction*%
%TA.AperFunction,NonConductor*%
G36*
X25120600Y12033750D02*
G01*
X25120600Y11486650D01*
X24733750Y11099800D01*
X24186650Y11099800D01*
X23799800Y11486650D01*
X23799800Y12033750D01*
X24186650Y12420600D01*
X24733750Y12420600D01*
X25120600Y12033750D01*
G37*
%TD.AperFunction*%
%TA.AperFunction,NonConductor*%
G36*
X32740600Y12033750D02*
G01*
X32740600Y11486650D01*
X32353750Y11099800D01*
X31806650Y11099800D01*
X31419800Y11486650D01*
X31419800Y12033750D01*
X31806650Y12420600D01*
X32353750Y12420600D01*
X32740600Y12033750D01*
G37*
%TD.AperFunction*%
%TA.AperFunction,NonConductor*%
G36*
X32740600Y14573750D02*
G01*
X32740600Y14026650D01*
X32353750Y13639800D01*
X31806650Y13639800D01*
X31419800Y14026650D01*
X31419800Y14573750D01*
X31806650Y14960600D01*
X32353750Y14960600D01*
X32740600Y14573750D01*
G37*
%TD.AperFunction*%
%TA.AperFunction,NonConductor*%
G36*
X40360600Y14573750D02*
G01*
X40360600Y14026650D01*
X39973750Y13639800D01*
X39426650Y13639800D01*
X39039800Y14026650D01*
X39039800Y14573750D01*
X39426650Y14960600D01*
X39973750Y14960600D01*
X40360600Y14573750D01*
G37*
%TD.AperFunction*%
%TA.AperFunction,NonConductor*%
G36*
X40360600Y12033750D02*
G01*
X40360600Y11486650D01*
X39973750Y11099800D01*
X39426650Y11099800D01*
X39039800Y11486650D01*
X39039800Y12033750D01*
X39426650Y12420600D01*
X39973750Y12420600D01*
X40360600Y12033750D01*
G37*
%TD.AperFunction*%
%TA.AperFunction,NonConductor*%
G36*
X53060600Y12033750D02*
G01*
X53060600Y11486650D01*
X52673750Y11099800D01*
X52126650Y11099800D01*
X51739800Y11486650D01*
X51739800Y12033750D01*
X52126650Y12420600D01*
X52673750Y12420600D01*
X53060600Y12033750D01*
G37*
%TD.AperFunction*%
%TA.AperFunction,NonConductor*%
G36*
X53060600Y14573750D02*
G01*
X53060600Y14026650D01*
X52673750Y13639800D01*
X52126650Y13639800D01*
X51739800Y14026650D01*
X51739800Y14573750D01*
X52126650Y14960600D01*
X52673750Y14960600D01*
X53060600Y14573750D01*
G37*
%TD.AperFunction*%
%TA.AperFunction,NonConductor*%
G36*
X47980600Y19653750D02*
G01*
X47980600Y19106650D01*
X47593750Y18719800D01*
X47046650Y18719800D01*
X46659800Y19106650D01*
X46659800Y19653750D01*
X47046650Y20040600D01*
X47593750Y20040600D01*
X47980600Y19653750D01*
G37*
%TD.AperFunction*%
%TA.AperFunction,NonConductor*%
G36*
X45440600Y19653750D02*
G01*
X45440600Y19106650D01*
X45053750Y18719800D01*
X44506650Y18719800D01*
X44119800Y19106650D01*
X44119800Y19653750D01*
X44506650Y20040600D01*
X45053750Y20040600D01*
X45440600Y19653750D01*
G37*
%TD.AperFunction*%
%TA.AperFunction,NonConductor*%
G36*
X45440600Y27273750D02*
G01*
X45440600Y26726650D01*
X45053750Y26339800D01*
X44506650Y26339800D01*
X44119800Y26726650D01*
X44119800Y27273750D01*
X44506650Y27660600D01*
X45053750Y27660600D01*
X45440600Y27273750D01*
G37*
%TD.AperFunction*%
%TA.AperFunction,NonConductor*%
G36*
X47980600Y27273750D02*
G01*
X47980600Y26726650D01*
X47593750Y26339800D01*
X47046650Y26339800D01*
X46659800Y26726650D01*
X46659800Y27273750D01*
X47046650Y27660600D01*
X47593750Y27660600D01*
X47980600Y27273750D01*
G37*
%TD.AperFunction*%
%TA.AperFunction,NonConductor*%
G36*
X47980600Y34893750D02*
G01*
X47980600Y34346650D01*
X47593750Y33959800D01*
X47046650Y33959800D01*
X46659800Y34346650D01*
X46659800Y34893750D01*
X47046650Y35280600D01*
X47593750Y35280600D01*
X47980600Y34893750D01*
G37*
%TD.AperFunction*%
%TA.AperFunction,NonConductor*%
G36*
X45440600Y34893750D02*
G01*
X45440600Y34346650D01*
X45053750Y33959800D01*
X44506650Y33959800D01*
X44119800Y34346650D01*
X44119800Y34893750D01*
X44506650Y35280600D01*
X45053750Y35280600D01*
X45440600Y34893750D01*
G37*
%TD.AperFunction*%
%TA.AperFunction,NonConductor*%
G36*
X45440600Y42513750D02*
G01*
X45440600Y41966650D01*
X45053750Y41579800D01*
X44506650Y41579800D01*
X44119800Y41966650D01*
X44119800Y42513750D01*
X44506650Y42900600D01*
X45053750Y42900600D01*
X45440600Y42513750D01*
G37*
%TD.AperFunction*%
%TA.AperFunction,NonConductor*%
G36*
X47980600Y42513750D02*
G01*
X47980600Y41966650D01*
X47593750Y41579800D01*
X47046650Y41579800D01*
X46659800Y41966650D01*
X46659800Y42513750D01*
X47046650Y42900600D01*
X47593750Y42900600D01*
X47980600Y42513750D01*
G37*
%TD.AperFunction*%
%TA.AperFunction,NonConductor*%
G36*
X53060600Y47593750D02*
G01*
X53060600Y47046650D01*
X52673750Y46659800D01*
X52126650Y46659800D01*
X51739800Y47046650D01*
X51739800Y47593750D01*
X52126650Y47980600D01*
X52673750Y47980600D01*
X53060600Y47593750D01*
G37*
%TD.AperFunction*%
%TA.AperFunction,NonConductor*%
G36*
X53060600Y50133750D02*
G01*
X53060600Y49586650D01*
X52673750Y49199800D01*
X52126650Y49199800D01*
X51739800Y49586650D01*
X51739800Y50133750D01*
X52126650Y50520600D01*
X52673750Y50520600D01*
X53060600Y50133750D01*
G37*
%TD.AperFunction*%
%TA.AperFunction,NonConductor*%
G36*
X60680600Y50133750D02*
G01*
X60680600Y49586650D01*
X60293750Y49199800D01*
X59746650Y49199800D01*
X59359800Y49586650D01*
X59359800Y50133750D01*
X59746650Y50520600D01*
X60293750Y50520600D01*
X60680600Y50133750D01*
G37*
%TD.AperFunction*%
%TA.AperFunction,NonConductor*%
G36*
X60680600Y47593750D02*
G01*
X60680600Y47046650D01*
X60293750Y46659800D01*
X59746650Y46659800D01*
X59359800Y47046650D01*
X59359800Y47593750D01*
X59746650Y47980600D01*
X60293750Y47980600D01*
X60680600Y47593750D01*
G37*
%TD.AperFunction*%
%TA.AperFunction,NonConductor*%
G36*
X68300600Y47593750D02*
G01*
X68300600Y47046650D01*
X67913750Y46659800D01*
X67366650Y46659800D01*
X66979800Y47046650D01*
X66979800Y47593750D01*
X67366650Y47980600D01*
X67913750Y47980600D01*
X68300600Y47593750D01*
G37*
%TD.AperFunction*%
%TA.AperFunction,NonConductor*%
G36*
X68300600Y50133750D02*
G01*
X68300600Y49586650D01*
X67913750Y49199800D01*
X67366650Y49199800D01*
X66979800Y49586650D01*
X66979800Y50133750D01*
X67366650Y50520600D01*
X67913750Y50520600D01*
X68300600Y50133750D01*
G37*
%TD.AperFunction*%
%TA.AperFunction,NonConductor*%
G36*
X75920600Y50133750D02*
G01*
X75920600Y49586650D01*
X75533750Y49199800D01*
X74986650Y49199800D01*
X74599800Y49586650D01*
X74599800Y50133750D01*
X74986650Y50520600D01*
X75533750Y50520600D01*
X75920600Y50133750D01*
G37*
%TD.AperFunction*%
%TA.AperFunction,NonConductor*%
G36*
X75920600Y47593750D02*
G01*
X75920600Y47046650D01*
X75533750Y46659800D01*
X74986650Y46659800D01*
X74599800Y47046650D01*
X74599800Y47593750D01*
X74986650Y47980600D01*
X75533750Y47980600D01*
X75920600Y47593750D01*
G37*
%TD.AperFunction*%
%TA.AperFunction,NonConductor*%
G36*
X81000600Y42513750D02*
G01*
X81000600Y41966650D01*
X80613750Y41579800D01*
X80066650Y41579800D01*
X79679800Y41966650D01*
X79679800Y42513750D01*
X80066650Y42900600D01*
X80613750Y42900600D01*
X81000600Y42513750D01*
G37*
%TD.AperFunction*%
%TA.AperFunction,NonConductor*%
G36*
X83540600Y42513750D02*
G01*
X83540600Y41966650D01*
X83153750Y41579800D01*
X82606650Y41579800D01*
X82219800Y41966650D01*
X82219800Y42513750D01*
X82606650Y42900600D01*
X83153750Y42900600D01*
X83540600Y42513750D01*
G37*
%TD.AperFunction*%
%TA.AperFunction,NonConductor*%
G36*
X83540600Y34893750D02*
G01*
X83540600Y34346650D01*
X83153750Y33959800D01*
X82606650Y33959800D01*
X82219800Y34346650D01*
X82219800Y34893750D01*
X82606650Y35280600D01*
X83153750Y35280600D01*
X83540600Y34893750D01*
G37*
%TD.AperFunction*%
%TA.AperFunction,NonConductor*%
G36*
X81000600Y34893750D02*
G01*
X81000600Y34346650D01*
X80613750Y33959800D01*
X80066650Y33959800D01*
X79679800Y34346650D01*
X79679800Y34893750D01*
X80066650Y35280600D01*
X80613750Y35280600D01*
X81000600Y34893750D01*
G37*
%TD.AperFunction*%
%TA.AperFunction,NonConductor*%
G36*
X81000600Y27273750D02*
G01*
X81000600Y26726650D01*
X80613750Y26339800D01*
X80066650Y26339800D01*
X79679800Y26726650D01*
X79679800Y27273750D01*
X80066650Y27660600D01*
X80613750Y27660600D01*
X81000600Y27273750D01*
G37*
%TD.AperFunction*%
%TA.AperFunction,NonConductor*%
G36*
X83540600Y27273750D02*
G01*
X83540600Y26726650D01*
X83153750Y26339800D01*
X82606650Y26339800D01*
X82219800Y26726650D01*
X82219800Y27273750D01*
X82606650Y27660600D01*
X83153750Y27660600D01*
X83540600Y27273750D01*
G37*
%TD.AperFunction*%
%TA.AperFunction,NonConductor*%
G36*
X83540600Y19653750D02*
G01*
X83540600Y19106650D01*
X83153750Y18719800D01*
X82606650Y18719800D01*
X82219800Y19106650D01*
X82219800Y19653750D01*
X82606650Y20040600D01*
X83153750Y20040600D01*
X83540600Y19653750D01*
G37*
%TD.AperFunction*%
%TA.AperFunction,NonConductor*%
G36*
X81000600Y19653750D02*
G01*
X81000600Y19106650D01*
X80613750Y18719800D01*
X80066650Y18719800D01*
X79679800Y19106650D01*
X79679800Y19653750D01*
X80066650Y20040600D01*
X80613750Y20040600D01*
X81000600Y19653750D01*
G37*
%TD.AperFunction*%
%TA.AperFunction,NonConductor*%
G36*
X75920600Y14573750D02*
G01*
X75920600Y14026650D01*
X75533750Y13639800D01*
X74986650Y13639800D01*
X74599800Y14026650D01*
X74599800Y14573750D01*
X74986650Y14960600D01*
X75533750Y14960600D01*
X75920600Y14573750D01*
G37*
%TD.AperFunction*%
%TA.AperFunction,NonConductor*%
G36*
X75920600Y12033750D02*
G01*
X75920600Y11486650D01*
X75533750Y11099800D01*
X74986650Y11099800D01*
X74599800Y11486650D01*
X74599800Y12033750D01*
X74986650Y12420600D01*
X75533750Y12420600D01*
X75920600Y12033750D01*
G37*
%TD.AperFunction*%
%TA.AperFunction,NonConductor*%
G36*
X68300600Y12033750D02*
G01*
X68300600Y11486650D01*
X67913750Y11099800D01*
X67366650Y11099800D01*
X66979800Y11486650D01*
X66979800Y12033750D01*
X67366650Y12420600D01*
X67913750Y12420600D01*
X68300600Y12033750D01*
G37*
%TD.AperFunction*%
%TA.AperFunction,NonConductor*%
G36*
X68300600Y14573750D02*
G01*
X68300600Y14026650D01*
X67913750Y13639800D01*
X67366650Y13639800D01*
X66979800Y14026650D01*
X66979800Y14573750D01*
X67366650Y14960600D01*
X67913750Y14960600D01*
X68300600Y14573750D01*
G37*
%TD.AperFunction*%
%TA.AperFunction,NonConductor*%
G36*
X60680600Y14573750D02*
G01*
X60680600Y14026650D01*
X60293750Y13639800D01*
X59746650Y13639800D01*
X59359800Y14026650D01*
X59359800Y14573750D01*
X59746650Y14960600D01*
X60293750Y14960600D01*
X60680600Y14573750D01*
G37*
%TD.AperFunction*%
%TA.AperFunction,NonConductor*%
G36*
X60680600Y12033750D02*
G01*
X60680600Y11486650D01*
X60293750Y11099800D01*
X59746650Y11099800D01*
X59359800Y11486650D01*
X59359800Y12033750D01*
X59746650Y12420600D01*
X60293750Y12420600D01*
X60680600Y12033750D01*
G37*
%TD.AperFunction*%
%TA.AperFunction,NonConductor*%
G36*
X12420600Y19653750D02*
G01*
X12420600Y19106650D01*
X12033750Y18719800D01*
X11486650Y18719800D01*
X11099800Y19106650D01*
X11099800Y19653750D01*
X11486650Y20040600D01*
X12033750Y20040600D01*
X12420600Y19653750D01*
G37*
%TD.AperFunction*%
%TA.AperFunction,NonConductor*%
G36*
X9880600Y19653750D02*
G01*
X9880600Y19106650D01*
X9493750Y18719800D01*
X8946650Y18719800D01*
X8559800Y19106650D01*
X8559800Y19653750D01*
X8946650Y20040600D01*
X9493750Y20040600D01*
X9880600Y19653750D01*
G37*
%TD.AperFunction*%
%TA.AperFunction,NonConductor*%
G36*
X9880600Y27273750D02*
G01*
X9880600Y26726650D01*
X9493750Y26339800D01*
X8946650Y26339800D01*
X8559800Y26726650D01*
X8559800Y27273750D01*
X8946650Y27660600D01*
X9493750Y27660600D01*
X9880600Y27273750D01*
G37*
%TD.AperFunction*%
%TA.AperFunction,NonConductor*%
G36*
X12420600Y27273750D02*
G01*
X12420600Y26726650D01*
X12033750Y26339800D01*
X11486650Y26339800D01*
X11099800Y26726650D01*
X11099800Y27273750D01*
X11486650Y27660600D01*
X12033750Y27660600D01*
X12420600Y27273750D01*
G37*
%TD.AperFunction*%
%TA.AperFunction,NonConductor*%
G36*
X12420600Y34893750D02*
G01*
X12420600Y34346650D01*
X12033750Y33959800D01*
X11486650Y33959800D01*
X11099800Y34346650D01*
X11099800Y34893750D01*
X11486650Y35280600D01*
X12033750Y35280600D01*
X12420600Y34893750D01*
G37*
%TD.AperFunction*%
%TA.AperFunction,NonConductor*%
G36*
X9880600Y34893750D02*
G01*
X9880600Y34346650D01*
X9493750Y33959800D01*
X8946650Y33959800D01*
X8559800Y34346650D01*
X8559800Y34893750D01*
X8946650Y35280600D01*
X9493750Y35280600D01*
X9880600Y34893750D01*
G37*
%TD.AperFunction*%
%TA.AperFunction,NonConductor*%
G36*
X9880600Y42513750D02*
G01*
X9880600Y41966650D01*
X9493750Y41579800D01*
X8946650Y41579800D01*
X8559800Y41966650D01*
X8559800Y42513750D01*
X8946650Y42900600D01*
X9493750Y42900600D01*
X9880600Y42513750D01*
G37*
%TD.AperFunction*%
%TA.AperFunction,NonConductor*%
G36*
X12420600Y42513750D02*
G01*
X12420600Y41966650D01*
X12033750Y41579800D01*
X11486650Y41579800D01*
X11099800Y41966650D01*
X11099800Y42513750D01*
X11486650Y42900600D01*
X12033750Y42900600D01*
X12420600Y42513750D01*
G37*
%TD.AperFunction*%
%TA.AperFunction,NonConductor*%
G36*
X17500600Y47593750D02*
G01*
X17500600Y47046650D01*
X17113750Y46659800D01*
X16566650Y46659800D01*
X16179800Y47046650D01*
X16179800Y47593750D01*
X16566650Y47980600D01*
X17113750Y47980600D01*
X17500600Y47593750D01*
G37*
%TD.AperFunction*%
%TA.AperFunction,NonConductor*%
G36*
X17500600Y50133750D02*
G01*
X17500600Y49586650D01*
X17113750Y49199800D01*
X16566650Y49199800D01*
X16179800Y49586650D01*
X16179800Y50133750D01*
X16566650Y50520600D01*
X17113750Y50520600D01*
X17500600Y50133750D01*
G37*
%TD.AperFunction*%
%TA.AperFunction,NonConductor*%
G36*
X25120600Y50133750D02*
G01*
X25120600Y49586650D01*
X24733750Y49199800D01*
X24186650Y49199800D01*
X23799800Y49586650D01*
X23799800Y50133750D01*
X24186650Y50520600D01*
X24733750Y50520600D01*
X25120600Y50133750D01*
G37*
%TD.AperFunction*%
%TA.AperFunction,NonConductor*%
G36*
X25120600Y47593750D02*
G01*
X25120600Y47046650D01*
X24733750Y46659800D01*
X24186650Y46659800D01*
X23799800Y47046650D01*
X23799800Y47593750D01*
X24186650Y47980600D01*
X24733750Y47980600D01*
X25120600Y47593750D01*
G37*
%TD.AperFunction*%
%TA.AperFunction,NonConductor*%
G36*
X32740600Y47593750D02*
G01*
X32740600Y47046650D01*
X32353750Y46659800D01*
X31806650Y46659800D01*
X31419800Y47046650D01*
X31419800Y47593750D01*
X31806650Y47980600D01*
X32353750Y47980600D01*
X32740600Y47593750D01*
G37*
%TD.AperFunction*%
%TA.AperFunction,NonConductor*%
G36*
X32740600Y50133750D02*
G01*
X32740600Y49586650D01*
X32353750Y49199800D01*
X31806650Y49199800D01*
X31419800Y49586650D01*
X31419800Y50133750D01*
X31806650Y50520600D01*
X32353750Y50520600D01*
X32740600Y50133750D01*
G37*
%TD.AperFunction*%
%TA.AperFunction,NonConductor*%
G36*
X40360600Y50133750D02*
G01*
X40360600Y49586650D01*
X39973750Y49199800D01*
X39426650Y49199800D01*
X39039800Y49586650D01*
X39039800Y50133750D01*
X39426650Y50520600D01*
X39973750Y50520600D01*
X40360600Y50133750D01*
G37*
%TD.AperFunction*%
%TA.AperFunction,NonConductor*%
G36*
X40360600Y47593750D02*
G01*
X40360600Y47046650D01*
X39973750Y46659800D01*
X39426650Y46659800D01*
X39039800Y47046650D01*
X39039800Y47593750D01*
X39426650Y47980600D01*
X39973750Y47980600D01*
X40360600Y47593750D01*
G37*
%TD.AperFunction*%
%TA.AperFunction,NonConductor*%
G36*
X3632200Y34935830D02*
G01*
X3632200Y34304570D01*
X3185830Y33858200D01*
X2554570Y33858200D01*
X2108200Y34304570D01*
X2108200Y34935830D01*
X2554570Y35382200D01*
X3185830Y35382200D01*
X3632200Y34935830D01*
G37*
%TD.AperFunction*%
%TA.AperFunction,NonConductor*%
G36*
X3632200Y32395830D02*
G01*
X3632200Y31764570D01*
X3185830Y31318200D01*
X2554570Y31318200D01*
X2108200Y31764570D01*
X2108200Y32395830D01*
X2554570Y32842200D01*
X3185830Y32842200D01*
X3632200Y32395830D01*
G37*
%TD.AperFunction*%
%TA.AperFunction,NonConductor*%
G36*
X3632200Y29855830D02*
G01*
X3632200Y29224570D01*
X3185830Y28778200D01*
X2554570Y28778200D01*
X2108200Y29224570D01*
X2108200Y29855830D01*
X2554570Y30302200D01*
X3185830Y30302200D01*
X3632200Y29855830D01*
G37*
%TD.AperFunction*%
%TA.AperFunction,NonConductor*%
G36*
X3632200Y27315830D02*
G01*
X3632200Y26684570D01*
X3185830Y26238200D01*
X2554570Y26238200D01*
X2108200Y26684570D01*
X2108200Y27315830D01*
X2554570Y27762200D01*
X3185830Y27762200D01*
X3632200Y27315830D01*
G37*
%TD.AperFunction*%
%TA.AperFunction,NonConductor*%
G36*
X3632200Y24775830D02*
G01*
X3632200Y24144570D01*
X3185830Y23698200D01*
X2554570Y23698200D01*
X2108200Y24144570D01*
X2108200Y24775830D01*
X2554570Y25222200D01*
X3185830Y25222200D01*
X3632200Y24775830D01*
G37*
%TD.AperFunction*%
%TA.AperFunction,NonConductor*%
G36*
X89992200Y24775830D02*
G01*
X89992200Y24144570D01*
X89545830Y23698200D01*
X88914570Y23698200D01*
X88468200Y24144570D01*
X88468200Y24775830D01*
X88914570Y25222200D01*
X89545830Y25222200D01*
X89992200Y24775830D01*
G37*
%TD.AperFunction*%
%TA.AperFunction,NonConductor*%
G36*
X89992200Y27315830D02*
G01*
X89992200Y26684570D01*
X89545830Y26238200D01*
X88914570Y26238200D01*
X88468200Y26684570D01*
X88468200Y27315830D01*
X88914570Y27762200D01*
X89545830Y27762200D01*
X89992200Y27315830D01*
G37*
%TD.AperFunction*%
%TA.AperFunction,NonConductor*%
G36*
X89992200Y29855830D02*
G01*
X89992200Y29224570D01*
X89545830Y28778200D01*
X88914570Y28778200D01*
X88468200Y29224570D01*
X88468200Y29855830D01*
X88914570Y30302200D01*
X89545830Y30302200D01*
X89992200Y29855830D01*
G37*
%TD.AperFunction*%
%TA.AperFunction,NonConductor*%
G36*
X89992200Y32395830D02*
G01*
X89992200Y31764570D01*
X89545830Y31318200D01*
X88914570Y31318200D01*
X88468200Y31764570D01*
X88468200Y32395830D01*
X88914570Y32842200D01*
X89545830Y32842200D01*
X89992200Y32395830D01*
G37*
%TD.AperFunction*%
%TA.AperFunction,NonConductor*%
G36*
X89992200Y34935830D02*
G01*
X89992200Y34304570D01*
X89545830Y33858200D01*
X88914570Y33858200D01*
X88468200Y34304570D01*
X88468200Y34935830D01*
X88914570Y35382200D01*
X89545830Y35382200D01*
X89992200Y34935830D01*
G37*
%TD.AperFunction*%
D11*
%TO.N,*%
X330200Y330200D02*
X330200Y54676290D01*
X330200Y54676290D02*
X91948250Y54676290D01*
X91948250Y54676290D02*
X91948250Y330200D01*
X91948250Y330200D02*
X330200Y330200D01*
D12*
X90347800Y34436050D02*
X91491050Y34436050D01*
X91491050Y34841940D02*
X90347800Y34841940D01*
X90347800Y35083240D02*
X89693240Y35737800D01*
X89693240Y35737800D02*
X88767160Y35737800D01*
X88767160Y35737800D02*
X88112600Y35083240D01*
X88112600Y35083240D02*
X88112600Y35052000D01*
X88112600Y35052000D02*
X87781380Y35052000D01*
X87781380Y35052000D02*
X87528400Y34799020D01*
X87528400Y34799020D02*
X86257380Y33528000D01*
X86257380Y33528000D02*
X60958980Y33528000D01*
X60958980Y33528000D02*
X60706000Y33275020D01*
X60706000Y33275020D02*
X47784000Y20353020D01*
X47784000Y20353020D02*
X47741080Y20396200D01*
X47741080Y20396200D02*
X46899320Y20396200D01*
X46899320Y20396200D02*
X46304200Y19801080D01*
X46304200Y19801080D02*
X46304200Y18959320D01*
X46304200Y18959320D02*
X46899320Y18364200D01*
X46899320Y18364200D02*
X47741080Y18364200D01*
X47741080Y18364200D02*
X48336200Y18959320D01*
X48336200Y18959320D02*
X48336200Y19683980D01*
X48336200Y19683980D02*
X61316620Y32664400D01*
X61316620Y32664400D02*
X86615020Y32664400D01*
X86615020Y32664400D02*
X88112600Y34161980D01*
X88112600Y34161980D02*
X88112600Y34157160D01*
X88112600Y34157160D02*
X88767160Y33502600D01*
X88767160Y33502600D02*
X89693240Y33502600D01*
X89693240Y33502600D02*
X90347800Y34157160D01*
X90347800Y34157160D02*
X90347800Y35083240D01*
X90182950Y35248090D02*
X91491050Y35248090D01*
X91491050Y35653980D02*
X89776810Y35653980D01*
X88683590Y35653980D02*
X81832450Y35653980D01*
X82043020Y35864800D02*
X81287620Y35109400D01*
X81287620Y35109400D02*
X81356200Y35041080D01*
X81356200Y35041080D02*
X81356200Y34199320D01*
X81356200Y34199320D02*
X80761080Y33604200D01*
X80761080Y33604200D02*
X79919320Y33604200D01*
X79919320Y33604200D02*
X79324200Y34199320D01*
X79324200Y34199320D02*
X79324200Y35041080D01*
X79324200Y35041080D02*
X79919320Y35636200D01*
X79919320Y35636200D02*
X80593180Y35636200D01*
X80593180Y35636200D02*
X81432400Y36475420D01*
X81432400Y36475420D02*
X81432400Y41504620D01*
X81432400Y41504620D02*
X81864200Y41936420D01*
X81864200Y41936420D02*
X81864200Y42661080D01*
X81864200Y42661080D02*
X82459320Y43256200D01*
X82459320Y43256200D02*
X83301080Y43256200D01*
X83301080Y43256200D02*
X83896200Y42661080D01*
X83896200Y42661080D02*
X83896200Y41819320D01*
X83896200Y41819320D02*
X83301080Y41224200D01*
X83301080Y41224200D02*
X82459320Y41224200D01*
X82459320Y41224200D02*
X82416400Y41267380D01*
X82416400Y41267380D02*
X82296000Y41146980D01*
X82296000Y41146980D02*
X82296000Y36117780D01*
X82296000Y36117780D02*
X82043020Y35864800D01*
X82238340Y36060130D02*
X91491050Y36060130D01*
X91491050Y36466270D02*
X82296000Y36466270D01*
X82296000Y36872160D02*
X91491050Y36872160D01*
X91491050Y37278310D02*
X82296000Y37278310D01*
X82296000Y37684200D02*
X91491050Y37684200D01*
X91491050Y38090350D02*
X82296000Y38090350D01*
X82296000Y38496240D02*
X91491050Y38496240D01*
X91491050Y38902390D02*
X82296000Y38902390D01*
X82296000Y39308280D02*
X91491050Y39308280D01*
X91491050Y39714420D02*
X82296000Y39714420D01*
X82296000Y40120320D02*
X91491050Y40120320D01*
X91491050Y40526460D02*
X82296000Y40526460D01*
X82296000Y40932350D02*
X91491050Y40932350D01*
X91491050Y41338500D02*
X83415120Y41338500D01*
X83821270Y41744390D02*
X91491050Y41744390D01*
X91491050Y42150540D02*
X83896200Y42150540D01*
X83896200Y42556430D02*
X91491050Y42556430D01*
X91491050Y42962580D02*
X83594700Y42962580D01*
X82165700Y42962580D02*
X81198470Y42962580D01*
X81457800Y42703240D02*
X80803240Y43357800D01*
X80803240Y43357800D02*
X80340200Y43357800D01*
X80340200Y43357800D02*
X80340200Y42240200D01*
X80340200Y42240200D02*
X81457800Y42240200D01*
X81457800Y42240200D02*
X81457800Y42703240D01*
X81457800Y42556430D02*
X81864200Y42556430D01*
X81864200Y42150540D02*
X81457800Y42150540D01*
X81457800Y42240200D02*
X80340200Y42240200D01*
X80340200Y42240200D02*
X80340200Y42240200D01*
X80340200Y42240200D02*
X80340200Y42240200D01*
X80340200Y42240200D02*
X80340200Y41122600D01*
X80340200Y41122600D02*
X80803240Y41122600D01*
X80803240Y41122600D02*
X81457800Y41777160D01*
X81457800Y41777160D02*
X81457800Y42240200D01*
X81425030Y41744390D02*
X81672180Y41744390D01*
X81432400Y41338500D02*
X81018890Y41338500D01*
X81432400Y40932350D02*
X31332170Y40932350D01*
X30926280Y40526460D02*
X81432400Y40526460D01*
X81432400Y40120320D02*
X30520130Y40120320D01*
X30114240Y39714420D02*
X81432400Y39714420D01*
X81432400Y39308280D02*
X29708090Y39308280D01*
X29302200Y38902390D02*
X81432400Y38902390D01*
X81432400Y38496240D02*
X28896060Y38496240D01*
X28490160Y38090350D02*
X81432400Y38090350D01*
X81432400Y37684200D02*
X28084020Y37684200D01*
X27678130Y37278310D02*
X81432400Y37278310D01*
X81432400Y36872160D02*
X27271980Y36872160D01*
X26866090Y36466270D02*
X81423000Y36466270D01*
X81017110Y36060130D02*
X26459940Y36060130D01*
X26054050Y35653980D02*
X80610960Y35653980D01*
X81426300Y35248090D02*
X82071210Y35248090D01*
X81864200Y35041080D02*
X82459320Y35636200D01*
X82459320Y35636200D02*
X83301080Y35636200D01*
X83301080Y35636200D02*
X83896200Y35041080D01*
X83896200Y35041080D02*
X83896200Y34199320D01*
X83896200Y34199320D02*
X83301080Y33604200D01*
X83301080Y33604200D02*
X82459320Y33604200D01*
X82459320Y33604200D02*
X81864200Y34199320D01*
X81864200Y34199320D02*
X81864200Y35041080D01*
X81864200Y34841940D02*
X81356200Y34841940D01*
X81356200Y34436050D02*
X81864200Y34436050D01*
X82033620Y34029900D02*
X81186780Y34029900D01*
X80780890Y33624010D02*
X82439510Y33624010D01*
X83320890Y33624010D02*
X86353400Y33624010D01*
X86759290Y34029900D02*
X83726780Y34029900D01*
X83896200Y34436050D02*
X87165430Y34436050D01*
X87571330Y34841940D02*
X83896200Y34841940D01*
X83689190Y35248090D02*
X88277450Y35248090D01*
X88239850Y34029900D02*
X87980770Y34029900D01*
X87574630Y33624010D02*
X88646000Y33624010D01*
X88767160Y33197800D02*
X88112600Y32543240D01*
X88112600Y32543240D02*
X88112600Y31617160D01*
X88112600Y31617160D02*
X88767160Y30962600D01*
X88767160Y30962600D02*
X89693240Y30962600D01*
X89693240Y30962600D02*
X90347800Y31617160D01*
X90347800Y31617160D02*
X90347800Y32543240D01*
X90347800Y32543240D02*
X89693240Y33197800D01*
X89693240Y33197800D02*
X88767160Y33197800D01*
X88381330Y32811970D02*
X86762590Y32811970D01*
X87168740Y33217870D02*
X91491050Y33217870D01*
X91491050Y32811970D02*
X90079070Y32811970D01*
X90347800Y32405830D02*
X91491050Y32405830D01*
X91491050Y31999940D02*
X90347800Y31999940D01*
X90324430Y31593790D02*
X91491050Y31593790D01*
X91491050Y31187900D02*
X89918290Y31187900D01*
X89693240Y30657800D02*
X88767160Y30657800D01*
X88767160Y30657800D02*
X88112600Y30003240D01*
X88112600Y30003240D02*
X88112600Y29870400D01*
X88112600Y29870400D02*
X65226180Y29870400D01*
X65226180Y29870400D02*
X64973200Y29617420D01*
X64973200Y29617420D02*
X46023780Y10668000D01*
X46023780Y10668000D02*
X12648180Y10668000D01*
X12648180Y10668000D02*
X12395200Y10415020D01*
X12395200Y10415020D02*
X9658600Y7678420D01*
X9658600Y7678420D02*
X9641080Y7696200D01*
X9641080Y7696200D02*
X8799320Y7696200D01*
X8799320Y7696200D02*
X8204200Y7101080D01*
X8204200Y7101080D02*
X8204200Y6259320D01*
X8204200Y6259320D02*
X8799320Y5664200D01*
X8799320Y5664200D02*
X9641080Y5664200D01*
X9641080Y5664200D02*
X10236200Y6259320D01*
X10236200Y6259320D02*
X10236200Y7034780D01*
X10236200Y7034780D02*
X13005820Y9804400D01*
X13005820Y9804400D02*
X46381420Y9804400D01*
X46381420Y9804400D02*
X65583820Y29006800D01*
X65583820Y29006800D02*
X88182960Y29006800D01*
X88182960Y29006800D02*
X88767160Y28422600D01*
X88767160Y28422600D02*
X89693240Y28422600D01*
X89693240Y28422600D02*
X90347800Y29077160D01*
X90347800Y29077160D02*
X90347800Y30003240D01*
X90347800Y30003240D02*
X89693240Y30657800D01*
X89975180Y30375860D02*
X91491050Y30375860D01*
X91491050Y30781750D02*
X59434220Y30781750D01*
X59840110Y31187900D02*
X88542110Y31187900D01*
X88135970Y31593790D02*
X60246260Y31593790D01*
X60652150Y31999940D02*
X88112600Y31999940D01*
X88112600Y32405830D02*
X61058300Y32405830D01*
X60242960Y32811970D02*
X23211790Y32811970D01*
X23317200Y32917380D02*
X39261800Y48861980D01*
X39261800Y48861980D02*
X39279320Y48844200D01*
X39279320Y48844200D02*
X40121080Y48844200D01*
X40121080Y48844200D02*
X40716200Y49439320D01*
X40716200Y49439320D02*
X40716200Y50281080D01*
X40716200Y50281080D02*
X40121080Y50876200D01*
X40121080Y50876200D02*
X39279320Y50876200D01*
X39279320Y50876200D02*
X38684200Y50281080D01*
X38684200Y50281080D02*
X38684200Y49505620D01*
X38684200Y49505620D02*
X22706580Y33528000D01*
X22706580Y33528000D02*
X3808980Y33528000D01*
X3808980Y33528000D02*
X3405890Y33124900D01*
X3405890Y33124900D02*
X3333240Y33197800D01*
X3333240Y33197800D02*
X2407160Y33197800D01*
X2407160Y33197800D02*
X1752600Y32543240D01*
X1752600Y32543240D02*
X1752600Y31617160D01*
X1752600Y31617160D02*
X2407160Y30962600D01*
X2407160Y30962600D02*
X3333240Y30962600D01*
X3333240Y30962600D02*
X3987800Y31617160D01*
X3987800Y31617160D02*
X3987800Y32485580D01*
X3987800Y32485580D02*
X4166620Y32664400D01*
X4166620Y32664400D02*
X23064220Y32664400D01*
X23064220Y32664400D02*
X23317200Y32917380D01*
X23617940Y33217870D02*
X60648850Y33217870D01*
X59836810Y32405830D02*
X3987800Y32405830D01*
X3987800Y31999940D02*
X59430920Y31999940D01*
X59024770Y31593790D02*
X3964430Y31593790D01*
X3558290Y31187900D02*
X58618880Y31187900D01*
X58212740Y30781750D02*
X787400Y30781750D01*
X787400Y30375860D02*
X2125220Y30375860D01*
X2407160Y30657800D02*
X1752600Y30003240D01*
X1752600Y30003240D02*
X1752600Y29077160D01*
X1752600Y29077160D02*
X2407160Y28422600D01*
X2407160Y28422600D02*
X3333240Y28422600D01*
X3333240Y28422600D02*
X3987800Y29077160D01*
X3987800Y29077160D02*
X3987800Y30003240D01*
X3987800Y30003240D02*
X3333240Y30657800D01*
X3333240Y30657800D02*
X2407160Y30657800D01*
X2182110Y31187900D02*
X787400Y31187900D01*
X787400Y31593790D02*
X1775970Y31593790D01*
X1752600Y31999940D02*
X787400Y31999940D01*
X787400Y32405830D02*
X1752600Y32405830D01*
X2021330Y32811970D02*
X787400Y32811970D01*
X787400Y33217870D02*
X3498850Y33217870D01*
X3375150Y33401000D02*
X4089400Y34115250D01*
X4089400Y34115250D02*
X4089400Y34569400D01*
X4089400Y34569400D02*
X2921000Y34569400D01*
X2921000Y34569400D02*
X2921000Y34671000D01*
X2921000Y34671000D02*
X4089400Y34671000D01*
X4089400Y34671000D02*
X4089400Y35125150D01*
X4089400Y35125150D02*
X3375150Y35839400D01*
X3375150Y35839400D02*
X2921000Y35839400D01*
X2921000Y35839400D02*
X2921000Y34671000D01*
X2921000Y34671000D02*
X2819400Y34671000D01*
X2819400Y34671000D02*
X2819400Y35839400D01*
X2819400Y35839400D02*
X2365250Y35839400D01*
X2365250Y35839400D02*
X1651000Y35125150D01*
X1651000Y35125150D02*
X1651000Y34671000D01*
X1651000Y34671000D02*
X2819400Y34671000D01*
X2819400Y34671000D02*
X2819400Y34569400D01*
X2819400Y34569400D02*
X2921000Y34569400D01*
X2921000Y34569400D02*
X2921000Y33401000D01*
X2921000Y33401000D02*
X3375150Y33401000D01*
X3598160Y33624010D02*
X8779510Y33624010D01*
X8799320Y33604200D02*
X9641080Y33604200D01*
X9641080Y33604200D02*
X10236200Y34199320D01*
X10236200Y34199320D02*
X10236200Y35041080D01*
X10236200Y35041080D02*
X9641080Y35636200D01*
X9641080Y35636200D02*
X8799320Y35636200D01*
X8799320Y35636200D02*
X8204200Y35041080D01*
X8204200Y35041080D02*
X8204200Y34199320D01*
X8204200Y34199320D02*
X8799320Y33604200D01*
X8373620Y34029900D02*
X4004310Y34029900D01*
X4089400Y34436050D02*
X8204200Y34436050D01*
X8204200Y34841940D02*
X4089400Y34841940D01*
X3966460Y35248090D02*
X8411210Y35248090D01*
X10029190Y35248090D02*
X10951210Y35248090D01*
X10744200Y35041080D02*
X10744200Y34199320D01*
X10744200Y34199320D02*
X11339320Y33604200D01*
X11339320Y33604200D02*
X12181080Y33604200D01*
X12181080Y33604200D02*
X12776200Y34199320D01*
X12776200Y34199320D02*
X12776200Y35041080D01*
X12776200Y35041080D02*
X12181080Y35636200D01*
X12181080Y35636200D02*
X11339320Y35636200D01*
X11339320Y35636200D02*
X10744200Y35041080D01*
X10744200Y34841940D02*
X10236200Y34841940D01*
X10236200Y34436050D02*
X10744200Y34436050D01*
X10913620Y34029900D02*
X10066780Y34029900D01*
X9660890Y33624010D02*
X11319510Y33624010D01*
X12200890Y33624010D02*
X22802600Y33624010D01*
X23208490Y34029900D02*
X12606780Y34029900D01*
X12776200Y34436050D02*
X23614630Y34436050D01*
X24020530Y34841940D02*
X12776200Y34841940D01*
X12569190Y35248090D02*
X24426670Y35248090D01*
X24832560Y35653980D02*
X3560570Y35653980D01*
X2921000Y35653980D02*
X2819400Y35653980D01*
X2819400Y35248090D02*
X2921000Y35248090D01*
X2921000Y34841940D02*
X2819400Y34841940D01*
X2819400Y34569400D02*
X1651000Y34569400D01*
X1651000Y34569400D02*
X1651000Y34115250D01*
X1651000Y34115250D02*
X2365250Y33401000D01*
X2365250Y33401000D02*
X2819400Y33401000D01*
X2819400Y33401000D02*
X2819400Y34569400D01*
X2819400Y34436050D02*
X2921000Y34436050D01*
X2921000Y34029900D02*
X2819400Y34029900D01*
X2819400Y33624010D02*
X2921000Y33624010D01*
X2142240Y33624010D02*
X787400Y33624010D01*
X787400Y34029900D02*
X1736090Y34029900D01*
X1651000Y34436050D02*
X787400Y34436050D01*
X787400Y34841940D02*
X1651000Y34841940D01*
X1773940Y35248090D02*
X787400Y35248090D01*
X787400Y35653980D02*
X2179830Y35653980D01*
X787400Y36060130D02*
X25238710Y36060130D01*
X25644600Y36466270D02*
X787400Y36466270D01*
X787400Y36872160D02*
X26050750Y36872160D01*
X26456640Y37278310D02*
X787400Y37278310D01*
X787400Y37684200D02*
X26862790Y37684200D01*
X27268680Y38090350D02*
X787400Y38090350D01*
X787400Y38496240D02*
X27674820Y38496240D01*
X28080720Y38902390D02*
X787400Y38902390D01*
X787400Y39308280D02*
X28486860Y39308280D01*
X28892750Y39714420D02*
X787400Y39714420D01*
X787400Y40120320D02*
X29298900Y40120320D01*
X29704790Y40526460D02*
X787400Y40526460D01*
X787400Y40932350D02*
X30110940Y40932350D01*
X30516830Y41338500D02*
X12295120Y41338500D01*
X12181080Y41224200D02*
X12776200Y41819320D01*
X12776200Y41819320D02*
X12776200Y42661080D01*
X12776200Y42661080D02*
X12181080Y43256200D01*
X12181080Y43256200D02*
X11339320Y43256200D01*
X11339320Y43256200D02*
X10744200Y42661080D01*
X10744200Y42661080D02*
X10744200Y41819320D01*
X10744200Y41819320D02*
X11339320Y41224200D01*
X11339320Y41224200D02*
X12181080Y41224200D01*
X12701270Y41744390D02*
X30922980Y41744390D01*
X31329120Y42150540D02*
X12776200Y42150540D01*
X12776200Y42556430D02*
X31735010Y42556430D01*
X32141160Y42962580D02*
X12474700Y42962580D01*
X11045700Y42962580D02*
X9934700Y42962580D01*
X9641080Y43256200D02*
X8799320Y43256200D01*
X8799320Y43256200D02*
X8204200Y42661080D01*
X8204200Y42661080D02*
X8204200Y41819320D01*
X8204200Y41819320D02*
X8799320Y41224200D01*
X8799320Y41224200D02*
X9641080Y41224200D01*
X9641080Y41224200D02*
X10236200Y41819320D01*
X10236200Y41819320D02*
X10236200Y42661080D01*
X10236200Y42661080D02*
X9641080Y43256200D01*
X10236200Y42556430D02*
X10744200Y42556430D01*
X10744200Y42150540D02*
X10236200Y42150540D01*
X10161270Y41744390D02*
X10819130Y41744390D01*
X11225280Y41338500D02*
X9755120Y41338500D01*
X8685280Y41338500D02*
X787400Y41338500D01*
X787400Y41744390D02*
X8279130Y41744390D01*
X8204200Y42150540D02*
X787400Y42150540D01*
X787400Y42556430D02*
X8204200Y42556430D01*
X8505700Y42962580D02*
X787400Y42962580D01*
X787400Y43368470D02*
X32547050Y43368470D01*
X32953200Y43774610D02*
X787400Y43774610D01*
X787400Y44180510D02*
X33359090Y44180510D01*
X33765240Y44586650D02*
X787400Y44586650D01*
X787400Y44992540D02*
X34171130Y44992540D01*
X34577270Y45398690D02*
X787400Y45398690D01*
X787400Y45804580D02*
X34983170Y45804580D01*
X35389310Y46210730D02*
X17311120Y46210730D01*
X17303240Y46202600D02*
X17957800Y46857160D01*
X17957800Y46857160D02*
X17957800Y47320200D01*
X17957800Y47320200D02*
X17957800Y47783240D01*
X17957800Y47783240D02*
X17303240Y48437800D01*
X17303240Y48437800D02*
X16840200Y48437800D01*
X16840200Y48437800D02*
X16840200Y47320200D01*
X16840200Y47320200D02*
X16840200Y47320200D01*
X16840200Y47320200D02*
X17957800Y47320200D01*
X17957800Y47320200D02*
X16840200Y47320200D01*
X16840200Y47320200D02*
X16840200Y47320200D01*
X16840200Y47320200D02*
X16840200Y47320200D01*
X16840200Y47320200D02*
X15722600Y47320200D01*
X15722600Y47320200D02*
X15722600Y47783240D01*
X15722600Y47783240D02*
X16377160Y48437800D01*
X16377160Y48437800D02*
X16840200Y48437800D01*
X16840200Y48437800D02*
X16840200Y47320200D01*
X16840200Y47320200D02*
X16840200Y46202600D01*
X16840200Y46202600D02*
X17303240Y46202600D01*
X16840200Y46202600D02*
X16840200Y47320200D01*
X16840200Y47320200D02*
X16840200Y47320200D01*
X16840200Y47320200D02*
X15722600Y47320200D01*
X15722600Y47320200D02*
X15722600Y46857160D01*
X15722600Y46857160D02*
X16377160Y46202600D01*
X16377160Y46202600D02*
X16840200Y46202600D01*
X16840200Y46210730D02*
X16840200Y46210730D01*
X16840200Y46616620D02*
X16840200Y46616620D01*
X16840200Y47022770D02*
X16840200Y47022770D01*
X16840200Y47428660D02*
X16840200Y47428660D01*
X16840200Y47834800D02*
X16840200Y47834800D01*
X16840200Y48240700D02*
X16840200Y48240700D01*
X17500090Y48240700D02*
X23943820Y48240700D01*
X24039320Y48336200D02*
X23444200Y47741080D01*
X23444200Y47741080D02*
X23444200Y46899320D01*
X23444200Y46899320D02*
X24039320Y46304200D01*
X24039320Y46304200D02*
X24881080Y46304200D01*
X24881080Y46304200D02*
X25476200Y46899320D01*
X25476200Y46899320D02*
X25476200Y47741080D01*
X25476200Y47741080D02*
X24881080Y48336200D01*
X24881080Y48336200D02*
X24039320Y48336200D01*
X24039320Y48844200D02*
X24881080Y48844200D01*
X24881080Y48844200D02*
X25476200Y49439320D01*
X25476200Y49439320D02*
X25476200Y50281080D01*
X25476200Y50281080D02*
X24881080Y50876200D01*
X24881080Y50876200D02*
X24039320Y50876200D01*
X24039320Y50876200D02*
X23444200Y50281080D01*
X23444200Y50281080D02*
X23444200Y49439320D01*
X23444200Y49439320D02*
X24039320Y48844200D01*
X23830790Y49052730D02*
X17469610Y49052730D01*
X17261080Y48844200D02*
X16419320Y48844200D01*
X16419320Y48844200D02*
X15824200Y49439320D01*
X15824200Y49439320D02*
X15824200Y50281080D01*
X15824200Y50281080D02*
X16419320Y50876200D01*
X16419320Y50876200D02*
X17261080Y50876200D01*
X17261080Y50876200D02*
X17856200Y50281080D01*
X17856200Y50281080D02*
X17856200Y49439320D01*
X17856200Y49439320D02*
X17261080Y48844200D01*
X16210790Y49052730D02*
X787400Y49052730D01*
X787400Y48646840D02*
X37825430Y48646840D01*
X38231320Y49052730D02*
X32709610Y49052730D01*
X32501080Y48844200D02*
X31659320Y48844200D01*
X31659320Y48844200D02*
X31064200Y49439320D01*
X31064200Y49439320D02*
X31064200Y50281080D01*
X31064200Y50281080D02*
X31659320Y50876200D01*
X31659320Y50876200D02*
X32501080Y50876200D01*
X32501080Y50876200D02*
X33096200Y50281080D01*
X33096200Y50281080D02*
X33096200Y49439320D01*
X33096200Y49439320D02*
X32501080Y48844200D01*
X32501080Y48336200D02*
X31659320Y48336200D01*
X31659320Y48336200D02*
X31064200Y47741080D01*
X31064200Y47741080D02*
X31064200Y46899320D01*
X31064200Y46899320D02*
X31659320Y46304200D01*
X31659320Y46304200D02*
X32501080Y46304200D01*
X32501080Y46304200D02*
X33096200Y46899320D01*
X33096200Y46899320D02*
X33096200Y47741080D01*
X33096200Y47741080D02*
X32501080Y48336200D01*
X32596330Y48240700D02*
X37419280Y48240700D01*
X37013390Y47834800D02*
X33002470Y47834800D01*
X33096200Y47428660D02*
X36607240Y47428660D01*
X36201350Y47022770D02*
X33096200Y47022770D01*
X32813500Y46616620D02*
X35795200Y46616620D01*
X36204400Y45804580D02*
X91491050Y45804580D01*
X91491050Y45398690D02*
X35798510Y45398690D01*
X35392360Y44992540D02*
X91491050Y44992540D01*
X91491050Y44586650D02*
X34986470Y44586650D01*
X34580320Y44180510D02*
X91491050Y44180510D01*
X91491050Y43774610D02*
X34174430Y43774610D01*
X33768280Y43368470D02*
X91491050Y43368470D01*
X91491050Y46210730D02*
X52871120Y46210730D01*
X52863240Y46202600D02*
X53517800Y46857160D01*
X53517800Y46857160D02*
X53517800Y47320200D01*
X53517800Y47320200D02*
X53517800Y47783240D01*
X53517800Y47783240D02*
X52863240Y48437800D01*
X52863240Y48437800D02*
X52400200Y48437800D01*
X52400200Y48437800D02*
X52400200Y47320200D01*
X52400200Y47320200D02*
X52400200Y47320200D01*
X52400200Y47320200D02*
X53517800Y47320200D01*
X53517800Y47320200D02*
X52400200Y47320200D01*
X52400200Y47320200D02*
X52400200Y47320200D01*
X52400200Y47320200D02*
X52400200Y47320200D01*
X52400200Y47320200D02*
X51282600Y47320200D01*
X51282600Y47320200D02*
X51282600Y47783240D01*
X51282600Y47783240D02*
X51937160Y48437800D01*
X51937160Y48437800D02*
X52400200Y48437800D01*
X52400200Y48437800D02*
X52400200Y47320200D01*
X52400200Y47320200D02*
X52400200Y46202600D01*
X52400200Y46202600D02*
X52863240Y46202600D01*
X52400200Y46202600D02*
X52400200Y47320200D01*
X52400200Y47320200D02*
X52400200Y47320200D01*
X52400200Y47320200D02*
X51282600Y47320200D01*
X51282600Y47320200D02*
X51282600Y46857160D01*
X51282600Y46857160D02*
X51937160Y46202600D01*
X51937160Y46202600D02*
X52400200Y46202600D01*
X52400200Y46210730D02*
X52400200Y46210730D01*
X52400200Y46616620D02*
X52400200Y46616620D01*
X52400200Y47022770D02*
X52400200Y47022770D01*
X52400200Y47428660D02*
X52400200Y47428660D01*
X52400200Y47834800D02*
X52400200Y47834800D01*
X52400200Y48240700D02*
X52400200Y48240700D01*
X53060090Y48240700D02*
X59503820Y48240700D01*
X59599320Y48336200D02*
X59004200Y47741080D01*
X59004200Y47741080D02*
X59004200Y46899320D01*
X59004200Y46899320D02*
X59599320Y46304200D01*
X59599320Y46304200D02*
X60441080Y46304200D01*
X60441080Y46304200D02*
X61036200Y46899320D01*
X61036200Y46899320D02*
X61036200Y47741080D01*
X61036200Y47741080D02*
X60441080Y48336200D01*
X60441080Y48336200D02*
X59599320Y48336200D01*
X59599320Y48844200D02*
X60441080Y48844200D01*
X60441080Y48844200D02*
X61036200Y49439320D01*
X61036200Y49439320D02*
X61036200Y50281080D01*
X61036200Y50281080D02*
X60441080Y50876200D01*
X60441080Y50876200D02*
X59599320Y50876200D01*
X59599320Y50876200D02*
X59004200Y50281080D01*
X59004200Y50281080D02*
X59004200Y49439320D01*
X59004200Y49439320D02*
X59599320Y48844200D01*
X59390790Y49052730D02*
X53029610Y49052730D01*
X52821080Y48844200D02*
X51979320Y48844200D01*
X51979320Y48844200D02*
X51384200Y49439320D01*
X51384200Y49439320D02*
X51384200Y50281080D01*
X51384200Y50281080D02*
X51979320Y50876200D01*
X51979320Y50876200D02*
X52821080Y50876200D01*
X52821080Y50876200D02*
X53416200Y50281080D01*
X53416200Y50281080D02*
X53416200Y49439320D01*
X53416200Y49439320D02*
X52821080Y48844200D01*
X51770790Y49052730D02*
X40329610Y49052730D01*
X40716200Y49458880D02*
X51384200Y49458880D01*
X51384200Y49864770D02*
X40716200Y49864770D01*
X40716200Y50270920D02*
X51384200Y50270920D01*
X51780190Y50676810D02*
X40320210Y50676810D01*
X39080190Y50676810D02*
X32700210Y50676810D01*
X33096200Y50270920D02*
X38684200Y50270920D01*
X38684200Y49864770D02*
X33096200Y49864770D01*
X33096200Y49458880D02*
X38637460Y49458880D01*
X39046660Y48646840D02*
X91491050Y48646840D01*
X91491050Y49052730D02*
X75889610Y49052730D01*
X75681080Y48844200D02*
X74839320Y48844200D01*
X74839320Y48844200D02*
X74244200Y49439320D01*
X74244200Y49439320D02*
X74244200Y50281080D01*
X74244200Y50281080D02*
X74839320Y50876200D01*
X74839320Y50876200D02*
X75681080Y50876200D01*
X75681080Y50876200D02*
X76276200Y50281080D01*
X76276200Y50281080D02*
X76276200Y49439320D01*
X76276200Y49439320D02*
X75681080Y48844200D01*
X75681080Y48336200D02*
X74839320Y48336200D01*
X74839320Y48336200D02*
X74244200Y47741080D01*
X74244200Y47741080D02*
X74244200Y46899320D01*
X74244200Y46899320D02*
X74839320Y46304200D01*
X74839320Y46304200D02*
X75681080Y46304200D01*
X75681080Y46304200D02*
X76276200Y46899320D01*
X76276200Y46899320D02*
X76276200Y47741080D01*
X76276200Y47741080D02*
X75681080Y48336200D01*
X75776330Y48240700D02*
X91491050Y48240700D01*
X91491050Y47834800D02*
X76182470Y47834800D01*
X76276200Y47428660D02*
X91491050Y47428660D01*
X91491050Y47022770D02*
X76276200Y47022770D01*
X75993500Y46616620D02*
X91491050Y46616620D01*
X91491050Y49458880D02*
X76276200Y49458880D01*
X76276200Y49864770D02*
X91491050Y49864770D01*
X91491050Y50270920D02*
X76276200Y50270920D01*
X75880210Y50676810D02*
X91491050Y50676810D01*
X91491050Y51082960D02*
X787400Y51082960D01*
X787400Y51488850D02*
X91491050Y51488850D01*
X91491050Y51894990D02*
X787400Y51894990D01*
X787400Y52300890D02*
X91491050Y52300890D01*
X91491050Y52707030D02*
X787400Y52707030D01*
X787400Y53112920D02*
X91491050Y53112920D01*
X91491050Y53519070D02*
X787400Y53519070D01*
X787400Y53924960D02*
X91491050Y53924960D01*
X91491050Y54219090D02*
X787400Y54219090D01*
X787400Y54219090D02*
X787400Y787400D01*
X787400Y787400D02*
X91491050Y787400D01*
X91491050Y787400D02*
X91491050Y54219090D01*
X74743820Y48240700D02*
X68156330Y48240700D01*
X68061080Y48336200D02*
X67219320Y48336200D01*
X67219320Y48336200D02*
X66624200Y47741080D01*
X66624200Y47741080D02*
X66624200Y46899320D01*
X66624200Y46899320D02*
X67219320Y46304200D01*
X67219320Y46304200D02*
X68061080Y46304200D01*
X68061080Y46304200D02*
X68656200Y46899320D01*
X68656200Y46899320D02*
X68656200Y47741080D01*
X68656200Y47741080D02*
X68061080Y48336200D01*
X68061080Y48844200D02*
X67219320Y48844200D01*
X67219320Y48844200D02*
X66624200Y49439320D01*
X66624200Y49439320D02*
X66624200Y50281080D01*
X66624200Y50281080D02*
X67219320Y50876200D01*
X67219320Y50876200D02*
X68061080Y50876200D01*
X68061080Y50876200D02*
X68656200Y50281080D01*
X68656200Y50281080D02*
X68656200Y49439320D01*
X68656200Y49439320D02*
X68061080Y48844200D01*
X68269610Y49052730D02*
X74630790Y49052730D01*
X74244200Y49458880D02*
X68656200Y49458880D01*
X68656200Y49864770D02*
X74244200Y49864770D01*
X74244200Y50270920D02*
X68656200Y50270920D01*
X68260210Y50676810D02*
X74640190Y50676810D01*
X74337930Y47834800D02*
X68562470Y47834800D01*
X68656200Y47428660D02*
X74244200Y47428660D01*
X74244200Y47022770D02*
X68656200Y47022770D01*
X68373500Y46616620D02*
X74526900Y46616620D01*
X79222600Y42703240D02*
X79877160Y43357800D01*
X79877160Y43357800D02*
X80340200Y43357800D01*
X80340200Y43357800D02*
X80340200Y42240200D01*
X80340200Y42240200D02*
X80340200Y42240200D01*
X80340200Y42240200D02*
X80340200Y42240200D01*
X80340200Y42240200D02*
X79222600Y42240200D01*
X79222600Y42240200D02*
X79222600Y42703240D01*
X79222600Y42556430D02*
X48336200Y42556430D01*
X48336200Y42661080D02*
X47741080Y43256200D01*
X47741080Y43256200D02*
X46899320Y43256200D01*
X46899320Y43256200D02*
X46304200Y42661080D01*
X46304200Y42661080D02*
X46304200Y41819320D01*
X46304200Y41819320D02*
X46899320Y41224200D01*
X46899320Y41224200D02*
X47741080Y41224200D01*
X47741080Y41224200D02*
X48336200Y41819320D01*
X48336200Y41819320D02*
X48336200Y42661080D01*
X48034700Y42962580D02*
X79481930Y42962580D01*
X80340200Y42962580D02*
X80340200Y42962580D01*
X80340200Y42556430D02*
X80340200Y42556430D01*
X80340200Y42240200D02*
X79222600Y42240200D01*
X79222600Y42240200D02*
X79222600Y41777160D01*
X79222600Y41777160D02*
X79877160Y41122600D01*
X79877160Y41122600D02*
X80340200Y41122600D01*
X80340200Y41122600D02*
X80340200Y42240200D01*
X80340200Y42150540D02*
X80340200Y42150540D01*
X80340200Y41744390D02*
X80340200Y41744390D01*
X80340200Y41338500D02*
X80340200Y41338500D01*
X79661510Y41338500D02*
X47855120Y41338500D01*
X48261270Y41744390D02*
X79255370Y41744390D01*
X79222600Y42150540D02*
X48336200Y42150540D01*
X46785280Y41338500D02*
X45458890Y41338500D01*
X45243240Y41122600D02*
X44780200Y41122600D01*
X44780200Y41122600D02*
X44780200Y42240200D01*
X44780200Y42240200D02*
X45897800Y42240200D01*
X45897800Y42240200D02*
X45897800Y42703240D01*
X45897800Y42703240D02*
X45243240Y43357800D01*
X45243240Y43357800D02*
X44780200Y43357800D01*
X44780200Y43357800D02*
X44780200Y42240200D01*
X44780200Y42240200D02*
X44780200Y42240200D01*
X44780200Y42240200D02*
X44780200Y42240200D01*
X44780200Y42240200D02*
X45897800Y42240200D01*
X45897800Y42240200D02*
X45897800Y41777160D01*
X45897800Y41777160D02*
X45243240Y41122600D01*
X44780200Y41122600D02*
X44780200Y42240200D01*
X44780200Y42240200D02*
X44780200Y42240200D01*
X44780200Y42240200D02*
X44780200Y42240200D01*
X44780200Y42240200D02*
X43662600Y42240200D01*
X43662600Y42240200D02*
X43662600Y42703240D01*
X43662600Y42703240D02*
X44317160Y43357800D01*
X44317160Y43357800D02*
X44780200Y43357800D01*
X44780200Y43357800D02*
X44780200Y42240200D01*
X44780200Y42240200D02*
X43662600Y42240200D01*
X43662600Y42240200D02*
X43662600Y41777160D01*
X43662600Y41777160D02*
X44317160Y41122600D01*
X44317160Y41122600D02*
X44780200Y41122600D01*
X44780200Y41338500D02*
X44780200Y41338500D01*
X44780200Y41744390D02*
X44780200Y41744390D01*
X44780200Y42150540D02*
X44780200Y42150540D01*
X44780200Y42556430D02*
X44780200Y42556430D01*
X44780200Y42962580D02*
X44780200Y42962580D01*
X45638470Y42962580D02*
X46605700Y42962580D01*
X46304200Y42556430D02*
X45897800Y42556430D01*
X45897800Y42150540D02*
X46304200Y42150540D01*
X46379130Y41744390D02*
X45865030Y41744390D01*
X44101510Y41338500D02*
X31738320Y41338500D01*
X32144210Y41744390D02*
X43695370Y41744390D01*
X43662600Y42150540D02*
X32550350Y42150540D01*
X32956250Y42556430D02*
X43662600Y42556430D01*
X43921930Y42962580D02*
X33362390Y42962580D01*
X31346900Y46616620D02*
X25193500Y46616620D01*
X25476200Y47022770D02*
X31064200Y47022770D01*
X31064200Y47428660D02*
X25476200Y47428660D01*
X25382470Y47834800D02*
X31157930Y47834800D01*
X31563820Y48240700D02*
X24976330Y48240700D01*
X25089610Y49052730D02*
X31450790Y49052730D01*
X31064200Y49458880D02*
X25476200Y49458880D01*
X25476200Y49864770D02*
X31064200Y49864770D01*
X31064200Y50270920D02*
X25476200Y50270920D01*
X25080210Y50676810D02*
X31460190Y50676810D01*
X37422580Y47022770D02*
X38684200Y47022770D01*
X38684200Y46899320D02*
X39279320Y46304200D01*
X39279320Y46304200D02*
X40121080Y46304200D01*
X40121080Y46304200D02*
X40716200Y46899320D01*
X40716200Y46899320D02*
X40716200Y47741080D01*
X40716200Y47741080D02*
X40121080Y48336200D01*
X40121080Y48336200D02*
X39279320Y48336200D01*
X39279320Y48336200D02*
X38684200Y47741080D01*
X38684200Y47741080D02*
X38684200Y46899320D01*
X38966900Y46616620D02*
X37016440Y46616620D01*
X36610540Y46210730D02*
X51929280Y46210730D01*
X51523140Y46616620D02*
X40433500Y46616620D01*
X40716200Y47022770D02*
X51282600Y47022770D01*
X51282600Y47428660D02*
X40716200Y47428660D01*
X40622470Y47834800D02*
X51334160Y47834800D01*
X51740310Y48240700D02*
X40216330Y48240700D01*
X39183820Y48240700D02*
X38640510Y48240700D01*
X38777930Y47834800D02*
X38234620Y47834800D01*
X37828470Y47428660D02*
X38684200Y47428660D01*
X53277260Y46616620D02*
X59286900Y46616620D01*
X59004200Y47022770D02*
X53517800Y47022770D01*
X53517800Y47428660D02*
X59004200Y47428660D01*
X59097930Y47834800D02*
X53466240Y47834800D01*
X53416200Y49458880D02*
X59004200Y49458880D01*
X59004200Y49864770D02*
X53416200Y49864770D01*
X53416200Y50270920D02*
X59004200Y50270920D01*
X59400190Y50676810D02*
X53020210Y50676810D01*
X60640210Y50676810D02*
X67020190Y50676810D01*
X66624200Y50270920D02*
X61036200Y50270920D01*
X61036200Y49864770D02*
X66624200Y49864770D01*
X66624200Y49458880D02*
X61036200Y49458880D01*
X60649610Y49052730D02*
X67010790Y49052730D01*
X67123820Y48240700D02*
X60536330Y48240700D01*
X60942470Y47834800D02*
X66717930Y47834800D01*
X66624200Y47428660D02*
X61036200Y47428660D01*
X61036200Y47022770D02*
X66624200Y47022770D01*
X66906900Y46616620D02*
X60753500Y46616620D01*
X48336200Y35041080D02*
X47741080Y35636200D01*
X47741080Y35636200D02*
X46899320Y35636200D01*
X46899320Y35636200D02*
X46304200Y35041080D01*
X46304200Y35041080D02*
X46304200Y34199320D01*
X46304200Y34199320D02*
X46899320Y33604200D01*
X46899320Y33604200D02*
X47741080Y33604200D01*
X47741080Y33604200D02*
X48336200Y34199320D01*
X48336200Y34199320D02*
X48336200Y35041080D01*
X48336200Y34841940D02*
X79324200Y34841940D01*
X79324200Y34436050D02*
X48336200Y34436050D01*
X48166780Y34029900D02*
X79493620Y34029900D01*
X79899510Y33624010D02*
X47760890Y33624010D01*
X46879510Y33624010D02*
X45220890Y33624010D01*
X45201080Y33604200D02*
X45796200Y34199320D01*
X45796200Y34199320D02*
X45796200Y35041080D01*
X45796200Y35041080D02*
X45201080Y35636200D01*
X45201080Y35636200D02*
X44359320Y35636200D01*
X44359320Y35636200D02*
X43764200Y35041080D01*
X43764200Y35041080D02*
X43764200Y34199320D01*
X43764200Y34199320D02*
X44359320Y33604200D01*
X44359320Y33604200D02*
X45201080Y33604200D01*
X45626780Y34029900D02*
X46473620Y34029900D01*
X46304200Y34436050D02*
X45796200Y34436050D01*
X45796200Y34841940D02*
X46304200Y34841940D01*
X46511210Y35248090D02*
X45589190Y35248090D01*
X43971210Y35248090D02*
X25647900Y35248090D01*
X25242010Y34841940D02*
X43764200Y34841940D01*
X43764200Y34436050D02*
X24835870Y34436050D01*
X24429970Y34029900D02*
X43933620Y34029900D01*
X44339510Y33624010D02*
X24023830Y33624010D01*
X12776200Y27421080D02*
X12776200Y26579320D01*
X12776200Y26579320D02*
X12181080Y25984200D01*
X12181080Y25984200D02*
X11339320Y25984200D01*
X11339320Y25984200D02*
X10744200Y26579320D01*
X10744200Y26579320D02*
X10744200Y27421080D01*
X10744200Y27421080D02*
X11339320Y28016200D01*
X11339320Y28016200D02*
X12181080Y28016200D01*
X12181080Y28016200D02*
X12776200Y27421080D01*
X12663680Y27533600D02*
X43876720Y27533600D01*
X43764200Y27421080D02*
X43764200Y26579320D01*
X43764200Y26579320D02*
X44359320Y25984200D01*
X44359320Y25984200D02*
X45201080Y25984200D01*
X45201080Y25984200D02*
X45796200Y26579320D01*
X45796200Y26579320D02*
X45796200Y27421080D01*
X45796200Y27421080D02*
X45201080Y28016200D01*
X45201080Y28016200D02*
X44359320Y28016200D01*
X44359320Y28016200D02*
X43764200Y27421080D01*
X43764200Y27127710D02*
X12776200Y27127710D01*
X12776200Y26721560D02*
X43764200Y26721560D01*
X44027850Y26315670D02*
X12512550Y26315670D01*
X11007850Y26315670D02*
X9972550Y26315670D01*
X10236200Y26579320D02*
X9641080Y25984200D01*
X9641080Y25984200D02*
X8799320Y25984200D01*
X8799320Y25984200D02*
X8204200Y26579320D01*
X8204200Y26579320D02*
X8204200Y27421080D01*
X8204200Y27421080D02*
X8799320Y28016200D01*
X8799320Y28016200D02*
X9641080Y28016200D01*
X9641080Y28016200D02*
X10236200Y27421080D01*
X10236200Y27421080D02*
X10236200Y26579320D01*
X10236200Y26721560D02*
X10744200Y26721560D01*
X10744200Y27127710D02*
X10236200Y27127710D01*
X10123680Y27533600D02*
X10856720Y27533600D01*
X11262870Y27939750D02*
X9717530Y27939750D01*
X8722870Y27939750D02*
X3511300Y27939750D01*
X3333240Y28117800D02*
X2407160Y28117800D01*
X2407160Y28117800D02*
X1752600Y27463240D01*
X1752600Y27463240D02*
X1752600Y26537160D01*
X1752600Y26537160D02*
X2407160Y25882600D01*
X2407160Y25882600D02*
X3333240Y25882600D01*
X3333240Y25882600D02*
X3987800Y26537160D01*
X3987800Y26537160D02*
X3987800Y27463240D01*
X3987800Y27463240D02*
X3333240Y28117800D01*
X3662170Y28751780D02*
X56182770Y28751780D01*
X56588660Y29157680D02*
X3987800Y29157680D01*
X3987800Y29563820D02*
X56994810Y29563820D01*
X57400700Y29969710D02*
X3987800Y29969710D01*
X3615180Y30375860D02*
X57806840Y30375860D01*
X58621930Y29969710D02*
X88112600Y29969710D01*
X88485220Y30375860D02*
X59028080Y30375860D01*
X58216040Y29563820D02*
X64919610Y29563820D01*
X64513460Y29157680D02*
X57809890Y29157680D01*
X57404000Y28751780D02*
X64107570Y28751780D01*
X63701420Y28345640D02*
X56997850Y28345640D01*
X56591960Y27939750D02*
X63295530Y27939750D01*
X62889380Y27533600D02*
X56185820Y27533600D01*
X55779920Y27127710D02*
X62483490Y27127710D01*
X62077350Y26721560D02*
X55373780Y26721560D01*
X54967890Y26315670D02*
X61671450Y26315670D01*
X61265310Y25909520D02*
X54561740Y25909520D01*
X54155850Y25503630D02*
X60859420Y25503630D01*
X60453270Y25097490D02*
X53749700Y25097490D01*
X53343810Y24691590D02*
X60047380Y24691590D01*
X59641230Y24285450D02*
X52937660Y24285450D01*
X52531770Y23879560D02*
X59235090Y23879560D01*
X58829190Y23473410D02*
X52125630Y23473410D01*
X51719730Y23067520D02*
X58423050Y23067520D01*
X58017160Y22661370D02*
X51313590Y22661370D01*
X50907700Y22255480D02*
X57611010Y22255480D01*
X57205120Y21849330D02*
X50501550Y21849330D01*
X50095660Y21443440D02*
X56798970Y21443440D01*
X56393080Y21037300D02*
X49689510Y21037300D01*
X49283620Y20631400D02*
X55986930Y20631400D01*
X55581040Y20225260D02*
X48877470Y20225260D01*
X48471580Y19819370D02*
X55174900Y19819370D01*
X54769000Y19413220D02*
X48336200Y19413220D01*
X48336200Y19007330D02*
X54362860Y19007330D01*
X53956970Y18601180D02*
X47978060Y18601180D01*
X46662340Y18601180D02*
X45438060Y18601180D01*
X45201080Y18364200D02*
X45796200Y18959320D01*
X45796200Y18959320D02*
X45796200Y19801080D01*
X45796200Y19801080D02*
X45201080Y20396200D01*
X45201080Y20396200D02*
X44359320Y20396200D01*
X44359320Y20396200D02*
X43764200Y19801080D01*
X43764200Y19801080D02*
X43764200Y18959320D01*
X43764200Y18959320D02*
X44359320Y18364200D01*
X44359320Y18364200D02*
X45201080Y18364200D01*
X45796200Y19007330D02*
X46304200Y19007330D01*
X46304200Y19413220D02*
X45796200Y19413220D01*
X45777910Y19819370D02*
X46322490Y19819370D01*
X46728380Y20225260D02*
X45372020Y20225260D01*
X44188380Y20225260D02*
X12495530Y20225260D01*
X12223240Y20497800D02*
X12877800Y19843240D01*
X12877800Y19843240D02*
X12877800Y19380200D01*
X12877800Y19380200D02*
X11760200Y19380200D01*
X11760200Y19380200D02*
X11760200Y19380200D01*
X11760200Y19380200D02*
X11760200Y19380200D01*
X11760200Y19380200D02*
X11760200Y20497800D01*
X11760200Y20497800D02*
X12223240Y20497800D01*
X11760200Y20497800D02*
X11297160Y20497800D01*
X11297160Y20497800D02*
X10642600Y19843240D01*
X10642600Y19843240D02*
X10642600Y19380200D01*
X10642600Y19380200D02*
X11760200Y19380200D01*
X11760200Y19380200D02*
X12877800Y19380200D01*
X12877800Y19380200D02*
X12877800Y18917160D01*
X12877800Y18917160D02*
X12223240Y18262600D01*
X12223240Y18262600D02*
X11760200Y18262600D01*
X11760200Y18262600D02*
X11760200Y19380200D01*
X11760200Y19380200D02*
X11760200Y19380200D01*
X11760200Y19380200D02*
X11760200Y19380200D01*
X11760200Y19380200D02*
X11760200Y20497800D01*
X11760200Y20225260D02*
X11760200Y20225260D01*
X11760200Y19819370D02*
X11760200Y19819370D01*
X11760200Y19413220D02*
X11760200Y19413220D01*
X11760200Y19380200D02*
X10642600Y19380200D01*
X10642600Y19380200D02*
X10642600Y18917160D01*
X10642600Y18917160D02*
X11297160Y18262600D01*
X11297160Y18262600D02*
X11760200Y18262600D01*
X11760200Y18262600D02*
X11760200Y19380200D01*
X11760200Y19007330D02*
X11760200Y19007330D01*
X11760200Y18601180D02*
X11760200Y18601180D01*
X12561820Y18601180D02*
X44122340Y18601180D01*
X43764200Y19007330D02*
X12877800Y19007330D01*
X12877800Y19413220D02*
X43764200Y19413220D01*
X43782490Y19819370D02*
X12877800Y19819370D01*
X11024870Y20225260D02*
X9812020Y20225260D01*
X9641080Y20396200D02*
X8799320Y20396200D01*
X8799320Y20396200D02*
X8204200Y19801080D01*
X8204200Y19801080D02*
X8204200Y18959320D01*
X8204200Y18959320D02*
X8799320Y18364200D01*
X8799320Y18364200D02*
X9641080Y18364200D01*
X9641080Y18364200D02*
X10236200Y18959320D01*
X10236200Y18959320D02*
X10236200Y19801080D01*
X10236200Y19801080D02*
X9641080Y20396200D01*
X10217910Y19819370D02*
X10642600Y19819370D01*
X10642600Y19413220D02*
X10236200Y19413220D01*
X10236200Y19007330D02*
X10642600Y19007330D01*
X10958580Y18601180D02*
X9878060Y18601180D01*
X8562340Y18601180D02*
X787400Y18601180D01*
X787400Y18195040D02*
X53550820Y18195040D01*
X53144930Y17789140D02*
X787400Y17789140D01*
X787400Y17383000D02*
X52738780Y17383000D01*
X52332890Y16977110D02*
X787400Y16977110D01*
X787400Y16570960D02*
X51926740Y16570960D01*
X51520850Y16165070D02*
X787400Y16165070D01*
X787400Y15758920D02*
X51114710Y15758920D01*
X50708810Y15353030D02*
X40228010Y15353030D01*
X40163240Y15417800D02*
X39700200Y15417800D01*
X39700200Y15417800D02*
X39700200Y14300200D01*
X39700200Y14300200D02*
X39700200Y14300200D01*
X39700200Y14300200D02*
X40817800Y14300200D01*
X40817800Y14300200D02*
X40817800Y14763240D01*
X40817800Y14763240D02*
X40163240Y15417800D01*
X39700200Y15417800D02*
X39237160Y15417800D01*
X39237160Y15417800D02*
X38582600Y14763240D01*
X38582600Y14763240D02*
X38582600Y14300200D01*
X38582600Y14300200D02*
X39700200Y14300200D01*
X39700200Y14300200D02*
X39700200Y14300200D01*
X39700200Y14300200D02*
X39700200Y14300200D01*
X39700200Y14300200D02*
X39700200Y15417800D01*
X39700200Y15353030D02*
X39700200Y15353030D01*
X39700200Y14946880D02*
X39700200Y14946880D01*
X39700200Y14540990D02*
X39700200Y14540990D01*
X39700200Y14300200D02*
X38582600Y14300200D01*
X38582600Y14300200D02*
X38582600Y13837160D01*
X38582600Y13837160D02*
X39237160Y13182600D01*
X39237160Y13182600D02*
X39700200Y13182600D01*
X39700200Y13182600D02*
X40163240Y13182600D01*
X40163240Y13182600D02*
X40817800Y13837160D01*
X40817800Y13837160D02*
X40817800Y14300200D01*
X40817800Y14300200D02*
X39700200Y14300200D01*
X39700200Y14300200D02*
X39700200Y13182600D01*
X39700200Y13182600D02*
X39700200Y14300200D01*
X39700200Y14300200D02*
X39700200Y14300200D01*
X39700200Y14134850D02*
X39700200Y14134850D01*
X39700200Y13728950D02*
X39700200Y13728950D01*
X39700200Y13322810D02*
X39700200Y13322810D01*
X40303450Y13322810D02*
X48678590Y13322810D01*
X48272700Y12916920D02*
X787400Y12916920D01*
X787400Y13322810D02*
X16380710Y13322810D01*
X16419320Y13284200D02*
X17261080Y13284200D01*
X17261080Y13284200D02*
X17856200Y13879320D01*
X17856200Y13879320D02*
X17856200Y14721080D01*
X17856200Y14721080D02*
X17261080Y15316200D01*
X17261080Y15316200D02*
X16419320Y15316200D01*
X16419320Y15316200D02*
X15824200Y14721080D01*
X15824200Y14721080D02*
X15824200Y13879320D01*
X15824200Y13879320D02*
X16419320Y13284200D01*
X16419320Y12776200D02*
X15824200Y12181080D01*
X15824200Y12181080D02*
X15824200Y11339320D01*
X15824200Y11339320D02*
X16419320Y10744200D01*
X16419320Y10744200D02*
X17261080Y10744200D01*
X17261080Y10744200D02*
X17856200Y11339320D01*
X17856200Y11339320D02*
X17856200Y12181080D01*
X17856200Y12181080D02*
X17261080Y12776200D01*
X17261080Y12776200D02*
X16419320Y12776200D01*
X16153890Y12510770D02*
X787400Y12510770D01*
X787400Y12104880D02*
X15824200Y12104880D01*
X15824200Y11698730D02*
X787400Y11698730D01*
X787400Y11292840D02*
X15870680Y11292840D01*
X16276830Y10886690D02*
X787400Y10886690D01*
X787400Y10480800D02*
X12460990Y10480800D01*
X12054840Y10074660D02*
X787400Y10074660D01*
X787400Y9668760D02*
X11648950Y9668760D01*
X11242800Y9262620D02*
X787400Y9262620D01*
X787400Y8856730D02*
X10836910Y8856730D01*
X10430760Y8450580D02*
X787400Y8450580D01*
X787400Y8044690D02*
X10024870Y8044690D01*
X10434070Y7232650D02*
X10732010Y7232650D01*
X10642600Y7143240D02*
X10642600Y6680200D01*
X10642600Y6680200D02*
X11760200Y6680200D01*
X11760200Y6680200D02*
X12877800Y6680200D01*
X12877800Y6680200D02*
X12877800Y7143240D01*
X12877800Y7143240D02*
X12223240Y7797800D01*
X12223240Y7797800D02*
X11760200Y7797800D01*
X11760200Y7797800D02*
X11760200Y6680200D01*
X11760200Y6680200D02*
X11760200Y6680200D01*
X11760200Y6680200D02*
X11760200Y6680200D01*
X11760200Y6680200D02*
X12877800Y6680200D01*
X12877800Y6680200D02*
X12877800Y6217160D01*
X12877800Y6217160D02*
X12223240Y5562600D01*
X12223240Y5562600D02*
X11760200Y5562600D01*
X11760200Y5562600D02*
X11760200Y6680200D01*
X11760200Y6680200D02*
X11760200Y6680200D01*
X11760200Y6680200D02*
X11760200Y6680200D01*
X11760200Y6680200D02*
X11760200Y7797800D01*
X11760200Y7797800D02*
X11297160Y7797800D01*
X11297160Y7797800D02*
X10642600Y7143240D01*
X10642600Y6826500D02*
X10236200Y6826500D01*
X10236200Y6420610D02*
X10642600Y6420610D01*
X10642600Y6217160D02*
X11297160Y5562600D01*
X11297160Y5562600D02*
X11760200Y5562600D01*
X11760200Y5562600D02*
X11760200Y6680200D01*
X11760200Y6680200D02*
X10642600Y6680200D01*
X10642600Y6680200D02*
X10642600Y6217160D01*
X10845290Y6014470D02*
X9991340Y6014470D01*
X8449060Y6014470D02*
X787400Y6014470D01*
X787400Y5608570D02*
X11251440Y5608570D01*
X11760200Y5608570D02*
X11760200Y5608570D01*
X11760200Y6014470D02*
X11760200Y6014470D01*
X11760200Y6420610D02*
X11760200Y6420610D01*
X11760200Y6826500D02*
X11760200Y6826500D01*
X11760200Y7232650D02*
X11760200Y7232650D01*
X11760200Y7638540D02*
X11760200Y7638540D01*
X12382250Y7638540D02*
X91491050Y7638540D01*
X91491050Y7232650D02*
X12788390Y7232650D01*
X12877800Y6826500D02*
X91491050Y6826500D01*
X91491050Y6420610D02*
X12877800Y6420610D01*
X12675110Y6014470D02*
X91491050Y6014470D01*
X91491050Y5608570D02*
X12268960Y5608570D01*
X11138150Y7638540D02*
X10839960Y7638540D01*
X11246100Y8044690D02*
X91491050Y8044690D01*
X91491050Y8450580D02*
X11652000Y8450580D01*
X12058140Y8856730D02*
X91491050Y8856730D01*
X91491050Y9262620D02*
X12464030Y9262620D01*
X12870180Y9668760D02*
X91491050Y9668760D01*
X91491050Y10074660D02*
X46651670Y10074660D01*
X47057820Y10480800D02*
X91491050Y10480800D01*
X91491050Y10886690D02*
X75823570Y10886690D01*
X75681080Y10744200D02*
X76276200Y11339320D01*
X76276200Y11339320D02*
X76276200Y12181080D01*
X76276200Y12181080D02*
X75681080Y12776200D01*
X75681080Y12776200D02*
X74839320Y12776200D01*
X74839320Y12776200D02*
X74244200Y12181080D01*
X74244200Y12181080D02*
X74244200Y11339320D01*
X74244200Y11339320D02*
X74839320Y10744200D01*
X74839320Y10744200D02*
X75681080Y10744200D01*
X76229720Y11292840D02*
X91491050Y11292840D01*
X91491050Y11698730D02*
X76276200Y11698730D01*
X76276200Y12104880D02*
X91491050Y12104880D01*
X91491050Y12510770D02*
X75946250Y12510770D01*
X75723240Y13182600D02*
X75260200Y13182600D01*
X75260200Y13182600D02*
X75260200Y14300200D01*
X75260200Y14300200D02*
X75260200Y14300200D01*
X75260200Y14300200D02*
X75260200Y15417800D01*
X75260200Y15417800D02*
X75723240Y15417800D01*
X75723240Y15417800D02*
X76377800Y14763240D01*
X76377800Y14763240D02*
X76377800Y14300200D01*
X76377800Y14300200D02*
X75260200Y14300200D01*
X75260200Y14300200D02*
X75260200Y14300200D01*
X75260200Y14300200D02*
X75260200Y14300200D01*
X75260200Y14300200D02*
X74142600Y14300200D01*
X74142600Y14300200D02*
X74142600Y14763240D01*
X74142600Y14763240D02*
X74797160Y15417800D01*
X74797160Y15417800D02*
X75260200Y15417800D01*
X75260200Y15417800D02*
X75260200Y14300200D01*
X75260200Y14300200D02*
X76377800Y14300200D01*
X76377800Y14300200D02*
X76377800Y13837160D01*
X76377800Y13837160D02*
X75723240Y13182600D01*
X75863450Y13322810D02*
X91491050Y13322810D01*
X91491050Y12916920D02*
X54218330Y12916920D01*
X54624480Y13322810D02*
X59560710Y13322810D01*
X59599320Y13284200D02*
X60441080Y13284200D01*
X60441080Y13284200D02*
X61036200Y13879320D01*
X61036200Y13879320D02*
X61036200Y14721080D01*
X61036200Y14721080D02*
X60441080Y15316200D01*
X60441080Y15316200D02*
X59599320Y15316200D01*
X59599320Y15316200D02*
X59004200Y14721080D01*
X59004200Y14721080D02*
X59004200Y13879320D01*
X59004200Y13879320D02*
X59599320Y13284200D01*
X59599320Y12776200D02*
X59004200Y12181080D01*
X59004200Y12181080D02*
X59004200Y11339320D01*
X59004200Y11339320D02*
X59599320Y10744200D01*
X59599320Y10744200D02*
X60441080Y10744200D01*
X60441080Y10744200D02*
X61036200Y11339320D01*
X61036200Y11339320D02*
X61036200Y12181080D01*
X61036200Y12181080D02*
X60441080Y12776200D01*
X60441080Y12776200D02*
X59599320Y12776200D01*
X59333890Y12510770D02*
X53812190Y12510770D01*
X53416200Y12114780D02*
X64212220Y22910800D01*
X64212220Y22910800D02*
X88291420Y22910800D01*
X88291420Y22910800D02*
X88745310Y23364700D01*
X88745310Y23364700D02*
X88767160Y23342600D01*
X88767160Y23342600D02*
X89693240Y23342600D01*
X89693240Y23342600D02*
X90347800Y23997160D01*
X90347800Y23997160D02*
X90347800Y24923240D01*
X90347800Y24923240D02*
X89693240Y25577800D01*
X89693240Y25577800D02*
X88767160Y25577800D01*
X88767160Y25577800D02*
X88112600Y24923240D01*
X88112600Y24923240D02*
X88112600Y23997160D01*
X88112600Y23997160D02*
X88134700Y23975310D01*
X88134700Y23975310D02*
X87933780Y23774400D01*
X87933780Y23774400D02*
X63854580Y23774400D01*
X63854580Y23774400D02*
X63601600Y23521420D01*
X63601600Y23521420D02*
X52838600Y12758420D01*
X52838600Y12758420D02*
X52821080Y12776200D01*
X52821080Y12776200D02*
X51979320Y12776200D01*
X51979320Y12776200D02*
X51384200Y12181080D01*
X51384200Y12181080D02*
X51384200Y11339320D01*
X51384200Y11339320D02*
X51979320Y10744200D01*
X51979320Y10744200D02*
X52821080Y10744200D01*
X52821080Y10744200D02*
X53416200Y11339320D01*
X53416200Y11339320D02*
X53416200Y12114780D01*
X53416200Y12104880D02*
X59004200Y12104880D01*
X59004200Y11698730D02*
X53416200Y11698730D01*
X53369720Y11292840D02*
X59050680Y11292840D01*
X59456830Y10886690D02*
X52963570Y10886690D01*
X51836830Y10886690D02*
X47463710Y10886690D01*
X47869860Y11292840D02*
X51430680Y11292840D01*
X51384200Y11698730D02*
X48275750Y11698730D01*
X48681890Y12104880D02*
X51384200Y12104880D01*
X51713890Y12510770D02*
X49087790Y12510770D01*
X49493930Y12916920D02*
X52997100Y12916920D01*
X52821080Y13284200D02*
X51979320Y13284200D01*
X51979320Y13284200D02*
X51384200Y13879320D01*
X51384200Y13879320D02*
X51384200Y14721080D01*
X51384200Y14721080D02*
X51979320Y15316200D01*
X51979320Y15316200D02*
X52821080Y15316200D01*
X52821080Y15316200D02*
X53416200Y14721080D01*
X53416200Y14721080D02*
X53416200Y13879320D01*
X53416200Y13879320D02*
X52821080Y13284200D01*
X52859690Y13322810D02*
X53402990Y13322810D01*
X53265830Y13728950D02*
X53809140Y13728950D01*
X53416200Y14134850D02*
X54215030Y14134850D01*
X54621180Y14540990D02*
X53416200Y14540990D01*
X53190140Y14946880D02*
X55027070Y14946880D01*
X55433210Y15353030D02*
X51930050Y15353030D01*
X51610260Y14946880D02*
X51524150Y14946880D01*
X51384200Y14540990D02*
X51118010Y14540990D01*
X51384200Y14134850D02*
X50712120Y14134850D01*
X50305970Y13728950D02*
X51534570Y13728950D01*
X51940710Y13322810D02*
X49900080Y13322810D01*
X49490630Y14134850D02*
X40817800Y14134850D01*
X40817800Y14540990D02*
X49896780Y14540990D01*
X50302670Y14946880D02*
X40633900Y14946880D01*
X39172390Y15353030D02*
X787400Y15353030D01*
X787400Y14946880D02*
X16050260Y14946880D01*
X15824200Y14540990D02*
X787400Y14540990D01*
X787400Y14134850D02*
X15824200Y14134850D01*
X15974570Y13728950D02*
X787400Y13728950D01*
X787400Y19007330D02*
X8204200Y19007330D01*
X8204200Y19413220D02*
X787400Y19413220D01*
X787400Y19819370D02*
X8222490Y19819370D01*
X8628380Y20225260D02*
X787400Y20225260D01*
X787400Y20631400D02*
X48062130Y20631400D01*
X48468280Y21037300D02*
X787400Y21037300D01*
X787400Y21443440D02*
X48874170Y21443440D01*
X49280320Y21849330D02*
X787400Y21849330D01*
X787400Y22255480D02*
X49686210Y22255480D01*
X50092360Y22661370D02*
X787400Y22661370D01*
X787400Y23067520D02*
X50498250Y23067520D01*
X50904390Y23473410D02*
X3607560Y23473410D01*
X3375150Y23241000D02*
X4089400Y23955250D01*
X4089400Y23955250D02*
X4089400Y24409400D01*
X4089400Y24409400D02*
X2921000Y24409400D01*
X2921000Y24409400D02*
X2921000Y24511000D01*
X2921000Y24511000D02*
X4089400Y24511000D01*
X4089400Y24511000D02*
X4089400Y24965150D01*
X4089400Y24965150D02*
X3375150Y25679400D01*
X3375150Y25679400D02*
X2921000Y25679400D01*
X2921000Y25679400D02*
X2921000Y24511000D01*
X2921000Y24511000D02*
X2819400Y24511000D01*
X2819400Y24511000D02*
X2819400Y25679400D01*
X2819400Y25679400D02*
X2365250Y25679400D01*
X2365250Y25679400D02*
X1651000Y24965150D01*
X1651000Y24965150D02*
X1651000Y24511000D01*
X1651000Y24511000D02*
X2819400Y24511000D01*
X2819400Y24511000D02*
X2819400Y24409400D01*
X2819400Y24409400D02*
X2921000Y24409400D01*
X2921000Y24409400D02*
X2921000Y23241000D01*
X2921000Y23241000D02*
X3375150Y23241000D01*
X2921000Y23473410D02*
X2819400Y23473410D01*
X2819400Y23241000D02*
X2819400Y24409400D01*
X2819400Y24409400D02*
X1651000Y24409400D01*
X1651000Y24409400D02*
X1651000Y23955250D01*
X1651000Y23955250D02*
X2365250Y23241000D01*
X2365250Y23241000D02*
X2819400Y23241000D01*
X2819400Y23879560D02*
X2921000Y23879560D01*
X2921000Y24285450D02*
X2819400Y24285450D01*
X2819400Y24691590D02*
X2921000Y24691590D01*
X2921000Y25097490D02*
X2819400Y25097490D01*
X2819400Y25503630D02*
X2921000Y25503630D01*
X3360170Y25909520D02*
X53340510Y25909520D01*
X52934620Y25503630D02*
X3550920Y25503630D01*
X3957070Y25097490D02*
X52528470Y25097490D01*
X52122580Y24691590D02*
X4089400Y24691590D01*
X4089400Y24285450D02*
X51716430Y24285450D01*
X51310540Y23879560D02*
X4013710Y23879560D01*
X2132840Y23473410D02*
X787400Y23473410D01*
X787400Y23879560D02*
X1726690Y23879560D01*
X1651000Y24285450D02*
X787400Y24285450D01*
X787400Y24691590D02*
X1651000Y24691590D01*
X1783330Y25097490D02*
X787400Y25097490D01*
X787400Y25503630D02*
X2189230Y25503630D01*
X2380230Y25909520D02*
X787400Y25909520D01*
X787400Y26315670D02*
X1974340Y26315670D01*
X1752600Y26721560D02*
X787400Y26721560D01*
X787400Y27127710D02*
X1752600Y27127710D01*
X1823210Y27533600D02*
X787400Y27533600D01*
X787400Y27939750D02*
X2229100Y27939750D01*
X2078230Y28751780D02*
X787400Y28751780D01*
X787400Y29157680D02*
X1752600Y29157680D01*
X1752600Y29563820D02*
X787400Y29563820D01*
X787400Y29969710D02*
X1752600Y29969710D01*
X787400Y28345640D02*
X55776620Y28345640D01*
X55370730Y27939750D02*
X47817530Y27939750D01*
X47741080Y28016200D02*
X46899320Y28016200D01*
X46899320Y28016200D02*
X46304200Y27421080D01*
X46304200Y27421080D02*
X46304200Y26579320D01*
X46304200Y26579320D02*
X46899320Y25984200D01*
X46899320Y25984200D02*
X47741080Y25984200D01*
X47741080Y25984200D02*
X48336200Y26579320D01*
X48336200Y26579320D02*
X48336200Y27421080D01*
X48336200Y27421080D02*
X47741080Y28016200D01*
X48223680Y27533600D02*
X54964580Y27533600D01*
X54558690Y27127710D02*
X48336200Y27127710D01*
X48336200Y26721560D02*
X54152550Y26721560D01*
X53746650Y26315670D02*
X48072550Y26315670D01*
X46567850Y26315670D02*
X45532550Y26315670D01*
X45796200Y26721560D02*
X46304200Y26721560D01*
X46304200Y27127710D02*
X45796200Y27127710D01*
X45683680Y27533600D02*
X46416720Y27533600D01*
X46822870Y27939750D02*
X45277530Y27939750D01*
X44282870Y27939750D02*
X12257530Y27939750D01*
X8316720Y27533600D02*
X3917190Y27533600D01*
X3987800Y27127710D02*
X8204200Y27127710D01*
X8204200Y26721560D02*
X3987800Y26721560D01*
X3766060Y26315670D02*
X8467850Y26315670D01*
X17630140Y14946880D02*
X23670260Y14946880D01*
X23444200Y14721080D02*
X23444200Y13879320D01*
X23444200Y13879320D02*
X24039320Y13284200D01*
X24039320Y13284200D02*
X24881080Y13284200D01*
X24881080Y13284200D02*
X25476200Y13879320D01*
X25476200Y13879320D02*
X25476200Y14721080D01*
X25476200Y14721080D02*
X24881080Y15316200D01*
X24881080Y15316200D02*
X24039320Y15316200D01*
X24039320Y15316200D02*
X23444200Y14721080D01*
X23444200Y14540990D02*
X17856200Y14540990D01*
X17856200Y14134850D02*
X23444200Y14134850D01*
X23594570Y13728950D02*
X17705830Y13728950D01*
X17299690Y13322810D02*
X24000710Y13322810D01*
X24039320Y12776200D02*
X23444200Y12181080D01*
X23444200Y12181080D02*
X23444200Y11339320D01*
X23444200Y11339320D02*
X24039320Y10744200D01*
X24039320Y10744200D02*
X24881080Y10744200D01*
X24881080Y10744200D02*
X25476200Y11339320D01*
X25476200Y11339320D02*
X25476200Y12181080D01*
X25476200Y12181080D02*
X24881080Y12776200D01*
X24881080Y12776200D02*
X24039320Y12776200D01*
X23773890Y12510770D02*
X17526250Y12510770D01*
X17856200Y12104880D02*
X23444200Y12104880D01*
X23444200Y11698730D02*
X17856200Y11698730D01*
X17809720Y11292840D02*
X23490680Y11292840D01*
X23896830Y10886690D02*
X17403570Y10886690D01*
X25023570Y10886690D02*
X31516830Y10886690D01*
X31659320Y10744200D02*
X32501080Y10744200D01*
X32501080Y10744200D02*
X33096200Y11339320D01*
X33096200Y11339320D02*
X33096200Y12181080D01*
X33096200Y12181080D02*
X32501080Y12776200D01*
X32501080Y12776200D02*
X31659320Y12776200D01*
X31659320Y12776200D02*
X31064200Y12181080D01*
X31064200Y12181080D02*
X31064200Y11339320D01*
X31064200Y11339320D02*
X31659320Y10744200D01*
X31110680Y11292840D02*
X25429720Y11292840D01*
X25476200Y11698730D02*
X31064200Y11698730D01*
X31064200Y12104880D02*
X25476200Y12104880D01*
X25146250Y12510770D02*
X31393890Y12510770D01*
X32766250Y12510770D02*
X39013890Y12510770D01*
X39279320Y12776200D02*
X38684200Y12181080D01*
X38684200Y12181080D02*
X38684200Y11339320D01*
X38684200Y11339320D02*
X39279320Y10744200D01*
X39279320Y10744200D02*
X40121080Y10744200D01*
X40121080Y10744200D02*
X40716200Y11339320D01*
X40716200Y11339320D02*
X40716200Y12181080D01*
X40716200Y12181080D02*
X40121080Y12776200D01*
X40121080Y12776200D02*
X39279320Y12776200D01*
X39096950Y13322810D02*
X32539690Y13322810D01*
X32501080Y13284200D02*
X33096200Y13879320D01*
X33096200Y13879320D02*
X33096200Y14721080D01*
X33096200Y14721080D02*
X32501080Y15316200D01*
X32501080Y15316200D02*
X31659320Y15316200D01*
X31659320Y15316200D02*
X31064200Y14721080D01*
X31064200Y14721080D02*
X31064200Y13879320D01*
X31064200Y13879320D02*
X31659320Y13284200D01*
X31659320Y13284200D02*
X32501080Y13284200D01*
X32945830Y13728950D02*
X38691060Y13728950D01*
X38582600Y14134850D02*
X33096200Y14134850D01*
X33096200Y14540990D02*
X38582600Y14540990D01*
X38766500Y14946880D02*
X32870140Y14946880D01*
X31290260Y14946880D02*
X25250140Y14946880D01*
X25476200Y14540990D02*
X31064200Y14540990D01*
X31064200Y14134850D02*
X25476200Y14134850D01*
X25325830Y13728950D02*
X31214570Y13728950D01*
X31620710Y13322810D02*
X24919690Y13322810D01*
X32643570Y10886690D02*
X39136830Y10886690D01*
X38730680Y11292840D02*
X33049720Y11292840D01*
X33096200Y11698730D02*
X38684200Y11698730D01*
X38684200Y12104880D02*
X33096200Y12104880D01*
X40263570Y10886690D02*
X46242480Y10886690D01*
X46648620Y11292840D02*
X40669720Y11292840D01*
X40716200Y11698730D02*
X47054520Y11698730D01*
X47460660Y12104880D02*
X40716200Y12104880D01*
X40386250Y12510770D02*
X47866550Y12510770D01*
X49084740Y13728950D02*
X40709340Y13728950D01*
X52336190Y15758920D02*
X55839110Y15758920D01*
X56245250Y16165070D02*
X52742080Y16165070D01*
X53148230Y16570960D02*
X56651140Y16570960D01*
X57057290Y16977110D02*
X53554120Y16977110D01*
X53960270Y17383000D02*
X57463180Y17383000D01*
X57869330Y17789140D02*
X54366160Y17789140D01*
X54772310Y18195040D02*
X58275220Y18195040D01*
X58681370Y18601180D02*
X55178200Y18601180D01*
X55584340Y19007330D02*
X59087260Y19007330D01*
X59493400Y19413220D02*
X55990240Y19413220D01*
X56396380Y19819370D02*
X59899300Y19819370D01*
X60305440Y20225260D02*
X56802270Y20225260D01*
X57208420Y20631400D02*
X60711330Y20631400D01*
X61117480Y21037300D02*
X57614310Y21037300D01*
X58020460Y21443440D02*
X61523370Y21443440D01*
X61929520Y21849330D02*
X58426350Y21849330D01*
X58832500Y22255480D02*
X62335410Y22255480D01*
X62741560Y22661370D02*
X59238390Y22661370D01*
X59644530Y23067520D02*
X63147450Y23067520D01*
X63553590Y23473410D02*
X60050430Y23473410D01*
X60456570Y23879560D02*
X88038940Y23879560D01*
X88112600Y24285450D02*
X60862460Y24285450D01*
X61268610Y24691590D02*
X88112600Y24691590D01*
X88287100Y25097490D02*
X61674500Y25097490D01*
X62080650Y25503630D02*
X88692990Y25503630D01*
X88767160Y25882600D02*
X89693240Y25882600D01*
X89693240Y25882600D02*
X90347800Y26537160D01*
X90347800Y26537160D02*
X90347800Y27463240D01*
X90347800Y27463240D02*
X89693240Y28117800D01*
X89693240Y28117800D02*
X88767160Y28117800D01*
X88767160Y28117800D02*
X88112600Y27463240D01*
X88112600Y27463240D02*
X88112600Y26537160D01*
X88112600Y26537160D02*
X88767160Y25882600D01*
X88740230Y25909520D02*
X62486540Y25909520D01*
X62892690Y26315670D02*
X79587850Y26315670D01*
X79324200Y26579320D02*
X79919320Y25984200D01*
X79919320Y25984200D02*
X80761080Y25984200D01*
X80761080Y25984200D02*
X81356200Y26579320D01*
X81356200Y26579320D02*
X81356200Y27421080D01*
X81356200Y27421080D02*
X80761080Y28016200D01*
X80761080Y28016200D02*
X79919320Y28016200D01*
X79919320Y28016200D02*
X79324200Y27421080D01*
X79324200Y27421080D02*
X79324200Y26579320D01*
X79324200Y26721560D02*
X63298580Y26721560D01*
X63704720Y27127710D02*
X79324200Y27127710D01*
X79436720Y27533600D02*
X64110620Y27533600D01*
X64516760Y27939750D02*
X79842870Y27939750D01*
X80837530Y27939750D02*
X82382870Y27939750D01*
X82459320Y28016200D02*
X81864200Y27421080D01*
X81864200Y27421080D02*
X81864200Y26579320D01*
X81864200Y26579320D02*
X82459320Y25984200D01*
X82459320Y25984200D02*
X83301080Y25984200D01*
X83301080Y25984200D02*
X83896200Y26579320D01*
X83896200Y26579320D02*
X83896200Y27421080D01*
X83896200Y27421080D02*
X83301080Y28016200D01*
X83301080Y28016200D02*
X82459320Y28016200D01*
X81976720Y27533600D02*
X81243680Y27533600D01*
X81356200Y27127710D02*
X81864200Y27127710D01*
X81864200Y26721560D02*
X81356200Y26721560D01*
X81092550Y26315670D02*
X82127850Y26315670D01*
X83632550Y26315670D02*
X88334340Y26315670D01*
X88112600Y26721560D02*
X83896200Y26721560D01*
X83896200Y27127710D02*
X88112600Y27127710D01*
X88183210Y27533600D02*
X83783680Y27533600D01*
X83377530Y27939750D02*
X88589100Y27939750D01*
X89871300Y27939750D02*
X91491050Y27939750D01*
X91491050Y28345640D02*
X64922650Y28345640D01*
X65328800Y28751780D02*
X88438230Y28751780D01*
X90022170Y28751780D02*
X91491050Y28751780D01*
X91491050Y29157680D02*
X90347800Y29157680D01*
X90347800Y29563820D02*
X91491050Y29563820D01*
X91491050Y29969710D02*
X90347800Y29969710D01*
X90277190Y27533600D02*
X91491050Y27533600D01*
X91491050Y27127710D02*
X90347800Y27127710D01*
X90347800Y26721560D02*
X91491050Y26721560D01*
X91491050Y26315670D02*
X90126060Y26315670D01*
X89720170Y25909520D02*
X91491050Y25909520D01*
X91491050Y25503630D02*
X89767410Y25503630D01*
X90173300Y25097490D02*
X91491050Y25097490D01*
X91491050Y24691590D02*
X90347800Y24691590D01*
X90347800Y24285450D02*
X91491050Y24285450D01*
X91491050Y23879560D02*
X90229940Y23879560D01*
X89824050Y23473410D02*
X91491050Y23473410D01*
X91491050Y23067520D02*
X88448130Y23067520D01*
X91491050Y22661370D02*
X63962790Y22661370D01*
X63556900Y22255480D02*
X91491050Y22255480D01*
X91491050Y21849330D02*
X63150750Y21849330D01*
X62744860Y21443440D02*
X91491050Y21443440D01*
X91491050Y21037300D02*
X62338710Y21037300D01*
X61932820Y20631400D02*
X91491050Y20631400D01*
X91491050Y20225260D02*
X83472020Y20225260D01*
X83301080Y20396200D02*
X83896200Y19801080D01*
X83896200Y19801080D02*
X83896200Y18959320D01*
X83896200Y18959320D02*
X83301080Y18364200D01*
X83301080Y18364200D02*
X82459320Y18364200D01*
X82459320Y18364200D02*
X81864200Y18959320D01*
X81864200Y18959320D02*
X81864200Y19801080D01*
X81864200Y19801080D02*
X82459320Y20396200D01*
X82459320Y20396200D02*
X83301080Y20396200D01*
X83877910Y19819370D02*
X91491050Y19819370D01*
X91491050Y19413220D02*
X83896200Y19413220D01*
X83896200Y19007330D02*
X91491050Y19007330D01*
X91491050Y18601180D02*
X83538060Y18601180D01*
X82222340Y18601180D02*
X80998060Y18601180D01*
X80761080Y18364200D02*
X81356200Y18959320D01*
X81356200Y18959320D02*
X81356200Y19801080D01*
X81356200Y19801080D02*
X80761080Y20396200D01*
X80761080Y20396200D02*
X79919320Y20396200D01*
X79919320Y20396200D02*
X79324200Y19801080D01*
X79324200Y19801080D02*
X79324200Y18959320D01*
X79324200Y18959320D02*
X79919320Y18364200D01*
X79919320Y18364200D02*
X80761080Y18364200D01*
X81356200Y19007330D02*
X81864200Y19007330D01*
X81864200Y19413220D02*
X81356200Y19413220D01*
X81337910Y19819370D02*
X81882490Y19819370D01*
X82288380Y20225260D02*
X80932020Y20225260D01*
X79748380Y20225260D02*
X61526670Y20225260D01*
X61120780Y19819370D02*
X79342490Y19819370D01*
X79324200Y19413220D02*
X60714640Y19413220D01*
X60308740Y19007330D02*
X79324200Y19007330D01*
X79682340Y18601180D02*
X59902600Y18601180D01*
X59496710Y18195040D02*
X91491050Y18195040D01*
X91491050Y17789140D02*
X59090560Y17789140D01*
X58684670Y17383000D02*
X91491050Y17383000D01*
X91491050Y16977110D02*
X58278520Y16977110D01*
X57872630Y16570960D02*
X91491050Y16570960D01*
X91491050Y16165070D02*
X57466480Y16165070D01*
X57060590Y15758920D02*
X91491050Y15758920D01*
X91491050Y15353030D02*
X75788010Y15353030D01*
X75260200Y15353030D02*
X75260200Y15353030D01*
X75260200Y14946880D02*
X75260200Y14946880D01*
X75260200Y14540990D02*
X75260200Y14540990D01*
X75260200Y14300200D02*
X74142600Y14300200D01*
X74142600Y14300200D02*
X74142600Y13837160D01*
X74142600Y13837160D02*
X74797160Y13182600D01*
X74797160Y13182600D02*
X75260200Y13182600D01*
X75260200Y13182600D02*
X75260200Y14300200D01*
X75260200Y14300200D02*
X75260200Y14300200D01*
X75260200Y14134850D02*
X75260200Y14134850D01*
X75260200Y13728950D02*
X75260200Y13728950D01*
X75260200Y13322810D02*
X75260200Y13322810D01*
X74656950Y13322810D02*
X68099690Y13322810D01*
X68061080Y13284200D02*
X68656200Y13879320D01*
X68656200Y13879320D02*
X68656200Y14721080D01*
X68656200Y14721080D02*
X68061080Y15316200D01*
X68061080Y15316200D02*
X67219320Y15316200D01*
X67219320Y15316200D02*
X66624200Y14721080D01*
X66624200Y14721080D02*
X66624200Y13879320D01*
X66624200Y13879320D02*
X67219320Y13284200D01*
X67219320Y13284200D02*
X68061080Y13284200D01*
X68061080Y12776200D02*
X67219320Y12776200D01*
X67219320Y12776200D02*
X66624200Y12181080D01*
X66624200Y12181080D02*
X66624200Y11339320D01*
X66624200Y11339320D02*
X67219320Y10744200D01*
X67219320Y10744200D02*
X68061080Y10744200D01*
X68061080Y10744200D02*
X68656200Y11339320D01*
X68656200Y11339320D02*
X68656200Y12181080D01*
X68656200Y12181080D02*
X68061080Y12776200D01*
X68326250Y12510770D02*
X74573890Y12510770D01*
X74244200Y12104880D02*
X68656200Y12104880D01*
X68656200Y11698730D02*
X74244200Y11698730D01*
X74290680Y11292840D02*
X68609720Y11292840D01*
X68203570Y10886690D02*
X74696830Y10886690D01*
X74251060Y13728950D02*
X68505830Y13728950D01*
X68656200Y14134850D02*
X74142600Y14134850D01*
X74142600Y14540990D02*
X68656200Y14540990D01*
X68430140Y14946880D02*
X74326500Y14946880D01*
X74732390Y15353030D02*
X56654450Y15353030D01*
X56248550Y14946880D02*
X59230260Y14946880D01*
X59004200Y14540990D02*
X55842410Y14540990D01*
X55436520Y14134850D02*
X59004200Y14134850D01*
X59154570Y13728950D02*
X55030370Y13728950D01*
X60479690Y13322810D02*
X67180710Y13322810D01*
X66774570Y13728950D02*
X60885830Y13728950D01*
X61036200Y14134850D02*
X66624200Y14134850D01*
X66624200Y14540990D02*
X61036200Y14540990D01*
X60810140Y14946880D02*
X66850260Y14946880D01*
X66953890Y12510770D02*
X60706250Y12510770D01*
X61036200Y12104880D02*
X66624200Y12104880D01*
X66624200Y11698730D02*
X61036200Y11698730D01*
X60989720Y11292840D02*
X66670680Y11292840D01*
X67076830Y10886690D02*
X60583570Y10886690D01*
X76269340Y13728950D02*
X91491050Y13728950D01*
X91491050Y14134850D02*
X76377800Y14134850D01*
X76377800Y14540990D02*
X91491050Y14540990D01*
X91491050Y14946880D02*
X76193900Y14946880D01*
X91491050Y5202430D02*
X787400Y5202430D01*
X787400Y4796540D02*
X91491050Y4796540D01*
X91491050Y4390390D02*
X787400Y4390390D01*
X787400Y3984500D02*
X91491050Y3984500D01*
X91491050Y3578350D02*
X787400Y3578350D01*
X787400Y3172460D02*
X91491050Y3172460D01*
X91491050Y2766310D02*
X787400Y2766310D01*
X787400Y2360420D02*
X91491050Y2360420D01*
X91491050Y1954280D02*
X787400Y1954280D01*
X787400Y1548380D02*
X91491050Y1548380D01*
X91491050Y1142240D02*
X787400Y1142240D01*
X787400Y6420610D02*
X8204200Y6420610D01*
X8204200Y6826500D02*
X787400Y6826500D01*
X787400Y7232650D02*
X8335770Y7232650D01*
X8741660Y7638540D02*
X787400Y7638540D01*
X48129190Y35248090D02*
X79531210Y35248090D01*
X89814400Y33624010D02*
X91491050Y33624010D01*
X91491050Y34029900D02*
X90220550Y34029900D01*
X23726900Y46616620D02*
X17717260Y46616620D01*
X17957800Y47022770D02*
X23444200Y47022770D01*
X23444200Y47428660D02*
X17957800Y47428660D01*
X17906240Y47834800D02*
X23537930Y47834800D01*
X23444200Y49458880D02*
X17856200Y49458880D01*
X17856200Y49864770D02*
X23444200Y49864770D01*
X23444200Y50270920D02*
X17856200Y50270920D01*
X17460210Y50676810D02*
X23840190Y50676810D01*
X16220190Y50676810D02*
X787400Y50676810D01*
X787400Y50270920D02*
X15824200Y50270920D01*
X15824200Y49864770D02*
X787400Y49864770D01*
X787400Y49458880D02*
X15824200Y49458880D01*
X16180310Y48240700D02*
X787400Y48240700D01*
X787400Y47834800D02*
X15774160Y47834800D01*
X15722600Y47428660D02*
X787400Y47428660D01*
X787400Y47022770D02*
X15722600Y47022770D01*
X15963140Y46616620D02*
X787400Y46616620D01*
X787400Y46210730D02*
X16369280Y46210730D01*
D13*
X22885400Y33096200D02*
X3987800Y33096200D01*
X3987800Y33096200D02*
X2921000Y32029400D01*
X2921000Y32029400D02*
X2870200Y32080200D01*
X22885400Y33096200D02*
X39649400Y49860200D01*
X39649400Y49860200D02*
X39700200Y49860200D01*
X61137800Y33096200D02*
X86436200Y33096200D01*
X86436200Y33096200D02*
X87960200Y34620200D01*
X87960200Y34620200D02*
X89230200Y34620200D01*
X81864200Y36296600D02*
X81864200Y41325800D01*
X81864200Y41325800D02*
X82778600Y42240200D01*
X82778600Y42240200D02*
X82880200Y42240200D01*
X81864200Y36296600D02*
X80645000Y35077400D01*
X80645000Y35077400D02*
X80645000Y34925000D01*
X80645000Y34925000D02*
X80340200Y34620200D01*
X89230200Y29540200D02*
X89179400Y29438600D01*
X89179400Y29438600D02*
X65405000Y29438600D01*
X65405000Y29438600D02*
X46202600Y10236200D01*
X46202600Y10236200D02*
X12827000Y10236200D01*
X12827000Y10236200D02*
X9321800Y6731000D01*
X9321800Y6731000D02*
X9220200Y6680200D01*
X47320200Y19380200D02*
X47421800Y19380200D01*
X47421800Y19380200D02*
X61137800Y33096200D01*
X64033400Y23342600D02*
X88112600Y23342600D01*
X88112600Y23342600D02*
X89230200Y24460200D01*
X64033400Y23342600D02*
X52451000Y11760200D01*
X52451000Y11760200D02*
X52400200Y11760200D01*
%TD*%
M02*
