%TF.GenerationSoftware,KiCad,Pcbnew,9.0.6*%
%TF.CreationDate,2025-12-15T20:52:38+09:00*%
%TF.ProjectId,__ __,1ca920c6-4c2e-46b6-9963-61645f706362,rev?*%
%TF.SameCoordinates,Original*%
%TF.FileFunction,Soldermask,Bot*%
%TF.FilePolarity,Negative*%
%FSLAX46Y46*%
G04 Gerber Fmt 4.6, Leading zero omitted, Abs format (unit mm)*
G04 Created by KiCad (PCBNEW 9.0.6) date 2025-12-15 20:52:38*
%MOMM*%
%LPD*%
G01*
G04 APERTURE LIST*
%ADD10C,0.100000*%
%ADD11C,0.000000*%
G04 APERTURE END LIST*
D10*
X330200Y330200D02*
X330200Y54676290D01*
X330200Y54676290D02*
X91948250Y54676290D01*
X91948250Y54676290D02*
X91948250Y330200D01*
X91948250Y330200D02*
X330200Y330200D01*
D11*
G36*
X9931390Y6974790D02*
G01*
X9931390Y6385620D01*
X9514790Y5969010D01*
X8925620Y5969010D01*
X8509010Y6385610D01*
X8509010Y6974780D01*
X8925610Y7391390D01*
X9514780Y7391390D01*
X9931390Y6974790D01*
G37*
G36*
X12471390Y6974790D02*
G01*
X12471390Y6385620D01*
X12054790Y5969010D01*
X11465620Y5969010D01*
X11049010Y6385610D01*
X11049010Y6974780D01*
X11465610Y7391390D01*
X12054780Y7391390D01*
X12471390Y6974790D01*
G37*
G36*
X17551390Y12054790D02*
G01*
X17551390Y11465620D01*
X17134790Y11049010D01*
X16545620Y11049010D01*
X16129010Y11465610D01*
X16129010Y12054780D01*
X16545610Y12471390D01*
X17134780Y12471390D01*
X17551390Y12054790D01*
G37*
G36*
X17551390Y14594790D02*
G01*
X17551390Y14005620D01*
X17134790Y13589010D01*
X16545620Y13589010D01*
X16129010Y14005610D01*
X16129010Y14594780D01*
X16545610Y15011390D01*
X17134780Y15011390D01*
X17551390Y14594790D01*
G37*
G36*
X25171390Y14594790D02*
G01*
X25171390Y14005620D01*
X24754790Y13589010D01*
X24165620Y13589010D01*
X23749010Y14005610D01*
X23749010Y14594780D01*
X24165610Y15011390D01*
X24754780Y15011390D01*
X25171390Y14594790D01*
G37*
G36*
X25171390Y12054790D02*
G01*
X25171390Y11465620D01*
X24754790Y11049010D01*
X24165620Y11049010D01*
X23749010Y11465610D01*
X23749010Y12054780D01*
X24165610Y12471390D01*
X24754780Y12471390D01*
X25171390Y12054790D01*
G37*
G36*
X32791390Y12054790D02*
G01*
X32791390Y11465620D01*
X32374790Y11049010D01*
X31785620Y11049010D01*
X31369010Y11465610D01*
X31369010Y12054780D01*
X31785610Y12471390D01*
X32374780Y12471390D01*
X32791390Y12054790D01*
G37*
G36*
X32791390Y14594790D02*
G01*
X32791390Y14005620D01*
X32374790Y13589010D01*
X31785620Y13589010D01*
X31369010Y14005610D01*
X31369010Y14594780D01*
X31785610Y15011390D01*
X32374780Y15011390D01*
X32791390Y14594790D01*
G37*
G36*
X40411390Y14594790D02*
G01*
X40411390Y14005620D01*
X39994790Y13589010D01*
X39405620Y13589010D01*
X38989010Y14005610D01*
X38989010Y14594780D01*
X39405610Y15011390D01*
X39994780Y15011390D01*
X40411390Y14594790D01*
G37*
G36*
X40411390Y12054790D02*
G01*
X40411390Y11465620D01*
X39994790Y11049010D01*
X39405620Y11049010D01*
X38989010Y11465610D01*
X38989010Y12054780D01*
X39405610Y12471390D01*
X39994780Y12471390D01*
X40411390Y12054790D01*
G37*
G36*
X53111390Y12054790D02*
G01*
X53111390Y11465620D01*
X52694790Y11049010D01*
X52105620Y11049010D01*
X51689010Y11465610D01*
X51689010Y12054780D01*
X52105610Y12471390D01*
X52694780Y12471390D01*
X53111390Y12054790D01*
G37*
G36*
X53111390Y14594790D02*
G01*
X53111390Y14005620D01*
X52694790Y13589010D01*
X52105620Y13589010D01*
X51689010Y14005610D01*
X51689010Y14594780D01*
X52105610Y15011390D01*
X52694780Y15011390D01*
X53111390Y14594790D01*
G37*
G36*
X48031390Y19674790D02*
G01*
X48031390Y19085620D01*
X47614790Y18669010D01*
X47025620Y18669010D01*
X46609010Y19085610D01*
X46609010Y19674780D01*
X47025610Y20091390D01*
X47614780Y20091390D01*
X48031390Y19674790D01*
G37*
G36*
X45491390Y19674790D02*
G01*
X45491390Y19085620D01*
X45074790Y18669010D01*
X44485620Y18669010D01*
X44069010Y19085610D01*
X44069010Y19674780D01*
X44485610Y20091390D01*
X45074780Y20091390D01*
X45491390Y19674790D01*
G37*
G36*
X45491390Y27294790D02*
G01*
X45491390Y26705620D01*
X45074790Y26289010D01*
X44485620Y26289010D01*
X44069010Y26705610D01*
X44069010Y27294780D01*
X44485610Y27711390D01*
X45074780Y27711390D01*
X45491390Y27294790D01*
G37*
G36*
X48031390Y27294790D02*
G01*
X48031390Y26705620D01*
X47614790Y26289010D01*
X47025620Y26289010D01*
X46609010Y26705610D01*
X46609010Y27294780D01*
X47025610Y27711390D01*
X47614780Y27711390D01*
X48031390Y27294790D01*
G37*
G36*
X48031390Y34914790D02*
G01*
X48031390Y34325620D01*
X47614790Y33909010D01*
X47025620Y33909010D01*
X46609010Y34325610D01*
X46609010Y34914780D01*
X47025610Y35331390D01*
X47614780Y35331390D01*
X48031390Y34914790D01*
G37*
G36*
X45491390Y34914790D02*
G01*
X45491390Y34325620D01*
X45074790Y33909010D01*
X44485620Y33909010D01*
X44069010Y34325610D01*
X44069010Y34914780D01*
X44485610Y35331390D01*
X45074780Y35331390D01*
X45491390Y34914790D01*
G37*
G36*
X45491390Y42534790D02*
G01*
X45491390Y41945620D01*
X45074790Y41529010D01*
X44485620Y41529010D01*
X44069010Y41945610D01*
X44069010Y42534780D01*
X44485610Y42951390D01*
X45074780Y42951390D01*
X45491390Y42534790D01*
G37*
G36*
X48031390Y42534790D02*
G01*
X48031390Y41945620D01*
X47614790Y41529010D01*
X47025620Y41529010D01*
X46609010Y41945610D01*
X46609010Y42534780D01*
X47025610Y42951390D01*
X47614780Y42951390D01*
X48031390Y42534790D01*
G37*
G36*
X53111390Y47614790D02*
G01*
X53111390Y47025620D01*
X52694790Y46609010D01*
X52105620Y46609010D01*
X51689010Y47025610D01*
X51689010Y47614780D01*
X52105610Y48031390D01*
X52694780Y48031390D01*
X53111390Y47614790D01*
G37*
G36*
X53111390Y50154790D02*
G01*
X53111390Y49565620D01*
X52694790Y49149010D01*
X52105620Y49149010D01*
X51689010Y49565610D01*
X51689010Y50154780D01*
X52105610Y50571390D01*
X52694780Y50571390D01*
X53111390Y50154790D01*
G37*
G36*
X60731390Y50154790D02*
G01*
X60731390Y49565620D01*
X60314790Y49149010D01*
X59725620Y49149010D01*
X59309010Y49565610D01*
X59309010Y50154780D01*
X59725610Y50571390D01*
X60314780Y50571390D01*
X60731390Y50154790D01*
G37*
G36*
X60731390Y47614790D02*
G01*
X60731390Y47025620D01*
X60314790Y46609010D01*
X59725620Y46609010D01*
X59309010Y47025610D01*
X59309010Y47614780D01*
X59725610Y48031390D01*
X60314780Y48031390D01*
X60731390Y47614790D01*
G37*
G36*
X68351390Y47614790D02*
G01*
X68351390Y47025620D01*
X67934790Y46609010D01*
X67345620Y46609010D01*
X66929010Y47025610D01*
X66929010Y47614780D01*
X67345610Y48031390D01*
X67934780Y48031390D01*
X68351390Y47614790D01*
G37*
G36*
X68351390Y50154790D02*
G01*
X68351390Y49565620D01*
X67934790Y49149010D01*
X67345620Y49149010D01*
X66929010Y49565610D01*
X66929010Y50154780D01*
X67345610Y50571390D01*
X67934780Y50571390D01*
X68351390Y50154790D01*
G37*
G36*
X75971390Y50154790D02*
G01*
X75971390Y49565620D01*
X75554790Y49149010D01*
X74965620Y49149010D01*
X74549010Y49565610D01*
X74549010Y50154780D01*
X74965610Y50571390D01*
X75554780Y50571390D01*
X75971390Y50154790D01*
G37*
G36*
X75971390Y47614790D02*
G01*
X75971390Y47025620D01*
X75554790Y46609010D01*
X74965620Y46609010D01*
X74549010Y47025610D01*
X74549010Y47614780D01*
X74965610Y48031390D01*
X75554780Y48031390D01*
X75971390Y47614790D01*
G37*
G36*
X81051390Y42534790D02*
G01*
X81051390Y41945620D01*
X80634790Y41529010D01*
X80045620Y41529010D01*
X79629010Y41945610D01*
X79629010Y42534780D01*
X80045610Y42951390D01*
X80634780Y42951390D01*
X81051390Y42534790D01*
G37*
G36*
X83591390Y42534790D02*
G01*
X83591390Y41945620D01*
X83174790Y41529010D01*
X82585620Y41529010D01*
X82169010Y41945610D01*
X82169010Y42534780D01*
X82585610Y42951390D01*
X83174780Y42951390D01*
X83591390Y42534790D01*
G37*
G36*
X83591390Y34914790D02*
G01*
X83591390Y34325620D01*
X83174790Y33909010D01*
X82585620Y33909010D01*
X82169010Y34325610D01*
X82169010Y34914780D01*
X82585610Y35331390D01*
X83174780Y35331390D01*
X83591390Y34914790D01*
G37*
G36*
X81051390Y34914790D02*
G01*
X81051390Y34325620D01*
X80634790Y33909010D01*
X80045620Y33909010D01*
X79629010Y34325610D01*
X79629010Y34914780D01*
X80045610Y35331390D01*
X80634780Y35331390D01*
X81051390Y34914790D01*
G37*
G36*
X81051390Y27294790D02*
G01*
X81051390Y26705620D01*
X80634790Y26289010D01*
X80045620Y26289010D01*
X79629010Y26705610D01*
X79629010Y27294780D01*
X80045610Y27711390D01*
X80634780Y27711390D01*
X81051390Y27294790D01*
G37*
G36*
X83591390Y27294790D02*
G01*
X83591390Y26705620D01*
X83174790Y26289010D01*
X82585620Y26289010D01*
X82169010Y26705610D01*
X82169010Y27294780D01*
X82585610Y27711390D01*
X83174780Y27711390D01*
X83591390Y27294790D01*
G37*
G36*
X83591390Y19674790D02*
G01*
X83591390Y19085620D01*
X83174790Y18669010D01*
X82585620Y18669010D01*
X82169010Y19085610D01*
X82169010Y19674780D01*
X82585610Y20091390D01*
X83174780Y20091390D01*
X83591390Y19674790D01*
G37*
G36*
X81051390Y19674790D02*
G01*
X81051390Y19085620D01*
X80634790Y18669010D01*
X80045620Y18669010D01*
X79629010Y19085610D01*
X79629010Y19674780D01*
X80045610Y20091390D01*
X80634780Y20091390D01*
X81051390Y19674790D01*
G37*
G36*
X75971390Y14594790D02*
G01*
X75971390Y14005620D01*
X75554790Y13589010D01*
X74965620Y13589010D01*
X74549010Y14005610D01*
X74549010Y14594780D01*
X74965610Y15011390D01*
X75554780Y15011390D01*
X75971390Y14594790D01*
G37*
G36*
X75971390Y12054790D02*
G01*
X75971390Y11465620D01*
X75554790Y11049010D01*
X74965620Y11049010D01*
X74549010Y11465610D01*
X74549010Y12054780D01*
X74965610Y12471390D01*
X75554780Y12471390D01*
X75971390Y12054790D01*
G37*
G36*
X68351390Y12054790D02*
G01*
X68351390Y11465620D01*
X67934790Y11049010D01*
X67345620Y11049010D01*
X66929010Y11465610D01*
X66929010Y12054780D01*
X67345610Y12471390D01*
X67934780Y12471390D01*
X68351390Y12054790D01*
G37*
G36*
X68351390Y14594790D02*
G01*
X68351390Y14005620D01*
X67934790Y13589010D01*
X67345620Y13589010D01*
X66929010Y14005610D01*
X66929010Y14594780D01*
X67345610Y15011390D01*
X67934780Y15011390D01*
X68351390Y14594790D01*
G37*
G36*
X60731390Y14594790D02*
G01*
X60731390Y14005620D01*
X60314790Y13589010D01*
X59725620Y13589010D01*
X59309010Y14005610D01*
X59309010Y14594780D01*
X59725610Y15011390D01*
X60314780Y15011390D01*
X60731390Y14594790D01*
G37*
G36*
X60731390Y12054790D02*
G01*
X60731390Y11465620D01*
X60314790Y11049010D01*
X59725620Y11049010D01*
X59309010Y11465610D01*
X59309010Y12054780D01*
X59725610Y12471390D01*
X60314780Y12471390D01*
X60731390Y12054790D01*
G37*
G36*
X12471390Y19674790D02*
G01*
X12471390Y19085620D01*
X12054790Y18669010D01*
X11465620Y18669010D01*
X11049010Y19085610D01*
X11049010Y19674780D01*
X11465610Y20091390D01*
X12054780Y20091390D01*
X12471390Y19674790D01*
G37*
G36*
X9931390Y19674790D02*
G01*
X9931390Y19085620D01*
X9514790Y18669010D01*
X8925620Y18669010D01*
X8509010Y19085610D01*
X8509010Y19674780D01*
X8925610Y20091390D01*
X9514780Y20091390D01*
X9931390Y19674790D01*
G37*
G36*
X9931390Y27294790D02*
G01*
X9931390Y26705620D01*
X9514790Y26289010D01*
X8925620Y26289010D01*
X8509010Y26705610D01*
X8509010Y27294780D01*
X8925610Y27711390D01*
X9514780Y27711390D01*
X9931390Y27294790D01*
G37*
G36*
X12471390Y27294790D02*
G01*
X12471390Y26705620D01*
X12054790Y26289010D01*
X11465620Y26289010D01*
X11049010Y26705610D01*
X11049010Y27294780D01*
X11465610Y27711390D01*
X12054780Y27711390D01*
X12471390Y27294790D01*
G37*
G36*
X12471390Y34914790D02*
G01*
X12471390Y34325620D01*
X12054790Y33909010D01*
X11465620Y33909010D01*
X11049010Y34325610D01*
X11049010Y34914780D01*
X11465610Y35331390D01*
X12054780Y35331390D01*
X12471390Y34914790D01*
G37*
G36*
X9931390Y34914790D02*
G01*
X9931390Y34325620D01*
X9514790Y33909010D01*
X8925620Y33909010D01*
X8509010Y34325610D01*
X8509010Y34914780D01*
X8925610Y35331390D01*
X9514780Y35331390D01*
X9931390Y34914790D01*
G37*
G36*
X9931390Y42534790D02*
G01*
X9931390Y41945620D01*
X9514790Y41529010D01*
X8925620Y41529010D01*
X8509010Y41945610D01*
X8509010Y42534780D01*
X8925610Y42951390D01*
X9514780Y42951390D01*
X9931390Y42534790D01*
G37*
G36*
X12471390Y42534790D02*
G01*
X12471390Y41945620D01*
X12054790Y41529010D01*
X11465620Y41529010D01*
X11049010Y41945610D01*
X11049010Y42534780D01*
X11465610Y42951390D01*
X12054780Y42951390D01*
X12471390Y42534790D01*
G37*
G36*
X17551390Y47614790D02*
G01*
X17551390Y47025620D01*
X17134790Y46609010D01*
X16545620Y46609010D01*
X16129010Y47025610D01*
X16129010Y47614780D01*
X16545610Y48031390D01*
X17134780Y48031390D01*
X17551390Y47614790D01*
G37*
G36*
X17551390Y50154790D02*
G01*
X17551390Y49565620D01*
X17134790Y49149010D01*
X16545620Y49149010D01*
X16129010Y49565610D01*
X16129010Y50154780D01*
X16545610Y50571390D01*
X17134780Y50571390D01*
X17551390Y50154790D01*
G37*
G36*
X25171390Y50154790D02*
G01*
X25171390Y49565620D01*
X24754790Y49149010D01*
X24165620Y49149010D01*
X23749010Y49565610D01*
X23749010Y50154780D01*
X24165610Y50571390D01*
X24754780Y50571390D01*
X25171390Y50154790D01*
G37*
G36*
X25171390Y47614790D02*
G01*
X25171390Y47025620D01*
X24754790Y46609010D01*
X24165620Y46609010D01*
X23749010Y47025610D01*
X23749010Y47614780D01*
X24165610Y48031390D01*
X24754780Y48031390D01*
X25171390Y47614790D01*
G37*
G36*
X32791390Y47614790D02*
G01*
X32791390Y47025620D01*
X32374790Y46609010D01*
X31785620Y46609010D01*
X31369010Y47025610D01*
X31369010Y47614780D01*
X31785610Y48031390D01*
X32374780Y48031390D01*
X32791390Y47614790D01*
G37*
G36*
X32791390Y50154790D02*
G01*
X32791390Y49565620D01*
X32374790Y49149010D01*
X31785620Y49149010D01*
X31369010Y49565610D01*
X31369010Y50154780D01*
X31785610Y50571390D01*
X32374780Y50571390D01*
X32791390Y50154790D01*
G37*
G36*
X40411390Y50154790D02*
G01*
X40411390Y49565620D01*
X39994790Y49149010D01*
X39405620Y49149010D01*
X38989010Y49565610D01*
X38989010Y50154780D01*
X39405610Y50571390D01*
X39994780Y50571390D01*
X40411390Y50154790D01*
G37*
G36*
X40411390Y47614790D02*
G01*
X40411390Y47025620D01*
X39994790Y46609010D01*
X39405620Y46609010D01*
X38989010Y47025610D01*
X38989010Y47614780D01*
X39405610Y48031390D01*
X39994780Y48031390D01*
X40411390Y47614790D01*
G37*
G36*
X3682990Y34956870D02*
G01*
X3682990Y34283530D01*
X3206870Y33807410D01*
X2533530Y33807410D01*
X2057410Y34283530D01*
X2057410Y34956870D01*
X2533530Y35432990D01*
X3206870Y35432990D01*
X3682990Y34956870D01*
G37*
G36*
X3682990Y32416870D02*
G01*
X3682990Y31743530D01*
X3206870Y31267410D01*
X2533530Y31267410D01*
X2057410Y31743530D01*
X2057410Y32416870D01*
X2533530Y32892990D01*
X3206870Y32892990D01*
X3682990Y32416870D01*
G37*
G36*
X3682990Y29876870D02*
G01*
X3682990Y29203530D01*
X3206870Y28727410D01*
X2533530Y28727410D01*
X2057410Y29203530D01*
X2057410Y29876870D01*
X2533530Y30352990D01*
X3206870Y30352990D01*
X3682990Y29876870D01*
G37*
G36*
X3682990Y27336870D02*
G01*
X3682990Y26663530D01*
X3206870Y26187410D01*
X2533530Y26187410D01*
X2057410Y26663530D01*
X2057410Y27336870D01*
X2533530Y27812990D01*
X3206870Y27812990D01*
X3682990Y27336870D01*
G37*
G36*
X3682990Y24796870D02*
G01*
X3682990Y24123530D01*
X3206870Y23647410D01*
X2533530Y23647410D01*
X2057410Y24123530D01*
X2057410Y24796870D01*
X2533530Y25272990D01*
X3206870Y25272990D01*
X3682990Y24796870D01*
G37*
G36*
X90042990Y24796870D02*
G01*
X90042990Y24123530D01*
X89566870Y23647410D01*
X88893530Y23647410D01*
X88417410Y24123530D01*
X88417410Y24796870D01*
X88893530Y25272990D01*
X89566870Y25272990D01*
X90042990Y24796870D01*
G37*
G36*
X90042990Y27336870D02*
G01*
X90042990Y26663530D01*
X89566870Y26187410D01*
X88893530Y26187410D01*
X88417410Y26663530D01*
X88417410Y27336870D01*
X88893530Y27812990D01*
X89566870Y27812990D01*
X90042990Y27336870D01*
G37*
G36*
X90042990Y29876870D02*
G01*
X90042990Y29203530D01*
X89566870Y28727410D01*
X88893530Y28727410D01*
X88417410Y29203530D01*
X88417410Y29876870D01*
X88893530Y30352990D01*
X89566870Y30352990D01*
X90042990Y29876870D01*
G37*
G36*
X90042990Y32416870D02*
G01*
X90042990Y31743530D01*
X89566870Y31267410D01*
X88893530Y31267410D01*
X88417410Y31743530D01*
X88417410Y32416870D01*
X88893530Y32892990D01*
X89566870Y32892990D01*
X90042990Y32416870D01*
G37*
G36*
X90042990Y34956870D02*
G01*
X90042990Y34283530D01*
X89566870Y33807410D01*
X88893530Y33807410D01*
X88417410Y34283530D01*
X88417410Y34956870D01*
X88893530Y35432990D01*
X89566870Y35432990D01*
X90042990Y34956870D01*
G37*
M02*
