G75*
%MOIN*%
%OFA0B0*%
%FSLAX25Y25*%
%IPPOS*%
%LPD*%
%AMOC8*
5,1,8,0,0,1.08239X$1,22.5*
%
%ADD10C,0.00000*%
%ADD11OC8,0.05200*%
%ADD12OC8,0.06000*%
%ADD13C,0.01600*%
%ADD14C,0.00600*%
D10*
X0001300Y0001300D02*
X0001300Y0215261D01*
X0362001Y0215261D01*
X0362001Y0001300D01*
X0001300Y0001300D01*
D11*
X0036300Y0026300D03*
X0046300Y0026300D03*
X0066300Y0046300D03*
X0066300Y0056300D03*
X0096300Y0056300D03*
X0096300Y0046300D03*
X0126300Y0046300D03*
X0126300Y0056300D03*
X0156300Y0056300D03*
X0156300Y0046300D03*
X0206300Y0046300D03*
X0206300Y0056300D03*
X0186300Y0076300D03*
X0176300Y0076300D03*
X0176300Y0106300D03*
X0186300Y0106300D03*
X0186300Y0136300D03*
X0176300Y0136300D03*
X0176300Y0166300D03*
X0186300Y0166300D03*
X0206300Y0186300D03*
X0206300Y0196300D03*
X0236300Y0196300D03*
X0236300Y0186300D03*
X0266300Y0186300D03*
X0266300Y0196300D03*
X0296300Y0196300D03*
X0296300Y0186300D03*
X0316300Y0166300D03*
X0326300Y0166300D03*
X0326300Y0136300D03*
X0316300Y0136300D03*
X0316300Y0106300D03*
X0326300Y0106300D03*
X0326300Y0076300D03*
X0316300Y0076300D03*
X0296300Y0056300D03*
X0296300Y0046300D03*
X0266300Y0046300D03*
X0266300Y0056300D03*
X0236300Y0056300D03*
X0236300Y0046300D03*
X0046300Y0076300D03*
X0036300Y0076300D03*
X0036300Y0106300D03*
X0046300Y0106300D03*
X0046300Y0136300D03*
X0036300Y0136300D03*
X0036300Y0166300D03*
X0046300Y0166300D03*
X0066300Y0186300D03*
X0066300Y0196300D03*
X0096300Y0196300D03*
X0096300Y0186300D03*
X0126300Y0186300D03*
X0126300Y0196300D03*
X0156300Y0196300D03*
X0156300Y0186300D03*
D12*
X0011300Y0136300D03*
X0011300Y0126300D03*
X0011300Y0116300D03*
X0011300Y0106300D03*
X0011300Y0096300D03*
X0351300Y0096300D03*
X0351300Y0106300D03*
X0351300Y0116300D03*
X0351300Y0126300D03*
X0351300Y0136300D03*
D13*
X0355700Y0135575D02*
X0360201Y0135575D01*
X0360201Y0137173D02*
X0355700Y0137173D01*
X0355700Y0138123D02*
X0353123Y0140700D01*
X0349477Y0140700D01*
X0346900Y0138123D01*
X0346900Y0138000D01*
X0345596Y0138000D01*
X0344600Y0137004D01*
X0339596Y0132000D01*
X0239996Y0132000D01*
X0239000Y0131004D01*
X0188126Y0080130D01*
X0187957Y0080300D01*
X0184643Y0080300D01*
X0182300Y0077957D01*
X0182300Y0074643D01*
X0184643Y0072300D01*
X0187957Y0072300D01*
X0190300Y0074643D01*
X0190300Y0077496D01*
X0241404Y0128600D01*
X0341004Y0128600D01*
X0346900Y0134496D01*
X0346900Y0134477D01*
X0349477Y0131900D01*
X0353123Y0131900D01*
X0355700Y0134477D01*
X0355700Y0138123D01*
X0355051Y0138772D02*
X0360201Y0138772D01*
X0360201Y0140370D02*
X0353452Y0140370D01*
X0349148Y0140370D02*
X0322175Y0140370D01*
X0323004Y0141200D02*
X0320030Y0138226D01*
X0320300Y0137957D01*
X0320300Y0134643D01*
X0317957Y0132300D01*
X0314643Y0132300D01*
X0312300Y0134643D01*
X0312300Y0137957D01*
X0314643Y0140300D01*
X0317296Y0140300D01*
X0320600Y0143604D01*
X0320600Y0163404D01*
X0322300Y0165104D01*
X0322300Y0167957D01*
X0324643Y0170300D01*
X0327957Y0170300D01*
X0330300Y0167957D01*
X0330300Y0164643D01*
X0327957Y0162300D01*
X0324643Y0162300D01*
X0324474Y0162470D01*
X0324000Y0161996D01*
X0324000Y0142196D01*
X0323004Y0141200D01*
X0323773Y0141969D02*
X0360201Y0141969D01*
X0360201Y0143568D02*
X0324000Y0143568D01*
X0324000Y0145166D02*
X0360201Y0145166D01*
X0360201Y0146765D02*
X0324000Y0146765D01*
X0324000Y0148363D02*
X0360201Y0148363D01*
X0360201Y0149962D02*
X0324000Y0149962D01*
X0324000Y0151560D02*
X0360201Y0151560D01*
X0360201Y0153159D02*
X0324000Y0153159D01*
X0324000Y0154757D02*
X0360201Y0154757D01*
X0360201Y0156356D02*
X0324000Y0156356D01*
X0324000Y0157954D02*
X0360201Y0157954D01*
X0360201Y0159553D02*
X0324000Y0159553D01*
X0324000Y0161151D02*
X0360201Y0161151D01*
X0360201Y0162750D02*
X0328406Y0162750D01*
X0330005Y0164348D02*
X0360201Y0164348D01*
X0360201Y0165947D02*
X0330300Y0165947D01*
X0330300Y0167545D02*
X0360201Y0167545D01*
X0360201Y0169144D02*
X0329113Y0169144D01*
X0323487Y0169144D02*
X0319679Y0169144D01*
X0320700Y0168123D02*
X0318123Y0170700D01*
X0316300Y0170700D01*
X0316300Y0166300D01*
X0320700Y0166300D01*
X0320700Y0168123D01*
X0320700Y0167545D02*
X0322300Y0167545D01*
X0322300Y0165947D02*
X0320700Y0165947D01*
X0320700Y0166300D02*
X0316300Y0166300D01*
X0316300Y0166300D01*
X0316300Y0166300D01*
X0316300Y0161900D01*
X0318123Y0161900D01*
X0320700Y0164477D01*
X0320700Y0166300D01*
X0320571Y0164348D02*
X0321544Y0164348D01*
X0320600Y0162750D02*
X0318972Y0162750D01*
X0320600Y0161151D02*
X0123355Y0161151D01*
X0121757Y0159553D02*
X0320600Y0159553D01*
X0320600Y0157954D02*
X0120158Y0157954D01*
X0118560Y0156356D02*
X0320600Y0156356D01*
X0320600Y0154757D02*
X0116961Y0154757D01*
X0115363Y0153159D02*
X0320600Y0153159D01*
X0320600Y0151560D02*
X0113764Y0151560D01*
X0112166Y0149962D02*
X0320600Y0149962D01*
X0320600Y0148363D02*
X0110567Y0148363D01*
X0108969Y0146765D02*
X0320600Y0146765D01*
X0320600Y0145166D02*
X0107370Y0145166D01*
X0105772Y0143568D02*
X0320563Y0143568D01*
X0318965Y0141969D02*
X0104173Y0141969D01*
X0102575Y0140370D02*
X0317366Y0140370D01*
X0320576Y0138772D02*
X0323115Y0138772D01*
X0322300Y0137957D02*
X0324643Y0140300D01*
X0327957Y0140300D01*
X0330300Y0137957D01*
X0330300Y0134643D01*
X0327957Y0132300D01*
X0324643Y0132300D01*
X0322300Y0134643D01*
X0322300Y0137957D01*
X0322300Y0137173D02*
X0320300Y0137173D01*
X0320300Y0135575D02*
X0322300Y0135575D01*
X0322967Y0133976D02*
X0319633Y0133976D01*
X0318035Y0132378D02*
X0324565Y0132378D01*
X0328035Y0132378D02*
X0339974Y0132378D01*
X0341572Y0133976D02*
X0329633Y0133976D01*
X0330300Y0135575D02*
X0343171Y0135575D01*
X0344769Y0137173D02*
X0330300Y0137173D01*
X0329485Y0138772D02*
X0347549Y0138772D01*
X0347401Y0133976D02*
X0346381Y0133976D01*
X0344782Y0132378D02*
X0349000Y0132378D01*
X0349477Y0130700D02*
X0346900Y0128123D01*
X0346900Y0124477D01*
X0349477Y0121900D01*
X0353123Y0121900D01*
X0355700Y0124477D01*
X0355700Y0128123D01*
X0353123Y0130700D01*
X0349477Y0130700D01*
X0347958Y0129181D02*
X0341585Y0129181D01*
X0343184Y0130779D02*
X0360201Y0130779D01*
X0360201Y0129181D02*
X0354642Y0129181D01*
X0355700Y0127582D02*
X0360201Y0127582D01*
X0360201Y0125984D02*
X0355700Y0125984D01*
X0355608Y0124385D02*
X0360201Y0124385D01*
X0360201Y0122787D02*
X0354009Y0122787D01*
X0353123Y0120700D02*
X0349477Y0120700D01*
X0346900Y0118123D01*
X0346900Y0117600D01*
X0256796Y0117600D01*
X0255800Y0116604D01*
X0181196Y0042000D01*
X0049796Y0042000D01*
X0048800Y0041004D01*
X0038026Y0030230D01*
X0037957Y0030300D01*
X0034643Y0030300D01*
X0032300Y0027957D01*
X0032300Y0024643D01*
X0034643Y0022300D01*
X0037957Y0022300D01*
X0040300Y0024643D01*
X0040300Y0027696D01*
X0051204Y0038600D01*
X0182604Y0038600D01*
X0258204Y0114200D01*
X0347177Y0114200D01*
X0349477Y0111900D01*
X0353123Y0111900D01*
X0355700Y0114477D01*
X0355700Y0118123D01*
X0353123Y0120700D01*
X0354233Y0119590D02*
X0360201Y0119590D01*
X0360201Y0121188D02*
X0233993Y0121188D01*
X0235591Y0122787D02*
X0348591Y0122787D01*
X0346992Y0124385D02*
X0237190Y0124385D01*
X0238788Y0125984D02*
X0346900Y0125984D01*
X0346900Y0127582D02*
X0240387Y0127582D01*
X0237177Y0129181D02*
X0091385Y0129181D01*
X0091800Y0129596D02*
X0154574Y0192370D01*
X0154643Y0192300D01*
X0157957Y0192300D01*
X0160300Y0194643D01*
X0160300Y0197957D01*
X0157957Y0200300D01*
X0154643Y0200300D01*
X0152300Y0197957D01*
X0152300Y0194904D01*
X0089396Y0132000D01*
X0014996Y0132000D01*
X0013409Y0130413D01*
X0013123Y0130700D01*
X0009477Y0130700D01*
X0006900Y0128123D01*
X0006900Y0124477D01*
X0009477Y0121900D01*
X0013123Y0121900D01*
X0015700Y0124477D01*
X0015700Y0127896D01*
X0016404Y0128600D01*
X0090804Y0128600D01*
X0091800Y0129596D01*
X0092984Y0130779D02*
X0238775Y0130779D01*
X0235578Y0127582D02*
X0015700Y0127582D01*
X0015700Y0125984D02*
X0233980Y0125984D01*
X0232381Y0124385D02*
X0015608Y0124385D01*
X0014009Y0122787D02*
X0230783Y0122787D01*
X0229184Y0121188D02*
X0003100Y0121188D01*
X0003100Y0119590D02*
X0008367Y0119590D01*
X0009477Y0120700D02*
X0006900Y0118123D01*
X0006900Y0114477D01*
X0009477Y0111900D01*
X0013123Y0111900D01*
X0015700Y0114477D01*
X0015700Y0118123D01*
X0013123Y0120700D01*
X0009477Y0120700D01*
X0008591Y0122787D02*
X0003100Y0122787D01*
X0003100Y0124385D02*
X0006992Y0124385D01*
X0006900Y0125984D02*
X0003100Y0125984D01*
X0003100Y0127582D02*
X0006900Y0127582D01*
X0007958Y0129181D02*
X0003100Y0129181D01*
X0003100Y0130779D02*
X0013775Y0130779D01*
X0013288Y0131500D02*
X0016100Y0134312D01*
X0016100Y0136100D01*
X0011500Y0136100D01*
X0011500Y0136500D01*
X0016100Y0136500D01*
X0016100Y0138288D01*
X0013288Y0141100D01*
X0011500Y0141100D01*
X0011500Y0136500D01*
X0011100Y0136500D01*
X0011100Y0141100D01*
X0009312Y0141100D01*
X0006500Y0138288D01*
X0006500Y0136500D01*
X0011100Y0136500D01*
X0011100Y0136100D01*
X0011500Y0136100D01*
X0011500Y0131500D01*
X0013288Y0131500D01*
X0014166Y0132378D02*
X0034565Y0132378D01*
X0034643Y0132300D02*
X0037957Y0132300D01*
X0040300Y0134643D01*
X0040300Y0137957D01*
X0037957Y0140300D01*
X0034643Y0140300D01*
X0032300Y0137957D01*
X0032300Y0134643D01*
X0034643Y0132300D01*
X0032967Y0133976D02*
X0015765Y0133976D01*
X0016100Y0135575D02*
X0032300Y0135575D01*
X0032300Y0137173D02*
X0016100Y0137173D01*
X0015616Y0138772D02*
X0033115Y0138772D01*
X0039485Y0138772D02*
X0043115Y0138772D01*
X0042300Y0137957D02*
X0042300Y0134643D01*
X0044643Y0132300D01*
X0047957Y0132300D01*
X0050300Y0134643D01*
X0050300Y0137957D01*
X0047957Y0140300D01*
X0044643Y0140300D01*
X0042300Y0137957D01*
X0042300Y0137173D02*
X0040300Y0137173D01*
X0040300Y0135575D02*
X0042300Y0135575D01*
X0042967Y0133976D02*
X0039633Y0133976D01*
X0038035Y0132378D02*
X0044565Y0132378D01*
X0048035Y0132378D02*
X0089774Y0132378D01*
X0091372Y0133976D02*
X0049633Y0133976D01*
X0050300Y0135575D02*
X0092971Y0135575D01*
X0094569Y0137173D02*
X0050300Y0137173D01*
X0049485Y0138772D02*
X0096168Y0138772D01*
X0097766Y0140370D02*
X0014018Y0140370D01*
X0011500Y0140370D02*
X0011100Y0140370D01*
X0011100Y0138772D02*
X0011500Y0138772D01*
X0011500Y0137173D02*
X0011100Y0137173D01*
X0011100Y0136100D02*
X0006500Y0136100D01*
X0006500Y0134312D01*
X0009312Y0131500D01*
X0011100Y0131500D01*
X0011100Y0136100D01*
X0011100Y0135575D02*
X0011500Y0135575D01*
X0011500Y0133976D02*
X0011100Y0133976D01*
X0011100Y0132378D02*
X0011500Y0132378D01*
X0008434Y0132378D02*
X0003100Y0132378D01*
X0003100Y0133976D02*
X0006835Y0133976D01*
X0006500Y0135575D02*
X0003100Y0135575D01*
X0003100Y0137173D02*
X0006500Y0137173D01*
X0006984Y0138772D02*
X0003100Y0138772D01*
X0003100Y0140370D02*
X0008582Y0140370D01*
X0003100Y0141969D02*
X0099365Y0141969D01*
X0100963Y0143568D02*
X0003100Y0143568D01*
X0003100Y0145166D02*
X0102562Y0145166D01*
X0104160Y0146765D02*
X0003100Y0146765D01*
X0003100Y0148363D02*
X0105759Y0148363D01*
X0107357Y0149962D02*
X0003100Y0149962D01*
X0003100Y0151560D02*
X0108956Y0151560D01*
X0110554Y0153159D02*
X0003100Y0153159D01*
X0003100Y0154757D02*
X0112153Y0154757D01*
X0113751Y0156356D02*
X0003100Y0156356D01*
X0003100Y0157954D02*
X0115350Y0157954D01*
X0116948Y0159553D02*
X0003100Y0159553D01*
X0003100Y0161151D02*
X0118547Y0161151D01*
X0120145Y0162750D02*
X0048406Y0162750D01*
X0047957Y0162300D02*
X0050300Y0164643D01*
X0050300Y0167957D01*
X0047957Y0170300D01*
X0044643Y0170300D01*
X0042300Y0167957D01*
X0042300Y0164643D01*
X0044643Y0162300D01*
X0047957Y0162300D01*
X0050005Y0164348D02*
X0121744Y0164348D01*
X0123343Y0165947D02*
X0050300Y0165947D01*
X0050300Y0167545D02*
X0124941Y0167545D01*
X0126540Y0169144D02*
X0049113Y0169144D01*
X0043487Y0169144D02*
X0039113Y0169144D01*
X0037957Y0170300D02*
X0034643Y0170300D01*
X0032300Y0167957D01*
X0032300Y0164643D01*
X0034643Y0162300D01*
X0037957Y0162300D01*
X0040300Y0164643D01*
X0040300Y0167957D01*
X0037957Y0170300D01*
X0040300Y0167545D02*
X0042300Y0167545D01*
X0042300Y0165947D02*
X0040300Y0165947D01*
X0040005Y0164348D02*
X0042595Y0164348D01*
X0044194Y0162750D02*
X0038406Y0162750D01*
X0034194Y0162750D02*
X0003100Y0162750D01*
X0003100Y0164348D02*
X0032595Y0164348D01*
X0032300Y0165947D02*
X0003100Y0165947D01*
X0003100Y0167545D02*
X0032300Y0167545D01*
X0033487Y0169144D02*
X0003100Y0169144D01*
X0003100Y0170742D02*
X0128138Y0170742D01*
X0129737Y0172341D02*
X0003100Y0172341D01*
X0003100Y0173939D02*
X0131335Y0173939D01*
X0132934Y0175538D02*
X0003100Y0175538D01*
X0003100Y0177136D02*
X0134532Y0177136D01*
X0136131Y0178735D02*
X0003100Y0178735D01*
X0003100Y0180333D02*
X0137729Y0180333D01*
X0139328Y0181932D02*
X0068154Y0181932D01*
X0068123Y0181900D02*
X0070700Y0184477D01*
X0070700Y0186300D01*
X0070700Y0188123D01*
X0068123Y0190700D01*
X0066300Y0190700D01*
X0066300Y0186300D01*
X0066300Y0186300D01*
X0070700Y0186300D01*
X0066300Y0186300D01*
X0066300Y0186300D01*
X0066300Y0186300D01*
X0061900Y0186300D01*
X0061900Y0188123D01*
X0064477Y0190700D01*
X0066300Y0190700D01*
X0066300Y0186300D01*
X0066300Y0181900D01*
X0068123Y0181900D01*
X0066300Y0181900D02*
X0066300Y0186300D01*
X0066300Y0186300D01*
X0061900Y0186300D01*
X0061900Y0184477D01*
X0064477Y0181900D01*
X0066300Y0181900D01*
X0066300Y0181932D02*
X0066300Y0181932D01*
X0066300Y0183530D02*
X0066300Y0183530D01*
X0066300Y0185129D02*
X0066300Y0185129D01*
X0066300Y0186727D02*
X0066300Y0186727D01*
X0066300Y0188326D02*
X0066300Y0188326D01*
X0066300Y0189924D02*
X0066300Y0189924D01*
X0068898Y0189924D02*
X0094267Y0189924D01*
X0094643Y0190300D02*
X0092300Y0187957D01*
X0092300Y0184643D01*
X0094643Y0182300D01*
X0097957Y0182300D01*
X0100300Y0184643D01*
X0100300Y0187957D01*
X0097957Y0190300D01*
X0094643Y0190300D01*
X0094643Y0192300D02*
X0097957Y0192300D01*
X0100300Y0194643D01*
X0100300Y0197957D01*
X0097957Y0200300D01*
X0094643Y0200300D01*
X0092300Y0197957D01*
X0092300Y0194643D01*
X0094643Y0192300D01*
X0093822Y0193121D02*
X0068778Y0193121D01*
X0067957Y0192300D02*
X0064643Y0192300D01*
X0062300Y0194643D01*
X0062300Y0197957D01*
X0064643Y0200300D01*
X0067957Y0200300D01*
X0070300Y0197957D01*
X0070300Y0194643D01*
X0067957Y0192300D01*
X0063822Y0193121D02*
X0003100Y0193121D01*
X0003100Y0191523D02*
X0148919Y0191523D01*
X0150517Y0193121D02*
X0128778Y0193121D01*
X0127957Y0192300D02*
X0124643Y0192300D01*
X0122300Y0194643D01*
X0122300Y0197957D01*
X0124643Y0200300D01*
X0127957Y0200300D01*
X0130300Y0197957D01*
X0130300Y0194643D01*
X0127957Y0192300D01*
X0127957Y0190300D02*
X0124643Y0190300D01*
X0122300Y0187957D01*
X0122300Y0184643D01*
X0124643Y0182300D01*
X0127957Y0182300D01*
X0130300Y0184643D01*
X0130300Y0187957D01*
X0127957Y0190300D01*
X0128332Y0189924D02*
X0147320Y0189924D01*
X0145722Y0188326D02*
X0129931Y0188326D01*
X0130300Y0186727D02*
X0144123Y0186727D01*
X0142525Y0185129D02*
X0130300Y0185129D01*
X0129187Y0183530D02*
X0140926Y0183530D01*
X0142537Y0180333D02*
X0360201Y0180333D01*
X0360201Y0178735D02*
X0140939Y0178735D01*
X0139340Y0177136D02*
X0360201Y0177136D01*
X0360201Y0175538D02*
X0137742Y0175538D01*
X0136143Y0173939D02*
X0360201Y0173939D01*
X0360201Y0172341D02*
X0134545Y0172341D01*
X0132946Y0170742D02*
X0360201Y0170742D01*
X0360201Y0181932D02*
X0208154Y0181932D01*
X0208123Y0181900D02*
X0210700Y0184477D01*
X0210700Y0186300D01*
X0210700Y0188123D01*
X0208123Y0190700D01*
X0206300Y0190700D01*
X0206300Y0186300D01*
X0206300Y0186300D01*
X0210700Y0186300D01*
X0206300Y0186300D01*
X0206300Y0186300D01*
X0206300Y0186300D01*
X0201900Y0186300D01*
X0201900Y0188123D01*
X0204477Y0190700D01*
X0206300Y0190700D01*
X0206300Y0186300D01*
X0206300Y0181900D01*
X0208123Y0181900D01*
X0206300Y0181900D02*
X0206300Y0186300D01*
X0206300Y0186300D01*
X0201900Y0186300D01*
X0201900Y0184477D01*
X0204477Y0181900D01*
X0206300Y0181900D01*
X0206300Y0181932D02*
X0206300Y0181932D01*
X0206300Y0183530D02*
X0206300Y0183530D01*
X0206300Y0185129D02*
X0206300Y0185129D01*
X0206300Y0186727D02*
X0206300Y0186727D01*
X0206300Y0188326D02*
X0206300Y0188326D01*
X0206300Y0189924D02*
X0206300Y0189924D01*
X0208898Y0189924D02*
X0234267Y0189924D01*
X0234643Y0190300D02*
X0232300Y0187957D01*
X0232300Y0184643D01*
X0234643Y0182300D01*
X0237957Y0182300D01*
X0240300Y0184643D01*
X0240300Y0187957D01*
X0237957Y0190300D01*
X0234643Y0190300D01*
X0234643Y0192300D02*
X0237957Y0192300D01*
X0240300Y0194643D01*
X0240300Y0197957D01*
X0237957Y0200300D01*
X0234643Y0200300D01*
X0232300Y0197957D01*
X0232300Y0194643D01*
X0234643Y0192300D01*
X0233822Y0193121D02*
X0208778Y0193121D01*
X0207957Y0192300D02*
X0204643Y0192300D01*
X0202300Y0194643D01*
X0202300Y0197957D01*
X0204643Y0200300D01*
X0207957Y0200300D01*
X0210300Y0197957D01*
X0210300Y0194643D01*
X0207957Y0192300D01*
X0203822Y0193121D02*
X0158778Y0193121D01*
X0160300Y0194720D02*
X0202300Y0194720D01*
X0202300Y0196318D02*
X0160300Y0196318D01*
X0160300Y0197917D02*
X0202300Y0197917D01*
X0203859Y0199515D02*
X0158741Y0199515D01*
X0153859Y0199515D02*
X0128741Y0199515D01*
X0130300Y0197917D02*
X0152300Y0197917D01*
X0152300Y0196318D02*
X0130300Y0196318D01*
X0130300Y0194720D02*
X0152116Y0194720D01*
X0153727Y0191523D02*
X0360201Y0191523D01*
X0360201Y0193121D02*
X0298778Y0193121D01*
X0297957Y0192300D02*
X0294643Y0192300D01*
X0292300Y0194643D01*
X0292300Y0197957D01*
X0294643Y0200300D01*
X0297957Y0200300D01*
X0300300Y0197957D01*
X0300300Y0194643D01*
X0297957Y0192300D01*
X0297957Y0190300D02*
X0294643Y0190300D01*
X0292300Y0187957D01*
X0292300Y0184643D01*
X0294643Y0182300D01*
X0297957Y0182300D01*
X0300300Y0184643D01*
X0300300Y0187957D01*
X0297957Y0190300D01*
X0298332Y0189924D02*
X0360201Y0189924D01*
X0360201Y0188326D02*
X0299931Y0188326D01*
X0300300Y0186727D02*
X0360201Y0186727D01*
X0360201Y0185129D02*
X0300300Y0185129D01*
X0299187Y0183530D02*
X0360201Y0183530D01*
X0360201Y0194720D02*
X0300300Y0194720D01*
X0300300Y0196318D02*
X0360201Y0196318D01*
X0360201Y0197917D02*
X0300300Y0197917D01*
X0298741Y0199515D02*
X0360201Y0199515D01*
X0360201Y0201114D02*
X0003100Y0201114D01*
X0003100Y0202712D02*
X0360201Y0202712D01*
X0360201Y0204311D02*
X0003100Y0204311D01*
X0003100Y0205909D02*
X0360201Y0205909D01*
X0360201Y0207508D02*
X0003100Y0207508D01*
X0003100Y0209106D02*
X0360201Y0209106D01*
X0360201Y0210705D02*
X0003100Y0210705D01*
X0003100Y0212303D02*
X0360201Y0212303D01*
X0360201Y0213461D02*
X0003100Y0213461D01*
X0003100Y0003100D01*
X0360201Y0003100D01*
X0360201Y0213461D01*
X0294267Y0189924D02*
X0268332Y0189924D01*
X0267957Y0190300D02*
X0264643Y0190300D01*
X0262300Y0187957D01*
X0262300Y0184643D01*
X0264643Y0182300D01*
X0267957Y0182300D01*
X0270300Y0184643D01*
X0270300Y0187957D01*
X0267957Y0190300D01*
X0267957Y0192300D02*
X0264643Y0192300D01*
X0262300Y0194643D01*
X0262300Y0197957D01*
X0264643Y0200300D01*
X0267957Y0200300D01*
X0270300Y0197957D01*
X0270300Y0194643D01*
X0267957Y0192300D01*
X0268778Y0193121D02*
X0293822Y0193121D01*
X0292300Y0194720D02*
X0270300Y0194720D01*
X0270300Y0196318D02*
X0292300Y0196318D01*
X0292300Y0197917D02*
X0270300Y0197917D01*
X0268741Y0199515D02*
X0293859Y0199515D01*
X0292669Y0188326D02*
X0269931Y0188326D01*
X0270300Y0186727D02*
X0292300Y0186727D01*
X0292300Y0185129D02*
X0270300Y0185129D01*
X0269187Y0183530D02*
X0293413Y0183530D01*
X0311900Y0168123D02*
X0314477Y0170700D01*
X0316300Y0170700D01*
X0316300Y0166300D01*
X0316300Y0166300D01*
X0316300Y0166300D01*
X0311900Y0166300D01*
X0311900Y0168123D01*
X0311900Y0167545D02*
X0190300Y0167545D01*
X0190300Y0167957D02*
X0187957Y0170300D01*
X0184643Y0170300D01*
X0182300Y0167957D01*
X0182300Y0164643D01*
X0184643Y0162300D01*
X0187957Y0162300D01*
X0190300Y0164643D01*
X0190300Y0167957D01*
X0189113Y0169144D02*
X0312921Y0169144D01*
X0316300Y0169144D02*
X0316300Y0169144D01*
X0316300Y0167545D02*
X0316300Y0167545D01*
X0316300Y0166300D02*
X0311900Y0166300D01*
X0311900Y0164477D01*
X0314477Y0161900D01*
X0316300Y0161900D01*
X0316300Y0166300D01*
X0316300Y0165947D02*
X0316300Y0165947D01*
X0316300Y0164348D02*
X0316300Y0164348D01*
X0316300Y0162750D02*
X0316300Y0162750D01*
X0313628Y0162750D02*
X0188406Y0162750D01*
X0190005Y0164348D02*
X0312029Y0164348D01*
X0311900Y0165947D02*
X0190300Y0165947D01*
X0184194Y0162750D02*
X0178972Y0162750D01*
X0178123Y0161900D02*
X0176300Y0161900D01*
X0176300Y0166300D01*
X0180700Y0166300D01*
X0180700Y0168123D01*
X0178123Y0170700D01*
X0176300Y0170700D01*
X0176300Y0166300D01*
X0176300Y0166300D01*
X0176300Y0166300D01*
X0180700Y0166300D01*
X0180700Y0164477D01*
X0178123Y0161900D01*
X0176300Y0161900D02*
X0176300Y0166300D01*
X0176300Y0166300D01*
X0176300Y0166300D01*
X0171900Y0166300D01*
X0171900Y0168123D01*
X0174477Y0170700D01*
X0176300Y0170700D01*
X0176300Y0166300D01*
X0171900Y0166300D01*
X0171900Y0164477D01*
X0174477Y0161900D01*
X0176300Y0161900D01*
X0176300Y0162750D02*
X0176300Y0162750D01*
X0176300Y0164348D02*
X0176300Y0164348D01*
X0176300Y0165947D02*
X0176300Y0165947D01*
X0176300Y0167545D02*
X0176300Y0167545D01*
X0176300Y0169144D02*
X0176300Y0169144D01*
X0179679Y0169144D02*
X0183487Y0169144D01*
X0182300Y0167545D02*
X0180700Y0167545D01*
X0180700Y0165947D02*
X0182300Y0165947D01*
X0182595Y0164348D02*
X0180571Y0164348D01*
X0173628Y0162750D02*
X0124954Y0162750D01*
X0126552Y0164348D02*
X0172029Y0164348D01*
X0171900Y0165947D02*
X0128151Y0165947D01*
X0129749Y0167545D02*
X0171900Y0167545D01*
X0172921Y0169144D02*
X0131348Y0169144D01*
X0123413Y0183530D02*
X0099187Y0183530D01*
X0100300Y0185129D02*
X0122300Y0185129D01*
X0122300Y0186727D02*
X0100300Y0186727D01*
X0099931Y0188326D02*
X0122669Y0188326D01*
X0124267Y0189924D02*
X0098332Y0189924D01*
X0098778Y0193121D02*
X0123822Y0193121D01*
X0122300Y0194720D02*
X0100300Y0194720D01*
X0100300Y0196318D02*
X0122300Y0196318D01*
X0122300Y0197917D02*
X0100300Y0197917D01*
X0098741Y0199515D02*
X0123859Y0199515D01*
X0147333Y0185129D02*
X0152300Y0185129D01*
X0152300Y0184643D02*
X0154643Y0182300D01*
X0157957Y0182300D01*
X0160300Y0184643D01*
X0160300Y0187957D01*
X0157957Y0190300D01*
X0154643Y0190300D01*
X0152300Y0187957D01*
X0152300Y0184643D01*
X0153413Y0183530D02*
X0145734Y0183530D01*
X0144136Y0181932D02*
X0204446Y0181932D01*
X0202847Y0183530D02*
X0159187Y0183530D01*
X0160300Y0185129D02*
X0201900Y0185129D01*
X0201900Y0186727D02*
X0160300Y0186727D01*
X0159931Y0188326D02*
X0202103Y0188326D01*
X0203702Y0189924D02*
X0158332Y0189924D01*
X0154267Y0189924D02*
X0152128Y0189924D01*
X0152669Y0188326D02*
X0150530Y0188326D01*
X0148931Y0186727D02*
X0152300Y0186727D01*
X0209753Y0183530D02*
X0233413Y0183530D01*
X0232300Y0185129D02*
X0210700Y0185129D01*
X0210700Y0186727D02*
X0232300Y0186727D01*
X0232669Y0188326D02*
X0210497Y0188326D01*
X0210300Y0194720D02*
X0232300Y0194720D01*
X0232300Y0196318D02*
X0210300Y0196318D01*
X0210300Y0197917D02*
X0232300Y0197917D01*
X0233859Y0199515D02*
X0208741Y0199515D01*
X0238741Y0199515D02*
X0263859Y0199515D01*
X0262300Y0197917D02*
X0240300Y0197917D01*
X0240300Y0196318D02*
X0262300Y0196318D01*
X0262300Y0194720D02*
X0240300Y0194720D01*
X0238778Y0193121D02*
X0263822Y0193121D01*
X0264267Y0189924D02*
X0238332Y0189924D01*
X0239931Y0188326D02*
X0262669Y0188326D01*
X0262300Y0186727D02*
X0240300Y0186727D01*
X0240300Y0185129D02*
X0262300Y0185129D01*
X0263413Y0183530D02*
X0239187Y0183530D01*
X0190300Y0137957D02*
X0187957Y0140300D01*
X0184643Y0140300D01*
X0182300Y0137957D01*
X0182300Y0134643D01*
X0184643Y0132300D01*
X0187957Y0132300D01*
X0190300Y0134643D01*
X0190300Y0137957D01*
X0190300Y0137173D02*
X0312300Y0137173D01*
X0312300Y0135575D02*
X0190300Y0135575D01*
X0189633Y0133976D02*
X0312967Y0133976D01*
X0314565Y0132378D02*
X0188035Y0132378D01*
X0184565Y0132378D02*
X0178035Y0132378D01*
X0177957Y0132300D02*
X0180300Y0134643D01*
X0180300Y0137957D01*
X0177957Y0140300D01*
X0174643Y0140300D01*
X0172300Y0137957D01*
X0172300Y0134643D01*
X0174643Y0132300D01*
X0177957Y0132300D01*
X0179633Y0133976D02*
X0182967Y0133976D01*
X0182300Y0135575D02*
X0180300Y0135575D01*
X0180300Y0137173D02*
X0182300Y0137173D01*
X0183115Y0138772D02*
X0179485Y0138772D01*
X0173115Y0138772D02*
X0100976Y0138772D01*
X0099378Y0137173D02*
X0172300Y0137173D01*
X0172300Y0135575D02*
X0097779Y0135575D01*
X0096181Y0133976D02*
X0172967Y0133976D01*
X0174565Y0132378D02*
X0094582Y0132378D01*
X0050300Y0107957D02*
X0050300Y0104643D01*
X0047957Y0102300D01*
X0044643Y0102300D01*
X0042300Y0104643D01*
X0042300Y0107957D01*
X0044643Y0110300D01*
X0047957Y0110300D01*
X0050300Y0107957D01*
X0049857Y0108400D02*
X0172743Y0108400D01*
X0172300Y0107957D02*
X0172300Y0104643D01*
X0174643Y0102300D01*
X0177957Y0102300D01*
X0180300Y0104643D01*
X0180300Y0107957D01*
X0177957Y0110300D01*
X0174643Y0110300D01*
X0172300Y0107957D01*
X0172300Y0106802D02*
X0050300Y0106802D01*
X0050300Y0105203D02*
X0172300Y0105203D01*
X0173338Y0103605D02*
X0049262Y0103605D01*
X0043338Y0103605D02*
X0039262Y0103605D01*
X0040300Y0104643D02*
X0037957Y0102300D01*
X0034643Y0102300D01*
X0032300Y0104643D01*
X0032300Y0107957D01*
X0034643Y0110300D01*
X0037957Y0110300D01*
X0040300Y0107957D01*
X0040300Y0104643D01*
X0040300Y0105203D02*
X0042300Y0105203D01*
X0042300Y0106802D02*
X0040300Y0106802D01*
X0039857Y0108400D02*
X0042743Y0108400D01*
X0044342Y0109999D02*
X0038258Y0109999D01*
X0034342Y0109999D02*
X0013824Y0109999D01*
X0013123Y0110700D02*
X0009477Y0110700D01*
X0006900Y0108123D01*
X0006900Y0104477D01*
X0009477Y0101900D01*
X0013123Y0101900D01*
X0015700Y0104477D01*
X0015700Y0108123D01*
X0013123Y0110700D01*
X0014418Y0113196D02*
X0221192Y0113196D01*
X0222790Y0114794D02*
X0015700Y0114794D01*
X0015700Y0116393D02*
X0224389Y0116393D01*
X0225987Y0117991D02*
X0015700Y0117991D01*
X0014233Y0119590D02*
X0227586Y0119590D01*
X0230795Y0117991D02*
X0346900Y0117991D01*
X0348367Y0119590D02*
X0232394Y0119590D01*
X0229197Y0116393D02*
X0255589Y0116393D01*
X0253990Y0114794D02*
X0227598Y0114794D01*
X0226000Y0113196D02*
X0252392Y0113196D01*
X0250793Y0111597D02*
X0224401Y0111597D01*
X0222803Y0109999D02*
X0249195Y0109999D01*
X0247596Y0108400D02*
X0221204Y0108400D01*
X0219606Y0106802D02*
X0245998Y0106802D01*
X0244399Y0105203D02*
X0218007Y0105203D01*
X0216409Y0103605D02*
X0242801Y0103605D01*
X0241202Y0102006D02*
X0214810Y0102006D01*
X0213212Y0100408D02*
X0239604Y0100408D01*
X0238005Y0098809D02*
X0211613Y0098809D01*
X0210015Y0097211D02*
X0236407Y0097211D01*
X0234808Y0095612D02*
X0208416Y0095612D01*
X0206818Y0094014D02*
X0233209Y0094014D01*
X0231611Y0092415D02*
X0205219Y0092415D01*
X0203621Y0090817D02*
X0230012Y0090817D01*
X0228414Y0089218D02*
X0202022Y0089218D01*
X0200424Y0087620D02*
X0226815Y0087620D01*
X0225217Y0086021D02*
X0198825Y0086021D01*
X0197227Y0084423D02*
X0223618Y0084423D01*
X0222020Y0082824D02*
X0195628Y0082824D01*
X0194030Y0081226D02*
X0220421Y0081226D01*
X0218823Y0079627D02*
X0192431Y0079627D01*
X0190833Y0078029D02*
X0217224Y0078029D01*
X0215626Y0076430D02*
X0190300Y0076430D01*
X0190300Y0074832D02*
X0214027Y0074832D01*
X0212429Y0073233D02*
X0188890Y0073233D01*
X0183710Y0073233D02*
X0178890Y0073233D01*
X0177957Y0072300D02*
X0180300Y0074643D01*
X0180300Y0077957D01*
X0177957Y0080300D01*
X0174643Y0080300D01*
X0172300Y0077957D01*
X0172300Y0074643D01*
X0174643Y0072300D01*
X0177957Y0072300D01*
X0180300Y0074832D02*
X0182300Y0074832D01*
X0182300Y0076430D02*
X0180300Y0076430D01*
X0180228Y0078029D02*
X0182372Y0078029D01*
X0183970Y0079627D02*
X0178630Y0079627D01*
X0173970Y0079627D02*
X0049195Y0079627D01*
X0048123Y0080700D02*
X0050700Y0078123D01*
X0050700Y0076300D01*
X0046300Y0076300D01*
X0046300Y0076300D01*
X0046300Y0076300D01*
X0046300Y0080700D01*
X0048123Y0080700D01*
X0046300Y0080700D02*
X0044477Y0080700D01*
X0041900Y0078123D01*
X0041900Y0076300D01*
X0046300Y0076300D01*
X0050700Y0076300D01*
X0050700Y0074477D01*
X0048123Y0071900D01*
X0046300Y0071900D01*
X0046300Y0076300D01*
X0046300Y0076300D01*
X0046300Y0076300D01*
X0046300Y0080700D01*
X0046300Y0079627D02*
X0046300Y0079627D01*
X0046300Y0078029D02*
X0046300Y0078029D01*
X0046300Y0076430D02*
X0046300Y0076430D01*
X0046300Y0076300D02*
X0041900Y0076300D01*
X0041900Y0074477D01*
X0044477Y0071900D01*
X0046300Y0071900D01*
X0046300Y0076300D01*
X0046300Y0074832D02*
X0046300Y0074832D01*
X0046300Y0073233D02*
X0046300Y0073233D01*
X0049456Y0073233D02*
X0173710Y0073233D01*
X0172300Y0074832D02*
X0050700Y0074832D01*
X0050700Y0076430D02*
X0172300Y0076430D01*
X0172372Y0078029D02*
X0050700Y0078029D01*
X0043405Y0079627D02*
X0038630Y0079627D01*
X0037957Y0080300D02*
X0034643Y0080300D01*
X0032300Y0077957D01*
X0032300Y0074643D01*
X0034643Y0072300D01*
X0037957Y0072300D01*
X0040300Y0074643D01*
X0040300Y0077957D01*
X0037957Y0080300D01*
X0040228Y0078029D02*
X0041900Y0078029D01*
X0041900Y0076430D02*
X0040300Y0076430D01*
X0040300Y0074832D02*
X0041900Y0074832D01*
X0043144Y0073233D02*
X0038890Y0073233D01*
X0033710Y0073233D02*
X0003100Y0073233D01*
X0003100Y0071634D02*
X0210830Y0071634D01*
X0209232Y0070036D02*
X0003100Y0070036D01*
X0003100Y0068437D02*
X0207633Y0068437D01*
X0206035Y0066839D02*
X0003100Y0066839D01*
X0003100Y0065240D02*
X0204436Y0065240D01*
X0202838Y0063642D02*
X0003100Y0063642D01*
X0003100Y0062043D02*
X0201239Y0062043D01*
X0199641Y0060445D02*
X0158378Y0060445D01*
X0158123Y0060700D02*
X0156300Y0060700D01*
X0156300Y0056300D01*
X0156300Y0056300D01*
X0160700Y0056300D01*
X0160700Y0058123D01*
X0158123Y0060700D01*
X0156300Y0060700D02*
X0154477Y0060700D01*
X0151900Y0058123D01*
X0151900Y0056300D01*
X0156300Y0056300D01*
X0156300Y0056300D01*
X0156300Y0056300D01*
X0156300Y0060700D01*
X0156300Y0060445D02*
X0156300Y0060445D01*
X0156300Y0058846D02*
X0156300Y0058846D01*
X0156300Y0057248D02*
X0156300Y0057248D01*
X0156300Y0056300D02*
X0151900Y0056300D01*
X0151900Y0054477D01*
X0154477Y0051900D01*
X0156300Y0051900D01*
X0158123Y0051900D01*
X0160700Y0054477D01*
X0160700Y0056300D01*
X0156300Y0056300D01*
X0156300Y0051900D01*
X0156300Y0056300D01*
X0156300Y0056300D01*
X0156300Y0055649D02*
X0156300Y0055649D01*
X0156300Y0054051D02*
X0156300Y0054051D01*
X0156300Y0052452D02*
X0156300Y0052452D01*
X0158675Y0052452D02*
X0191648Y0052452D01*
X0190050Y0050854D02*
X0003100Y0050854D01*
X0003100Y0052452D02*
X0064491Y0052452D01*
X0064643Y0052300D02*
X0067957Y0052300D01*
X0070300Y0054643D01*
X0070300Y0057957D01*
X0067957Y0060300D01*
X0064643Y0060300D01*
X0062300Y0057957D01*
X0062300Y0054643D01*
X0064643Y0052300D01*
X0064643Y0050300D02*
X0062300Y0047957D01*
X0062300Y0044643D01*
X0064643Y0042300D01*
X0067957Y0042300D01*
X0070300Y0044643D01*
X0070300Y0047957D01*
X0067957Y0050300D01*
X0064643Y0050300D01*
X0063598Y0049255D02*
X0003100Y0049255D01*
X0003100Y0047657D02*
X0062300Y0047657D01*
X0062300Y0046058D02*
X0003100Y0046058D01*
X0003100Y0044460D02*
X0062483Y0044460D01*
X0064082Y0042861D02*
X0003100Y0042861D01*
X0003100Y0041263D02*
X0049059Y0041263D01*
X0047460Y0039664D02*
X0003100Y0039664D01*
X0003100Y0038066D02*
X0045862Y0038066D01*
X0044263Y0036467D02*
X0003100Y0036467D01*
X0003100Y0034869D02*
X0042665Y0034869D01*
X0041066Y0033270D02*
X0003100Y0033270D01*
X0003100Y0031672D02*
X0039468Y0031672D01*
X0041079Y0028475D02*
X0042252Y0028475D01*
X0041900Y0028123D02*
X0041900Y0026300D01*
X0046300Y0026300D01*
X0050700Y0026300D01*
X0050700Y0028123D01*
X0048123Y0030700D01*
X0046300Y0030700D01*
X0046300Y0026300D01*
X0046300Y0026300D01*
X0046300Y0026300D01*
X0050700Y0026300D01*
X0050700Y0024477D01*
X0048123Y0021900D01*
X0046300Y0021900D01*
X0046300Y0026300D01*
X0046300Y0026300D01*
X0046300Y0026300D01*
X0046300Y0030700D01*
X0044477Y0030700D01*
X0041900Y0028123D01*
X0041900Y0026876D02*
X0040300Y0026876D01*
X0040300Y0025278D02*
X0041900Y0025278D01*
X0041900Y0024477D02*
X0044477Y0021900D01*
X0046300Y0021900D01*
X0046300Y0026300D01*
X0041900Y0026300D01*
X0041900Y0024477D01*
X0042698Y0023679D02*
X0039336Y0023679D01*
X0033264Y0023679D02*
X0003100Y0023679D01*
X0003100Y0022081D02*
X0044297Y0022081D01*
X0046300Y0022081D02*
X0046300Y0022081D01*
X0046300Y0023679D02*
X0046300Y0023679D01*
X0046300Y0025278D02*
X0046300Y0025278D01*
X0046300Y0026876D02*
X0046300Y0026876D01*
X0046300Y0028475D02*
X0046300Y0028475D01*
X0046300Y0030073D02*
X0046300Y0030073D01*
X0048749Y0030073D02*
X0360201Y0030073D01*
X0360201Y0028475D02*
X0050348Y0028475D01*
X0050700Y0026876D02*
X0360201Y0026876D01*
X0360201Y0025278D02*
X0050700Y0025278D01*
X0049902Y0023679D02*
X0360201Y0023679D01*
X0360201Y0022081D02*
X0048303Y0022081D01*
X0043851Y0030073D02*
X0042677Y0030073D01*
X0044276Y0031672D02*
X0360201Y0031672D01*
X0360201Y0033270D02*
X0045874Y0033270D01*
X0047473Y0034869D02*
X0360201Y0034869D01*
X0360201Y0036467D02*
X0049071Y0036467D01*
X0050670Y0038066D02*
X0360201Y0038066D01*
X0360201Y0039664D02*
X0183668Y0039664D01*
X0185267Y0041263D02*
X0360201Y0041263D01*
X0360201Y0042861D02*
X0298518Y0042861D01*
X0297957Y0042300D02*
X0300300Y0044643D01*
X0300300Y0047957D01*
X0297957Y0050300D01*
X0294643Y0050300D01*
X0292300Y0047957D01*
X0292300Y0044643D01*
X0294643Y0042300D01*
X0297957Y0042300D01*
X0300117Y0044460D02*
X0360201Y0044460D01*
X0360201Y0046058D02*
X0300300Y0046058D01*
X0300300Y0047657D02*
X0360201Y0047657D01*
X0360201Y0049255D02*
X0299001Y0049255D01*
X0298123Y0051900D02*
X0296300Y0051900D01*
X0296300Y0056300D01*
X0296300Y0056300D01*
X0296300Y0060700D01*
X0298123Y0060700D01*
X0300700Y0058123D01*
X0300700Y0056300D01*
X0296300Y0056300D01*
X0296300Y0056300D01*
X0296300Y0056300D01*
X0291900Y0056300D01*
X0291900Y0058123D01*
X0294477Y0060700D01*
X0296300Y0060700D01*
X0296300Y0056300D01*
X0300700Y0056300D01*
X0300700Y0054477D01*
X0298123Y0051900D01*
X0298675Y0052452D02*
X0360201Y0052452D01*
X0360201Y0050854D02*
X0213458Y0050854D01*
X0215057Y0052452D02*
X0234491Y0052452D01*
X0234643Y0052300D02*
X0237957Y0052300D01*
X0240300Y0054643D01*
X0240300Y0057957D01*
X0237957Y0060300D01*
X0234643Y0060300D01*
X0232300Y0057957D01*
X0232300Y0054643D01*
X0234643Y0052300D01*
X0234643Y0050300D02*
X0232300Y0047957D01*
X0232300Y0044643D01*
X0234643Y0042300D01*
X0237957Y0042300D01*
X0240300Y0044643D01*
X0240300Y0047957D01*
X0237957Y0050300D01*
X0234643Y0050300D01*
X0233598Y0049255D02*
X0211859Y0049255D01*
X0210300Y0047696D02*
X0252804Y0090200D01*
X0347604Y0090200D01*
X0349391Y0091987D01*
X0349477Y0091900D01*
X0353123Y0091900D01*
X0355700Y0094477D01*
X0355700Y0098123D01*
X0353123Y0100700D01*
X0349477Y0100700D01*
X0346900Y0098123D01*
X0346900Y0094477D01*
X0346987Y0094391D01*
X0346196Y0093600D01*
X0251396Y0093600D01*
X0250400Y0092604D01*
X0208026Y0050230D01*
X0207957Y0050300D01*
X0204643Y0050300D01*
X0202300Y0047957D01*
X0202300Y0044643D01*
X0204643Y0042300D01*
X0207957Y0042300D01*
X0210300Y0044643D01*
X0210300Y0047696D01*
X0210300Y0047657D02*
X0232300Y0047657D01*
X0232300Y0046058D02*
X0210300Y0046058D01*
X0210117Y0044460D02*
X0232483Y0044460D01*
X0234082Y0042861D02*
X0208518Y0042861D01*
X0204082Y0042861D02*
X0186865Y0042861D01*
X0188464Y0044460D02*
X0202483Y0044460D01*
X0202300Y0046058D02*
X0190062Y0046058D01*
X0191661Y0047657D02*
X0202300Y0047657D01*
X0203598Y0049255D02*
X0193259Y0049255D01*
X0194858Y0050854D02*
X0208650Y0050854D01*
X0207957Y0052300D02*
X0204643Y0052300D01*
X0202300Y0054643D01*
X0202300Y0057957D01*
X0204643Y0060300D01*
X0207957Y0060300D01*
X0210300Y0057957D01*
X0210300Y0054643D01*
X0207957Y0052300D01*
X0208109Y0052452D02*
X0210248Y0052452D01*
X0209708Y0054051D02*
X0211847Y0054051D01*
X0210300Y0055649D02*
X0213445Y0055649D01*
X0215044Y0057248D02*
X0210300Y0057248D01*
X0209410Y0058846D02*
X0216642Y0058846D01*
X0218241Y0060445D02*
X0204449Y0060445D01*
X0203190Y0058846D02*
X0202851Y0058846D01*
X0202300Y0057248D02*
X0201252Y0057248D01*
X0202300Y0055649D02*
X0199654Y0055649D01*
X0198055Y0054051D02*
X0202892Y0054051D01*
X0204491Y0052452D02*
X0196457Y0052452D01*
X0194845Y0055649D02*
X0160700Y0055649D01*
X0160700Y0057248D02*
X0196444Y0057248D01*
X0198042Y0058846D02*
X0159976Y0058846D01*
X0154222Y0060445D02*
X0003100Y0060445D01*
X0003100Y0058846D02*
X0063190Y0058846D01*
X0062300Y0057248D02*
X0003100Y0057248D01*
X0003100Y0055649D02*
X0062300Y0055649D01*
X0062892Y0054051D02*
X0003100Y0054051D01*
X0003100Y0074832D02*
X0032300Y0074832D01*
X0032300Y0076430D02*
X0003100Y0076430D01*
X0003100Y0078029D02*
X0032372Y0078029D01*
X0033970Y0079627D02*
X0003100Y0079627D01*
X0003100Y0081226D02*
X0189221Y0081226D01*
X0190820Y0082824D02*
X0003100Y0082824D01*
X0003100Y0084423D02*
X0192418Y0084423D01*
X0194017Y0086021D02*
X0003100Y0086021D01*
X0003100Y0087620D02*
X0195615Y0087620D01*
X0197214Y0089218D02*
X0003100Y0089218D01*
X0003100Y0090817D02*
X0198812Y0090817D01*
X0200411Y0092415D02*
X0014203Y0092415D01*
X0013288Y0091500D02*
X0016100Y0094312D01*
X0016100Y0096100D01*
X0011500Y0096100D01*
X0011500Y0096500D01*
X0016100Y0096500D01*
X0016100Y0098288D01*
X0013288Y0101100D01*
X0011500Y0101100D01*
X0011500Y0096500D01*
X0011100Y0096500D01*
X0011100Y0101100D01*
X0009312Y0101100D01*
X0006500Y0098288D01*
X0006500Y0096500D01*
X0011100Y0096500D01*
X0011100Y0096100D01*
X0011500Y0096100D01*
X0011500Y0091500D01*
X0013288Y0091500D01*
X0011500Y0092415D02*
X0011100Y0092415D01*
X0011100Y0091500D02*
X0011100Y0096100D01*
X0006500Y0096100D01*
X0006500Y0094312D01*
X0009312Y0091500D01*
X0011100Y0091500D01*
X0011100Y0094014D02*
X0011500Y0094014D01*
X0011500Y0095612D02*
X0011100Y0095612D01*
X0011100Y0097211D02*
X0011500Y0097211D01*
X0011500Y0098809D02*
X0011100Y0098809D01*
X0011100Y0100408D02*
X0011500Y0100408D01*
X0013229Y0102006D02*
X0210002Y0102006D01*
X0208404Y0100408D02*
X0013980Y0100408D01*
X0015579Y0098809D02*
X0206805Y0098809D01*
X0205207Y0097211D02*
X0016100Y0097211D01*
X0016100Y0095612D02*
X0203608Y0095612D01*
X0202010Y0094014D02*
X0015802Y0094014D01*
X0008397Y0092415D02*
X0003100Y0092415D01*
X0003100Y0094014D02*
X0006798Y0094014D01*
X0006500Y0095612D02*
X0003100Y0095612D01*
X0003100Y0097211D02*
X0006500Y0097211D01*
X0007021Y0098809D02*
X0003100Y0098809D01*
X0003100Y0100408D02*
X0008619Y0100408D01*
X0009371Y0102006D02*
X0003100Y0102006D01*
X0003100Y0103605D02*
X0007773Y0103605D01*
X0006900Y0105203D02*
X0003100Y0105203D01*
X0003100Y0106802D02*
X0006900Y0106802D01*
X0007178Y0108400D02*
X0003100Y0108400D01*
X0003100Y0109999D02*
X0008776Y0109999D01*
X0008182Y0113196D02*
X0003100Y0113196D01*
X0003100Y0114794D02*
X0006900Y0114794D01*
X0006900Y0116393D02*
X0003100Y0116393D01*
X0003100Y0117991D02*
X0006900Y0117991D01*
X0003100Y0111597D02*
X0219593Y0111597D01*
X0217995Y0109999D02*
X0188258Y0109999D01*
X0187957Y0110300D02*
X0184643Y0110300D01*
X0182300Y0107957D01*
X0182300Y0104643D01*
X0184643Y0102300D01*
X0187957Y0102300D01*
X0190300Y0104643D01*
X0190300Y0107957D01*
X0187957Y0110300D01*
X0189857Y0108400D02*
X0216396Y0108400D01*
X0214798Y0106802D02*
X0190300Y0106802D01*
X0190300Y0105203D02*
X0213199Y0105203D01*
X0211601Y0103605D02*
X0189262Y0103605D01*
X0183338Y0103605D02*
X0179262Y0103605D01*
X0180300Y0105203D02*
X0182300Y0105203D01*
X0182300Y0106802D02*
X0180300Y0106802D01*
X0179857Y0108400D02*
X0182743Y0108400D01*
X0184342Y0109999D02*
X0178258Y0109999D01*
X0174342Y0109999D02*
X0048258Y0109999D01*
X0032743Y0108400D02*
X0015422Y0108400D01*
X0015700Y0106802D02*
X0032300Y0106802D01*
X0032300Y0105203D02*
X0015700Y0105203D01*
X0014827Y0103605D02*
X0033338Y0103605D01*
X0069410Y0058846D02*
X0093190Y0058846D01*
X0092300Y0057957D02*
X0092300Y0054643D01*
X0094643Y0052300D01*
X0097957Y0052300D01*
X0100300Y0054643D01*
X0100300Y0057957D01*
X0097957Y0060300D01*
X0094643Y0060300D01*
X0092300Y0057957D01*
X0092300Y0057248D02*
X0070300Y0057248D01*
X0070300Y0055649D02*
X0092300Y0055649D01*
X0092892Y0054051D02*
X0069708Y0054051D01*
X0068109Y0052452D02*
X0094491Y0052452D01*
X0094643Y0050300D02*
X0092300Y0047957D01*
X0092300Y0044643D01*
X0094643Y0042300D01*
X0097957Y0042300D01*
X0100300Y0044643D01*
X0100300Y0047957D01*
X0097957Y0050300D01*
X0094643Y0050300D01*
X0093598Y0049255D02*
X0069001Y0049255D01*
X0070300Y0047657D02*
X0092300Y0047657D01*
X0092300Y0046058D02*
X0070300Y0046058D01*
X0070117Y0044460D02*
X0092483Y0044460D01*
X0094082Y0042861D02*
X0068518Y0042861D01*
X0098518Y0042861D02*
X0124082Y0042861D01*
X0124643Y0042300D02*
X0127957Y0042300D01*
X0130300Y0044643D01*
X0130300Y0047957D01*
X0127957Y0050300D01*
X0124643Y0050300D01*
X0122300Y0047957D01*
X0122300Y0044643D01*
X0124643Y0042300D01*
X0122483Y0044460D02*
X0100117Y0044460D01*
X0100300Y0046058D02*
X0122300Y0046058D01*
X0122300Y0047657D02*
X0100300Y0047657D01*
X0099001Y0049255D02*
X0123598Y0049255D01*
X0129001Y0049255D02*
X0153598Y0049255D01*
X0154643Y0050300D02*
X0152300Y0047957D01*
X0152300Y0044643D01*
X0154643Y0042300D01*
X0157957Y0042300D01*
X0160300Y0044643D01*
X0160300Y0047957D01*
X0157957Y0050300D01*
X0154643Y0050300D01*
X0153925Y0052452D02*
X0128109Y0052452D01*
X0127957Y0052300D02*
X0130300Y0054643D01*
X0130300Y0057957D01*
X0127957Y0060300D01*
X0124643Y0060300D01*
X0122300Y0057957D01*
X0122300Y0054643D01*
X0124643Y0052300D01*
X0127957Y0052300D01*
X0129708Y0054051D02*
X0152327Y0054051D01*
X0151900Y0055649D02*
X0130300Y0055649D01*
X0130300Y0057248D02*
X0151900Y0057248D01*
X0152624Y0058846D02*
X0129410Y0058846D01*
X0123190Y0058846D02*
X0099410Y0058846D01*
X0100300Y0057248D02*
X0122300Y0057248D01*
X0122300Y0055649D02*
X0100300Y0055649D01*
X0099708Y0054051D02*
X0122892Y0054051D01*
X0124491Y0052452D02*
X0098109Y0052452D01*
X0128518Y0042861D02*
X0154082Y0042861D01*
X0152483Y0044460D02*
X0130117Y0044460D01*
X0130300Y0046058D02*
X0152300Y0046058D01*
X0152300Y0047657D02*
X0130300Y0047657D01*
X0158518Y0042861D02*
X0182057Y0042861D01*
X0183656Y0044460D02*
X0160117Y0044460D01*
X0160300Y0046058D02*
X0185254Y0046058D01*
X0186853Y0047657D02*
X0160300Y0047657D01*
X0159001Y0049255D02*
X0188451Y0049255D01*
X0193247Y0054051D02*
X0160273Y0054051D01*
X0206048Y0062043D02*
X0219839Y0062043D01*
X0221438Y0063642D02*
X0207646Y0063642D01*
X0209245Y0065240D02*
X0223036Y0065240D01*
X0224635Y0066839D02*
X0210843Y0066839D01*
X0212442Y0068437D02*
X0226233Y0068437D01*
X0227832Y0070036D02*
X0214040Y0070036D01*
X0215639Y0071634D02*
X0229430Y0071634D01*
X0231029Y0073233D02*
X0217237Y0073233D01*
X0218836Y0074832D02*
X0232627Y0074832D01*
X0234226Y0076430D02*
X0220434Y0076430D01*
X0222033Y0078029D02*
X0235824Y0078029D01*
X0237423Y0079627D02*
X0223631Y0079627D01*
X0225230Y0081226D02*
X0239021Y0081226D01*
X0240620Y0082824D02*
X0226828Y0082824D01*
X0228427Y0084423D02*
X0242218Y0084423D01*
X0243817Y0086021D02*
X0230025Y0086021D01*
X0231624Y0087620D02*
X0245415Y0087620D01*
X0247014Y0089218D02*
X0233222Y0089218D01*
X0234821Y0090817D02*
X0248612Y0090817D01*
X0250211Y0092415D02*
X0236419Y0092415D01*
X0238018Y0094014D02*
X0346610Y0094014D01*
X0346900Y0095612D02*
X0239616Y0095612D01*
X0241215Y0097211D02*
X0346900Y0097211D01*
X0347587Y0098809D02*
X0242813Y0098809D01*
X0244412Y0100408D02*
X0349185Y0100408D01*
X0349477Y0101900D02*
X0353123Y0101900D01*
X0355700Y0104477D01*
X0355700Y0108123D01*
X0353123Y0110700D01*
X0349477Y0110700D01*
X0346900Y0108123D01*
X0346900Y0104477D01*
X0349477Y0101900D01*
X0349371Y0102006D02*
X0246010Y0102006D01*
X0247609Y0103605D02*
X0313338Y0103605D01*
X0312300Y0104643D02*
X0314643Y0102300D01*
X0317957Y0102300D01*
X0320300Y0104643D01*
X0320300Y0107957D01*
X0317957Y0110300D01*
X0314643Y0110300D01*
X0312300Y0107957D01*
X0312300Y0104643D01*
X0312300Y0105203D02*
X0249207Y0105203D01*
X0250806Y0106802D02*
X0312300Y0106802D01*
X0312743Y0108400D02*
X0252404Y0108400D01*
X0254003Y0109999D02*
X0314342Y0109999D01*
X0318258Y0109999D02*
X0324342Y0109999D01*
X0324643Y0110300D02*
X0322300Y0107957D01*
X0322300Y0104643D01*
X0324643Y0102300D01*
X0327957Y0102300D01*
X0330300Y0104643D01*
X0330300Y0107957D01*
X0327957Y0110300D01*
X0324643Y0110300D01*
X0322743Y0108400D02*
X0319857Y0108400D01*
X0320300Y0106802D02*
X0322300Y0106802D01*
X0322300Y0105203D02*
X0320300Y0105203D01*
X0319262Y0103605D02*
X0323338Y0103605D01*
X0329262Y0103605D02*
X0347773Y0103605D01*
X0346900Y0105203D02*
X0330300Y0105203D01*
X0330300Y0106802D02*
X0346900Y0106802D01*
X0347178Y0108400D02*
X0329857Y0108400D01*
X0328258Y0109999D02*
X0348776Y0109999D01*
X0353824Y0109999D02*
X0360201Y0109999D01*
X0360201Y0111597D02*
X0255601Y0111597D01*
X0257200Y0113196D02*
X0348182Y0113196D01*
X0354418Y0113196D02*
X0360201Y0113196D01*
X0360201Y0114794D02*
X0355700Y0114794D01*
X0355700Y0116393D02*
X0360201Y0116393D01*
X0360201Y0117991D02*
X0355700Y0117991D01*
X0355422Y0108400D02*
X0360201Y0108400D01*
X0360201Y0106802D02*
X0355700Y0106802D01*
X0355700Y0105203D02*
X0360201Y0105203D01*
X0360201Y0103605D02*
X0354827Y0103605D01*
X0353229Y0102006D02*
X0360201Y0102006D01*
X0360201Y0100408D02*
X0353415Y0100408D01*
X0355013Y0098809D02*
X0360201Y0098809D01*
X0360201Y0097211D02*
X0355700Y0097211D01*
X0355700Y0095612D02*
X0360201Y0095612D01*
X0360201Y0094014D02*
X0355236Y0094014D01*
X0353638Y0092415D02*
X0360201Y0092415D01*
X0360201Y0090817D02*
X0348221Y0090817D01*
X0360201Y0089218D02*
X0251822Y0089218D01*
X0250224Y0087620D02*
X0360201Y0087620D01*
X0360201Y0086021D02*
X0248625Y0086021D01*
X0247027Y0084423D02*
X0360201Y0084423D01*
X0360201Y0082824D02*
X0245428Y0082824D01*
X0243830Y0081226D02*
X0360201Y0081226D01*
X0360201Y0079627D02*
X0328630Y0079627D01*
X0327957Y0080300D02*
X0330300Y0077957D01*
X0330300Y0074643D01*
X0327957Y0072300D01*
X0324643Y0072300D01*
X0322300Y0074643D01*
X0322300Y0077957D01*
X0324643Y0080300D01*
X0327957Y0080300D01*
X0330228Y0078029D02*
X0360201Y0078029D01*
X0360201Y0076430D02*
X0330300Y0076430D01*
X0330300Y0074832D02*
X0360201Y0074832D01*
X0360201Y0073233D02*
X0328890Y0073233D01*
X0323710Y0073233D02*
X0318890Y0073233D01*
X0317957Y0072300D02*
X0320300Y0074643D01*
X0320300Y0077957D01*
X0317957Y0080300D01*
X0314643Y0080300D01*
X0312300Y0077957D01*
X0312300Y0074643D01*
X0314643Y0072300D01*
X0317957Y0072300D01*
X0320300Y0074832D02*
X0322300Y0074832D01*
X0322300Y0076430D02*
X0320300Y0076430D01*
X0320228Y0078029D02*
X0322372Y0078029D01*
X0323970Y0079627D02*
X0318630Y0079627D01*
X0313970Y0079627D02*
X0242231Y0079627D01*
X0240633Y0078029D02*
X0312372Y0078029D01*
X0312300Y0076430D02*
X0239034Y0076430D01*
X0237436Y0074832D02*
X0312300Y0074832D01*
X0313710Y0073233D02*
X0235837Y0073233D01*
X0234239Y0071634D02*
X0360201Y0071634D01*
X0360201Y0070036D02*
X0232640Y0070036D01*
X0231042Y0068437D02*
X0360201Y0068437D01*
X0360201Y0066839D02*
X0229443Y0066839D01*
X0227845Y0065240D02*
X0360201Y0065240D01*
X0360201Y0063642D02*
X0226246Y0063642D01*
X0224648Y0062043D02*
X0360201Y0062043D01*
X0360201Y0060445D02*
X0298378Y0060445D01*
X0296300Y0060445D02*
X0296300Y0060445D01*
X0296300Y0058846D02*
X0296300Y0058846D01*
X0296300Y0057248D02*
X0296300Y0057248D01*
X0296300Y0056300D02*
X0291900Y0056300D01*
X0291900Y0054477D01*
X0294477Y0051900D01*
X0296300Y0051900D01*
X0296300Y0056300D01*
X0296300Y0056300D01*
X0296300Y0055649D02*
X0296300Y0055649D01*
X0296300Y0054051D02*
X0296300Y0054051D01*
X0296300Y0052452D02*
X0296300Y0052452D01*
X0293925Y0052452D02*
X0268109Y0052452D01*
X0267957Y0052300D02*
X0270300Y0054643D01*
X0270300Y0057957D01*
X0267957Y0060300D01*
X0264643Y0060300D01*
X0262300Y0057957D01*
X0262300Y0054643D01*
X0264643Y0052300D01*
X0267957Y0052300D01*
X0267957Y0050300D02*
X0264643Y0050300D01*
X0262300Y0047957D01*
X0262300Y0044643D01*
X0264643Y0042300D01*
X0267957Y0042300D01*
X0270300Y0044643D01*
X0270300Y0047957D01*
X0267957Y0050300D01*
X0269001Y0049255D02*
X0293598Y0049255D01*
X0292300Y0047657D02*
X0270300Y0047657D01*
X0270300Y0046058D02*
X0292300Y0046058D01*
X0292483Y0044460D02*
X0270117Y0044460D01*
X0268518Y0042861D02*
X0294082Y0042861D01*
X0292327Y0054051D02*
X0269708Y0054051D01*
X0270300Y0055649D02*
X0291900Y0055649D01*
X0291900Y0057248D02*
X0270300Y0057248D01*
X0269410Y0058846D02*
X0292624Y0058846D01*
X0294222Y0060445D02*
X0223049Y0060445D01*
X0221451Y0058846D02*
X0233190Y0058846D01*
X0232300Y0057248D02*
X0219852Y0057248D01*
X0218254Y0055649D02*
X0232300Y0055649D01*
X0232892Y0054051D02*
X0216655Y0054051D01*
X0238109Y0052452D02*
X0264491Y0052452D01*
X0262892Y0054051D02*
X0239708Y0054051D01*
X0240300Y0055649D02*
X0262300Y0055649D01*
X0262300Y0057248D02*
X0240300Y0057248D01*
X0239410Y0058846D02*
X0263190Y0058846D01*
X0263598Y0049255D02*
X0239001Y0049255D01*
X0240300Y0047657D02*
X0262300Y0047657D01*
X0262300Y0046058D02*
X0240300Y0046058D01*
X0240117Y0044460D02*
X0262483Y0044460D01*
X0264082Y0042861D02*
X0238518Y0042861D01*
X0300273Y0054051D02*
X0360201Y0054051D01*
X0360201Y0055649D02*
X0300700Y0055649D01*
X0300700Y0057248D02*
X0360201Y0057248D01*
X0360201Y0058846D02*
X0299976Y0058846D01*
X0360201Y0020482D02*
X0003100Y0020482D01*
X0003100Y0018884D02*
X0360201Y0018884D01*
X0360201Y0017285D02*
X0003100Y0017285D01*
X0003100Y0015687D02*
X0360201Y0015687D01*
X0360201Y0014088D02*
X0003100Y0014088D01*
X0003100Y0012490D02*
X0360201Y0012490D01*
X0360201Y0010891D02*
X0003100Y0010891D01*
X0003100Y0009293D02*
X0360201Y0009293D01*
X0360201Y0007694D02*
X0003100Y0007694D01*
X0003100Y0006096D02*
X0360201Y0006096D01*
X0360201Y0004497D02*
X0003100Y0004497D01*
X0003100Y0025278D02*
X0032300Y0025278D01*
X0032300Y0026876D02*
X0003100Y0026876D01*
X0003100Y0028475D02*
X0032818Y0028475D01*
X0034416Y0030073D02*
X0003100Y0030073D01*
X0189485Y0138772D02*
X0313115Y0138772D01*
X0353600Y0132378D02*
X0360201Y0132378D01*
X0360201Y0133976D02*
X0355199Y0133976D01*
X0093413Y0183530D02*
X0069753Y0183530D01*
X0070700Y0185129D02*
X0092300Y0185129D01*
X0092300Y0186727D02*
X0070700Y0186727D01*
X0070497Y0188326D02*
X0092669Y0188326D01*
X0092300Y0194720D02*
X0070300Y0194720D01*
X0070300Y0196318D02*
X0092300Y0196318D01*
X0092300Y0197917D02*
X0070300Y0197917D01*
X0068741Y0199515D02*
X0093859Y0199515D01*
X0063859Y0199515D02*
X0003100Y0199515D01*
X0003100Y0197917D02*
X0062300Y0197917D01*
X0062300Y0196318D02*
X0003100Y0196318D01*
X0003100Y0194720D02*
X0062300Y0194720D01*
X0063702Y0189924D02*
X0003100Y0189924D01*
X0003100Y0188326D02*
X0062103Y0188326D01*
X0061900Y0186727D02*
X0003100Y0186727D01*
X0003100Y0185129D02*
X0061900Y0185129D01*
X0062847Y0183530D02*
X0003100Y0183530D01*
X0003100Y0181932D02*
X0064446Y0181932D01*
D14*
X0090100Y0130300D02*
X0015700Y0130300D01*
X0011500Y0126100D01*
X0011300Y0126300D01*
X0090100Y0130300D02*
X0156100Y0196300D01*
X0156300Y0196300D01*
X0240700Y0130300D02*
X0340300Y0130300D01*
X0346300Y0136300D01*
X0351300Y0136300D01*
X0322300Y0142900D02*
X0322300Y0162700D01*
X0325900Y0166300D01*
X0326300Y0166300D01*
X0322300Y0142900D02*
X0317500Y0138100D01*
X0317500Y0137500D01*
X0316300Y0136300D01*
X0351300Y0116300D02*
X0351100Y0115900D01*
X0257500Y0115900D01*
X0181900Y0040300D01*
X0050500Y0040300D01*
X0036700Y0026500D01*
X0036300Y0026300D01*
X0186300Y0076300D02*
X0186700Y0076300D01*
X0240700Y0130300D01*
X0252100Y0091900D02*
X0346900Y0091900D01*
X0351300Y0096300D01*
X0252100Y0091900D02*
X0206500Y0046300D01*
X0206300Y0046300D01*
M02*
