G75*
%MOIN*%
%OFA0B0*%
%FSLAX25Y25*%
%IPPOS*%
%LPD*%
%AMOC8*
5,1,8,0,0,1.08239X$1,22.5*
%
%ADD10C,0.00000*%
%ADD11OC8,0.05600*%
%ADD12OC8,0.06400*%
D10*
X0001300Y0001300D02*
X0001300Y0215261D01*
X0362001Y0215261D01*
X0362001Y0001300D01*
X0001300Y0001300D01*
D11*
X0036300Y0026300D03*
X0046300Y0026300D03*
X0066300Y0046300D03*
X0066300Y0056300D03*
X0096300Y0056300D03*
X0096300Y0046300D03*
X0126300Y0046300D03*
X0126300Y0056300D03*
X0156300Y0056300D03*
X0156300Y0046300D03*
X0206300Y0046300D03*
X0206300Y0056300D03*
X0186300Y0076300D03*
X0176300Y0076300D03*
X0176300Y0106300D03*
X0186300Y0106300D03*
X0186300Y0136300D03*
X0176300Y0136300D03*
X0176300Y0166300D03*
X0186300Y0166300D03*
X0206300Y0186300D03*
X0206300Y0196300D03*
X0236300Y0196300D03*
X0236300Y0186300D03*
X0266300Y0186300D03*
X0266300Y0196300D03*
X0296300Y0196300D03*
X0296300Y0186300D03*
X0316300Y0166300D03*
X0326300Y0166300D03*
X0326300Y0136300D03*
X0316300Y0136300D03*
X0316300Y0106300D03*
X0326300Y0106300D03*
X0326300Y0076300D03*
X0316300Y0076300D03*
X0296300Y0056300D03*
X0296300Y0046300D03*
X0266300Y0046300D03*
X0266300Y0056300D03*
X0236300Y0056300D03*
X0236300Y0046300D03*
X0046300Y0076300D03*
X0036300Y0076300D03*
X0036300Y0106300D03*
X0046300Y0106300D03*
X0046300Y0136300D03*
X0036300Y0136300D03*
X0036300Y0166300D03*
X0046300Y0166300D03*
X0066300Y0186300D03*
X0066300Y0196300D03*
X0096300Y0196300D03*
X0096300Y0186300D03*
X0126300Y0186300D03*
X0126300Y0196300D03*
X0156300Y0196300D03*
X0156300Y0186300D03*
D12*
X0011300Y0136300D03*
X0011300Y0126300D03*
X0011300Y0116300D03*
X0011300Y0106300D03*
X0011300Y0096300D03*
X0351300Y0096300D03*
X0351300Y0106300D03*
X0351300Y0116300D03*
X0351300Y0126300D03*
X0351300Y0136300D03*
M02*
