%
M48
M72
T01C0.03200
T02C0.04000
%
T01
X36300Y26300
X46300Y26300
X66300Y46300
X66300Y56300
X96300Y56300
X96300Y46300
X126300Y46300
X126300Y56300
X156300Y56300
X156300Y46300
X206300Y46300
X206300Y56300
X186300Y76300
X176300Y76300
X176300Y106300
X186300Y106300
X186300Y136300
X176300Y136300
X176300Y166300
X186300Y166300
X206300Y186300
X206300Y196300
X236300Y196300
X236300Y186300
X266300Y186300
X266300Y196300
X296300Y196300
X296300Y186300
X316300Y166300
X326300Y166300
X326300Y136300
X316300Y136300
X316300Y106300
X326300Y106300
X326300Y76300
X316300Y76300
X296300Y56300
X296300Y46300
X266300Y46300
X266300Y56300
X236300Y56300
X236300Y46300
X46300Y76300
X36300Y76300
X36300Y106300
X46300Y106300
X46300Y136300
X36300Y136300
X36300Y166300
X46300Y166300
X66300Y186300
X66300Y196300
X96300Y196300
X96300Y186300
X126300Y186300
X126300Y196300
X156300Y196300
X156300Y186300
T02
X11300Y136300
X11300Y126300
X11300Y116300
X11300Y106300
X11300Y96300
X351300Y96300
X351300Y106300
X351300Y116300
X351300Y126300
X351300Y136300
M30
